<svg width="611" height="553" viewBox="0 0 611 553" fill="none" xmlns="http://www.w3.org/2000/svg">
<circle cx="82" cy="55" r="55" fill="#D9D9D9"/>
<circle cx="286" cy="55" r="55" fill="#D9D9D9"/>
<circle cx="490" cy="55" r="55" fill="#D9D9D9"/>
<path d="M0 258C0 219.34 31.3401 188 70 188H611V375H70C31.3401 375 0 343.66 0 305V258Z" fill="#2F2F2F"/>
<path d="M0 436C0 397.34 31.3401 366 70 366H611V553H70C31.3401 553 0 521.66 0 483V436Z" fill="#2F2F2F"/>
<circle cx="81.4999" cy="55.5" r="3.5" fill="#33363F"/>
<path d="M92.9999 55.5C92.9999 65.124 91.513 73.7471 89.1764 79.8914C88.0055 82.9705 86.6599 85.3243 85.2674 86.8731C83.8744 88.4225 82.5976 89 81.4999 89C80.4022 89 79.1254 88.4225 77.7323 86.8731C76.3399 85.3243 74.9943 82.9705 73.8233 79.8914C71.4868 73.7471 69.9999 65.124 69.9999 55.5C69.9999 45.876 71.4868 37.2529 73.8233 31.1086C74.9943 28.0295 76.3399 25.6757 77.7323 24.1269C79.1254 22.5775 80.4022 22 81.4999 22C82.5976 22 83.8744 22.5775 85.2674 24.1269C86.6599 25.6757 88.0055 28.0295 89.1764 31.1086C91.513 37.2529 92.9999 45.876 92.9999 55.5Z" stroke="#33363F" stroke-width="4"/>
<path d="M87.7092 65.8162C79.4278 70.5975 71.2331 73.5342 64.7296 74.4712C61.4719 74.9406 58.7437 74.8928 56.6791 74.4008C54.62 73.9102 53.4066 73.0316 52.795 71.9722C52.1833 70.9128 52.0291 69.4226 52.6337 67.3942C53.2401 65.3601 54.5628 62.9735 56.5981 60.387C60.6613 55.2233 67.3019 49.5949 75.5834 44.8136C83.8648 40.0323 92.0595 37.0955 98.563 36.1585C101.821 35.6892 104.549 35.737 106.614 36.2289C108.673 36.7195 109.886 37.5982 110.498 38.6576C111.109 39.7169 111.263 41.2071 110.659 43.2356C110.053 45.2696 108.73 47.6562 106.695 50.2428C102.631 55.4065 95.9906 61.0349 87.7092 65.8162Z" stroke="#33363F" stroke-width="4"/>
<path d="M87.7092 44.8129C79.4278 40.0316 71.2331 37.0949 64.7296 36.1579C61.4719 35.6885 58.7437 35.7363 56.6791 36.2282C54.62 36.7188 53.4066 37.5975 52.795 38.6569C52.1833 39.7162 52.0291 41.2065 52.6337 43.2349C53.2401 45.269 54.5628 47.6556 56.5981 50.2421C60.6613 55.4058 67.3019 61.0342 75.5834 65.8155C83.8648 70.5968 92.0595 73.5336 98.563 74.4706C101.821 74.9399 104.549 74.8921 106.614 74.4002C108.673 73.9096 109.886 73.0309 110.498 71.9715C111.109 70.9122 111.263 69.422 110.659 67.3935C110.053 65.3594 108.73 62.9729 106.695 60.3863C102.631 55.2226 95.9906 49.5942 87.7092 44.8129Z" stroke="#33363F" stroke-width="4"/>
<path d="M0 371H327C365.66 371 397 402.34 397 441V553H0V371Z" fill="white"/>
<circle cx="82" cy="469" r="55" fill="#D9D9D9"/>
<circle cx="286" cy="469" r="55" fill="#D9D9D9"/>
<circle cx="504" cy="469" r="55" fill="white"/>
<path d="M70.064 299.48C67.504 299.48 65.12 299.064 62.912 298.232C60.736 297.368 58.832 296.168 57.2 294.632C55.6 293.064 54.352 291.224 53.456 289.112C52.56 287 52.112 284.696 52.112 282.2C52.112 279.704 52.56 277.4 53.456 275.288C54.352 273.176 55.616 271.352 57.248 269.816C58.88 268.248 60.784 267.048 62.96 266.216C65.136 265.352 67.52 264.92 70.112 264.92C72.864 264.92 75.376 265.4 77.648 266.36C79.92 267.288 81.84 268.68 83.408 270.536L79.376 274.328C78.16 273.016 76.8 272.04 75.296 271.4C73.792 270.728 72.16 270.392 70.4 270.392C68.64 270.392 67.024 270.68 65.552 271.256C64.112 271.832 62.848 272.648 61.76 273.704C60.704 274.76 59.872 276.008 59.264 277.448C58.688 278.888 58.4 280.472 58.4 282.2C58.4 283.928 58.688 285.512 59.264 286.952C59.872 288.392 60.704 289.64 61.76 290.696C62.848 291.752 64.112 292.568 65.552 293.144C67.024 293.72 68.64 294.008 70.4 294.008C72.16 294.008 73.792 293.688 75.296 293.048C76.8 292.376 78.16 291.368 79.376 290.024L83.408 293.864C81.84 295.688 79.92 297.08 77.648 298.04C75.376 299 72.848 299.48 70.064 299.48ZM97.3561 299.48C94.7321 299.48 92.2201 299.112 89.8201 298.376C87.4201 297.608 85.5161 296.632 84.1081 295.448L86.2681 290.6C87.6121 291.656 89.2761 292.536 91.2601 293.24C93.2441 293.944 95.2761 294.296 97.3561 294.296C99.1161 294.296 100.54 294.104 101.628 293.72C102.716 293.336 103.516 292.824 104.028 292.184C104.54 291.512 104.796 290.76 104.796 289.928C104.796 288.904 104.428 288.088 103.692 287.48C102.956 286.84 101.996 286.344 100.812 285.992C99.6601 285.608 98.3641 285.256 96.9241 284.936C95.5161 284.616 94.0921 284.248 92.6521 283.832C91.2441 283.384 89.9481 282.824 88.7641 282.152C87.6121 281.448 86.6681 280.52 85.9321 279.368C85.1961 278.216 84.8281 276.744 84.8281 274.952C84.8281 273.128 85.3081 271.464 86.2681 269.96C87.2601 268.424 88.7481 267.208 90.7321 266.312C92.7481 265.384 95.2921 264.92 98.3641 264.92C100.38 264.92 102.38 265.176 104.364 265.688C106.348 266.2 108.076 266.936 109.548 267.896L107.58 272.744C106.076 271.848 104.524 271.192 102.924 270.776C101.324 270.328 99.7881 270.104 98.3161 270.104C96.5881 270.104 95.1801 270.312 94.0921 270.728C93.0361 271.144 92.2521 271.688 91.7401 272.36C91.2601 273.032 91.0201 273.8 91.0201 274.664C91.0201 275.688 91.3721 276.52 92.0761 277.16C92.8121 277.768 93.7561 278.248 94.9081 278.6C96.0921 278.952 97.4041 279.304 98.8441 279.656C100.284 279.976 101.708 280.344 103.116 280.76C104.556 281.176 105.852 281.72 107.004 282.392C108.188 283.064 109.132 283.976 109.836 285.128C110.572 286.28 110.94 287.736 110.94 289.496C110.94 291.288 110.444 292.952 109.452 294.488C108.492 295.992 107.004 297.208 104.988 298.136C102.972 299.032 100.428 299.48 97.3561 299.48ZM125.144 299.48C122.52 299.48 120.008 299.112 117.608 298.376C115.208 297.608 113.304 296.632 111.896 295.448L114.056 290.6C115.4 291.656 117.064 292.536 119.048 293.24C121.032 293.944 123.064 294.296 125.144 294.296C126.904 294.296 128.328 294.104 129.416 293.72C130.504 293.336 131.304 292.824 131.816 292.184C132.328 291.512 132.584 290.76 132.584 289.928C132.584 288.904 132.216 288.088 131.48 287.48C130.744 286.84 129.784 286.344 128.6 285.992C127.448 285.608 126.152 285.256 124.712 284.936C123.304 284.616 121.88 284.248 120.44 283.832C119.032 283.384 117.736 282.824 116.552 282.152C115.4 281.448 114.456 280.52 113.72 279.368C112.984 278.216 112.616 276.744 112.616 274.952C112.616 273.128 113.096 271.464 114.056 269.96C115.048 268.424 116.536 267.208 118.52 266.312C120.536 265.384 123.08 264.92 126.152 264.92C128.168 264.92 130.168 265.176 132.152 265.688C134.136 266.2 135.864 266.936 137.336 267.896L135.368 272.744C133.864 271.848 132.312 271.192 130.712 270.776C129.112 270.328 127.576 270.104 126.104 270.104C124.376 270.104 122.968 270.312 121.88 270.728C120.824 271.144 120.04 271.688 119.528 272.36C119.048 273.032 118.808 273.8 118.808 274.664C118.808 275.688 119.16 276.52 119.864 277.16C120.6 277.768 121.544 278.248 122.696 278.6C123.88 278.952 125.192 279.304 126.632 279.656C128.072 279.976 129.496 280.344 130.904 280.76C132.344 281.176 133.64 281.72 134.792 282.392C135.976 283.064 136.92 283.976 137.624 285.128C138.36 286.28 138.728 287.736 138.728 289.496C138.728 291.288 138.232 292.952 137.24 294.488C136.28 295.992 134.792 297.208 132.776 298.136C130.76 299.032 128.216 299.48 125.144 299.48ZM151.509 288.152V283.16H164.709V288.152H151.509ZM190.731 299.48C188.107 299.48 185.595 299.112 183.195 298.376C180.795 297.608 178.891 296.632 177.483 295.448L179.643 290.6C180.987 291.656 182.651 292.536 184.635 293.24C186.619 293.944 188.651 294.296 190.731 294.296C192.491 294.296 193.915 294.104 195.003 293.72C196.091 293.336 196.891 292.824 197.403 292.184C197.915 291.512 198.171 290.76 198.171 289.928C198.171 288.904 197.803 288.088 197.067 287.48C196.331 286.84 195.371 286.344 194.187 285.992C193.035 285.608 191.739 285.256 190.299 284.936C188.891 284.616 187.467 284.248 186.027 283.832C184.619 283.384 183.323 282.824 182.139 282.152C180.987 281.448 180.043 280.52 179.307 279.368C178.571 278.216 178.203 276.744 178.203 274.952C178.203 273.128 178.683 271.464 179.643 269.96C180.635 268.424 182.123 267.208 184.107 266.312C186.123 265.384 188.667 264.92 191.739 264.92C193.755 264.92 195.755 265.176 197.739 265.688C199.723 266.2 201.451 266.936 202.923 267.896L200.955 272.744C199.451 271.848 197.899 271.192 196.299 270.776C194.699 270.328 193.163 270.104 191.691 270.104C189.963 270.104 188.555 270.312 187.467 270.728C186.411 271.144 185.627 271.688 185.115 272.36C184.635 273.032 184.395 273.8 184.395 274.664C184.395 275.688 184.747 276.52 185.451 277.16C186.187 277.768 187.131 278.248 188.283 278.6C189.467 278.952 190.779 279.304 192.219 279.656C193.659 279.976 195.083 280.344 196.491 280.76C197.931 281.176 199.227 281.72 200.379 282.392C201.563 283.064 202.507 283.976 203.211 285.128C203.947 286.28 204.315 287.736 204.315 289.496C204.315 291.288 203.819 292.952 202.827 294.488C201.867 295.992 200.379 297.208 198.363 298.136C196.347 299.032 193.803 299.48 190.731 299.48ZM217.175 299.336C214.359 299.336 212.183 298.616 210.647 297.176C209.111 295.704 208.343 293.544 208.343 290.696V267.704H214.343V290.552C214.343 291.768 214.647 292.712 215.255 293.384C215.895 294.056 216.775 294.392 217.895 294.392C219.239 294.392 220.359 294.04 221.255 293.336L222.935 297.608C222.231 298.184 221.367 298.616 220.343 298.904C219.319 299.192 218.263 299.336 217.175 299.336ZM204.119 278.36V273.56H221.207V278.36H204.119ZM227.114 308.648C225.866 308.648 224.618 308.44 223.37 308.024C222.122 307.608 221.082 307.032 220.25 306.296L222.65 301.88C223.258 302.424 223.946 302.856 224.714 303.176C225.482 303.496 226.266 303.656 227.066 303.656C228.154 303.656 229.034 303.384 229.706 302.84C230.378 302.296 231.002 301.384 231.578 300.104L233.066 296.744L233.546 296.024L243.242 273.368H249.002L237.002 301.064C236.202 302.984 235.306 304.504 234.314 305.624C233.354 306.744 232.266 307.528 231.05 307.976C229.866 308.424 228.554 308.648 227.114 308.648ZM232.394 299.912L220.826 273.368H227.066L236.474 295.496L232.394 299.912ZM250.352 299V263.384H256.352V299H250.352ZM273.875 299.336C271.027 299.336 268.531 298.776 266.387 297.656C264.275 296.504 262.627 294.936 261.443 292.952C260.291 290.968 259.715 288.712 259.715 286.184C259.715 283.624 260.275 281.368 261.395 279.416C262.547 277.432 264.115 275.88 266.099 274.76C268.115 273.64 270.403 273.08 272.963 273.08C275.459 273.08 277.683 273.624 279.635 274.712C281.587 275.8 283.123 277.336 284.243 279.32C285.363 281.304 285.923 283.64 285.923 286.328C285.923 286.584 285.907 286.872 285.875 287.192C285.875 287.512 285.859 287.816 285.827 288.104H264.467V284.12H282.659L280.307 285.368C280.339 283.896 280.035 282.6 279.395 281.48C278.755 280.36 277.875 279.48 276.755 278.84C275.667 278.2 274.403 277.88 272.963 277.88C271.491 277.88 270.195 278.2 269.075 278.84C267.987 279.48 267.123 280.376 266.483 281.528C265.875 282.648 265.571 283.976 265.571 285.512V286.472C265.571 288.008 265.923 289.368 266.627 290.552C267.331 291.736 268.323 292.648 269.603 293.288C270.883 293.928 272.355 294.248 274.019 294.248C275.459 294.248 276.755 294.024 277.907 293.576C279.059 293.128 280.083 292.424 280.979 291.464L284.195 295.16C283.043 296.504 281.587 297.544 279.827 298.28C278.099 298.984 276.115 299.336 273.875 299.336ZM297.206 299.336C295.062 299.336 292.998 299.064 291.014 298.52C289.062 297.944 287.51 297.256 286.358 296.456L288.662 291.896C289.814 292.632 291.19 293.24 292.79 293.72C294.39 294.2 295.99 294.44 297.59 294.44C299.478 294.44 300.838 294.184 301.67 293.672C302.534 293.16 302.966 292.472 302.966 291.608C302.966 290.904 302.678 290.376 302.102 290.024C301.526 289.64 300.774 289.352 299.846 289.16C298.918 288.968 297.878 288.792 296.726 288.632C295.606 288.472 294.47 288.264 293.318 288.008C292.198 287.72 291.174 287.32 290.246 286.808C289.318 286.264 288.566 285.544 287.99 284.648C287.414 283.752 287.126 282.568 287.126 281.096C287.126 279.464 287.59 278.056 288.518 276.872C289.446 275.656 290.742 274.728 292.406 274.088C294.102 273.416 296.102 273.08 298.406 273.08C300.134 273.08 301.878 273.272 303.638 273.656C305.398 274.04 306.854 274.584 308.006 275.288L305.702 279.848C304.486 279.112 303.254 278.616 302.006 278.36C300.79 278.072 299.574 277.928 298.358 277.928C296.534 277.928 295.174 278.2 294.278 278.744C293.414 279.288 292.982 279.976 292.982 280.808C292.982 281.576 293.27 282.152 293.846 282.536C294.422 282.92 295.174 283.224 296.102 283.448C297.03 283.672 298.054 283.864 299.174 284.024C300.326 284.152 301.462 284.36 302.582 284.648C303.702 284.936 304.726 285.336 305.654 285.848C306.614 286.328 307.382 287.016 307.958 287.912C308.534 288.808 308.822 289.976 308.822 291.416C308.822 293.016 308.342 294.408 307.382 295.592C306.454 296.776 305.126 297.704 303.398 298.376C301.67 299.016 299.606 299.336 297.206 299.336Z" fill="white"/>
<g clip-path="url(#clip0_87_563)">
<path d="M279.305 465.937V457.303H286.091C289.8 457.303 291.97 458.902 291.97 461.632C291.97 464.439 289.667 465.937 285.245 465.937H279.305ZM279.305 479.104H286.541C291.055 479.104 293.441 477.424 293.441 474.285C293.441 471.187 290.963 469.567 286.251 469.567H279.305V479.104Z" fill="#2F2F2F"/>
<path d="M270.258 441C266.213 441 262.334 442.475 259.474 445.101C256.614 447.726 255.008 451.287 255.008 455V483C255.008 486.713 256.614 490.274 259.474 492.899C262.334 495.525 266.213 497 270.258 497H300.758C304.802 497 308.681 495.525 311.541 492.899C314.401 490.274 316.008 486.713 316.008 483V455C316.008 451.287 314.401 447.726 311.541 445.101C308.681 442.475 304.802 441 300.758 441H270.258ZM274.299 483V453.408H287.258C293.308 453.408 296.953 456.239 296.953 460.793C296.953 463.887 294.475 466.655 291.299 467.149V467.499C295.656 467.908 298.558 470.757 298.558 474.614C298.558 479.822 294.425 483 287.547 483H274.299Z" fill="#2F2F2F"/>
</g>
<path d="M503.5 432C484.439 432 469 447.439 469 466.5C469 481.766 478.876 494.661 492.589 499.232C494.314 499.534 494.961 498.499 494.961 497.593C494.961 496.774 494.918 494.057 494.918 491.168C486.25 492.763 484.007 489.054 483.317 487.114C482.929 486.122 481.248 483.06 479.781 482.241C478.574 481.594 476.849 479.998 479.738 479.955C482.455 479.912 484.396 482.456 485.043 483.491C488.148 488.709 493.107 487.243 495.091 486.338C495.393 484.095 496.298 482.586 497.29 481.723C489.614 480.861 481.593 477.885 481.593 464.689C481.593 460.937 482.929 457.832 485.129 455.417C484.784 454.554 483.576 451.018 485.474 446.274C485.474 446.274 488.363 445.369 494.961 449.811C497.721 449.034 500.654 448.646 503.586 448.646C506.519 448.646 509.451 449.034 512.211 449.811C518.809 445.326 521.699 446.274 521.699 446.274C523.596 451.018 522.389 454.554 522.044 455.417C524.243 457.832 525.58 460.894 525.58 464.689C525.58 477.928 517.516 480.861 509.839 481.723C511.09 482.801 512.168 484.871 512.168 488.106C512.168 492.72 512.125 496.429 512.125 497.593C512.125 498.499 512.772 499.577 514.497 499.232C521.347 496.921 527.299 492.52 531.516 486.648C535.732 480.776 538 473.729 538 466.5C538 447.439 522.561 432 503.5 432Z" fill="#2F2F2F"/>
<g clip-path="url(#clip1_87_563)">
<mask id="mask0_87_563" style="mask-type:luminance" maskUnits="userSpaceOnUse" x="42" y="444" width="80" height="49">
<path d="M42 444H122V492.109H42V444Z" fill="white"/>
</mask>
<g mask="url(#mask0_87_563)">
<path fill-rule="evenodd" clip-rule="evenodd" d="M82 444C71.3333 444 64.6667 449.345 62 460.036C66 454.691 70.6667 452.686 76 454.023C79.043 454.784 81.2178 456.998 83.6252 459.447C87.5467 463.437 92.0859 468.055 102 468.055C112.667 468.055 119.333 462.709 122 452.018C118 457.364 113.333 459.368 108 458.032C104.957 457.27 102.782 455.056 100.375 452.608C96.4533 448.618 91.9141 444 82 444ZM62 468.055C51.3333 468.055 44.6667 473.4 42 484.091C46 478.745 50.6667 476.741 56 478.077C59.043 478.84 61.2178 481.053 63.6252 483.501C67.5467 487.491 72.0859 492.109 82 492.109C92.6667 492.109 99.3333 486.764 102 476.073C98 481.418 93.3333 483.423 88 482.086C84.957 481.325 82.7822 479.111 80.3748 476.662C76.4533 472.672 71.9141 468.055 62 468.055Z" fill="#2F2F2F"/>
</g>
</g>
<g opacity="0.61">
<path d="M279.333 97.8557L278.31 100.219H277.769L276.75 97.8557H277.341L278.06 99.5438L278.789 97.8557H279.333Z" fill="#D9D9D9"/>
<path d="M281.125 99.4323H279.751C279.802 99.6586 279.994 99.797 280.271 99.797C280.463 99.797 280.602 99.7396 280.727 99.6215L281.007 99.9253C280.838 100.118 280.585 100.219 280.257 100.219C279.629 100.219 279.221 99.8241 279.221 99.2838C279.221 98.7403 279.636 98.3486 280.19 98.3486C280.723 98.3486 281.135 98.7065 281.135 99.2907C281.135 99.3311 281.129 99.3885 281.125 99.4323ZM279.744 99.1251H280.639C280.602 98.8954 280.43 98.7469 280.194 98.7469C279.954 98.7469 279.782 98.8921 279.744 99.1251Z" fill="#D9D9D9"/>
<path d="M281.351 99.2838C281.351 98.7368 281.773 98.3486 282.364 98.3486C282.746 98.3486 283.046 98.514 283.178 98.8111L282.77 99.0307C282.672 98.8584 282.527 98.7808 282.361 98.7808C282.094 98.7808 281.885 98.9664 281.885 99.2838C281.885 99.6012 282.094 99.7869 282.361 99.7869C282.526 99.7869 282.672 99.7126 282.77 99.537L283.178 99.7598C283.046 100.05 282.746 100.219 282.364 100.219C281.773 100.219 281.351 99.8309 281.351 99.2838Z" fill="#D9D9D9"/>
<path d="M284.68 100.104C284.572 100.182 284.414 100.219 284.252 100.219C283.823 100.219 283.573 99.9996 283.573 99.5674V98.8213H283.293V98.4161H283.573V97.9738H284.1V98.4161H284.552V98.8213H284.1V99.5608C284.1 99.7161 284.184 99.8005 284.326 99.8005C284.404 99.8005 284.481 99.777 284.539 99.733L284.68 100.104Z" fill="#D9D9D9"/>
<path d="M288.295 98.3755V98.8618C288.251 98.8585 288.218 98.855 288.177 98.855C287.887 98.855 287.694 99.0136 287.694 99.3615V100.219H287.167V98.4025H287.671V98.6423C287.799 98.4667 288.015 98.3755 288.295 98.3755Z" fill="#D9D9D9"/>
<path d="M288.447 99.9456L288.633 99.5336C288.832 99.6787 289.129 99.78 289.413 99.78C289.737 99.78 289.868 99.6719 289.868 99.5268C289.868 99.0844 288.494 99.3884 288.494 98.5104C288.494 98.1085 288.818 97.7744 289.49 97.7744C289.787 97.7744 290.091 97.8452 290.311 97.9837L290.142 98.399C289.922 98.2741 289.696 98.2134 289.487 98.2134C289.163 98.2134 289.038 98.3348 289.038 98.4835C289.038 98.919 290.412 98.6185 290.412 99.4863C290.412 99.8813 290.084 100.219 289.409 100.219C289.035 100.219 288.656 100.108 288.447 99.9456Z" fill="#D9D9D9"/>
<path d="M292.519 99.4324H291.145C291.195 99.6587 291.388 99.7971 291.665 99.7971C291.857 99.7971 291.995 99.7397 292.12 99.6215L292.401 99.9253C292.232 100.118 291.978 100.219 291.651 100.219C291.023 100.219 290.614 99.8241 290.614 99.2839C290.614 98.7404 291.03 98.3486 291.583 98.3486C292.117 98.3486 292.529 98.7065 292.529 99.2907C292.529 99.3312 292.522 99.3886 292.519 99.4324ZM291.138 99.1251H292.033C291.996 98.8955 291.823 98.747 291.587 98.747C291.347 98.747 291.175 98.8922 291.138 99.1251Z" fill="#D9D9D9"/>
<path d="M294.649 99.4324H293.275C293.326 99.6587 293.518 99.7971 293.795 99.7971C293.987 99.7971 294.126 99.7397 294.251 99.6215L294.531 99.9253C294.362 100.118 294.109 100.219 293.781 100.219C293.153 100.219 292.745 99.8241 292.745 99.2839C292.745 98.7404 293.16 98.3486 293.714 98.3486C294.247 98.3486 294.659 98.7065 294.659 99.2907C294.659 99.3312 294.653 99.3886 294.649 99.4324ZM293.268 99.1251H294.163C294.126 98.8955 293.954 98.747 293.717 98.747C293.478 98.747 293.305 98.8922 293.268 99.1251Z" fill="#D9D9D9"/>
<path d="M295.79 99.5067L295.537 99.7566V100.219H295.01V97.7138H295.537V99.1319L296.307 98.4025H296.935L296.179 99.1724L297.003 100.219H296.364L295.79 99.5067Z" fill="#D9D9D9"/>
<path d="M287.215 100.466L286.688 99.9398C286.608 100.033 286.513 100.113 286.406 100.176C286.389 100.189 286.372 100.201 286.354 100.213L286.911 100.77C286.995 100.854 287.131 100.854 287.215 100.77C287.299 100.686 287.299 100.55 287.215 100.466Z" fill="#D9D9D9"/>
<path d="M285.997 98.2369C286.038 98.2051 286.088 98.1852 286.144 98.1852C286.152 98.1852 286.159 98.1856 286.167 98.1863C286.127 98.1576 286.079 98.1405 286.026 98.1405C285.953 98.1405 285.889 98.1736 285.846 98.2247C285.836 98.2247 285.827 98.2259 285.818 98.2262C285.825 98.2121 285.83 98.1964 285.83 98.1793C285.83 98.1362 285.803 98.0994 285.766 98.0838C285.782 98.107 285.791 98.1351 285.791 98.1657C285.791 98.1881 285.786 98.2093 285.776 98.2284C285.259 98.2654 284.851 98.6956 284.851 99.222C284.851 99.7727 285.297 100.219 285.848 100.219C286.399 100.219 286.845 99.7729 286.845 99.222C286.846 98.7217 286.477 98.3088 285.997 98.2369ZM285.629 98.4967C285.709 98.4967 285.784 98.5173 285.85 98.5536C285.918 98.5085 286 98.4823 286.089 98.4823C286.219 98.4823 286.337 98.5398 286.417 98.6307C286.337 98.5609 286.232 98.5184 286.117 98.5184C286.035 98.5184 285.957 98.5405 285.89 98.5789C285.876 98.5874 285.862 98.5966 285.848 98.6065C285.836 98.5977 285.824 98.5894 285.811 98.5819C285.743 98.5416 285.664 98.5186 285.579 98.5186C285.524 98.5186 285.471 98.5285 285.422 98.5466C285.484 98.5147 285.554 98.4967 285.629 98.4967ZM286.326 99.314C286.347 99.3701 286.359 99.4307 286.359 99.4942C286.359 99.7764 286.131 100.005 285.848 100.005C285.566 100.005 285.337 99.7764 285.337 99.4942C285.337 99.4307 285.349 99.3701 285.371 99.314C285.257 99.2437 285.18 99.1183 285.18 98.9744C285.18 98.7541 285.359 98.5755 285.579 98.5755C285.683 98.5755 285.777 98.6156 285.848 98.6807C285.919 98.6156 286.014 98.5755 286.118 98.5755C286.338 98.5755 286.517 98.7541 286.517 98.9744C286.517 99.1183 286.44 99.2437 286.326 99.314Z" fill="#D9D9D9"/>
<path d="M286.307 98.9392C286.307 99.0307 286.232 99.105 286.141 99.105C286.049 99.105 285.975 99.0307 285.975 98.9392C285.975 98.8478 286.049 98.7734 286.141 98.7734C286.159 98.7734 286.177 98.7766 286.194 98.7821C286.188 98.7935 286.185 98.8064 286.185 98.8196C286.185 98.8699 286.226 98.9105 286.276 98.9105C286.285 98.9105 286.294 98.909 286.303 98.9065C286.305 98.9171 286.307 98.928 286.307 98.9392Z" fill="#D9D9D9"/>
<path d="M285.679 98.9393C285.679 99.0085 285.623 99.0646 285.554 99.0646C285.484 99.0646 285.428 99.0085 285.428 98.9393C285.428 98.8701 285.484 98.814 285.554 98.814C285.568 98.814 285.581 98.8164 285.594 98.8204C285.589 98.8291 285.587 98.8388 285.587 98.8489C285.587 98.8868 285.618 98.9177 285.656 98.9177C285.663 98.9177 285.67 98.9166 285.676 98.9146C285.678 98.9225 285.679 98.9308 285.679 98.9393Z" fill="#D9D9D9"/>
<path d="M284.808 99.0808H284.695V99.1942H284.808V99.0808Z" fill="#D9D9D9"/>
<path d="M287.002 99.0808H286.888V99.1942H287.002V99.0808Z" fill="#D9D9D9"/>
<path d="M286.958 99.1272H286.932C286.932 98.5295 286.446 98.0434 285.848 98.0434C285.251 98.0434 284.764 98.5295 284.764 99.1272H284.739C284.739 98.8307 284.854 98.5522 285.064 98.3426C285.273 98.133 285.552 98.0176 285.848 98.0176C286.145 98.0176 286.423 98.133 286.633 98.3426C286.842 98.5522 286.958 98.8307 286.958 99.1272Z" fill="#D9D9D9"/>
<path d="M285.905 97.9738H285.792V98.0872H285.905V97.9738Z" fill="#D9D9D9"/>
<path d="M286.626 98.0176H285.071V98.0434H286.626V98.0176Z" fill="#D9D9D9"/>
<path d="M285.113 98.0361C285.113 98.0562 285.097 98.0726 285.076 98.0726C285.056 98.0726 285.04 98.0562 285.04 98.0361C285.04 98.016 285.056 97.9996 285.076 97.9996C285.097 97.9996 285.113 98.016 285.113 98.0361Z" fill="#D9D9D9"/>
<path d="M286.663 98.0361C286.663 98.0562 286.646 98.0726 286.626 98.0726C286.606 98.0726 286.589 98.0562 286.589 98.0361C286.589 98.016 286.606 97.9996 286.626 97.9996C286.646 97.9996 286.663 98.016 286.663 98.0361Z" fill="#D9D9D9"/>
<path d="M297.841 100.107C297.841 100.394 297.406 100.394 297.406 100.107C297.407 99.8206 297.841 99.8206 297.841 100.107Z" fill="#D9D9D9"/>
<path d="M269.76 98.845L270.086 99.9652L270.427 98.845H270.835L270.315 100.343H269.887L269.733 99.9019L269.6 99.4037L269.467 99.9019L269.313 100.343H268.884L268.362 98.845H268.772L269.114 99.9652L269.437 98.845H269.76Z" fill="#D9D9D9"/>
<path d="M272.515 98.845L272.841 99.9652L273.183 98.845H273.59L273.071 100.343H272.642L272.488 99.9019L272.355 99.4037L272.222 99.9019L272.068 100.343H271.64L271.117 98.845H271.528L271.869 99.9652L272.192 98.845H272.515Z" fill="#D9D9D9"/>
<path d="M275.27 98.845L275.596 99.9652L275.938 98.845H276.345L275.826 100.343H275.397L275.243 99.9019L275.11 99.4037L274.977 99.9019L274.823 100.343H274.395L273.872 98.845H274.283L274.624 99.9652L274.947 98.845H275.27Z" fill="#D9D9D9"/>
<path d="M276.967 100.128C276.967 100.415 276.532 100.415 276.532 100.128C276.532 99.8411 276.967 99.8411 276.967 100.128Z" fill="#D9D9D9"/>
<path d="M299.379 100.107C299.207 100.276 299.026 100.343 298.805 100.343C298.373 100.343 298.014 100.083 298.014 99.5549C298.014 99.0267 298.373 98.7667 298.805 98.7667C299.017 98.7667 299.18 98.8272 299.343 98.9873L299.11 99.2318C299.022 99.1531 298.914 99.1141 298.811 99.1141C298.564 99.1141 298.383 99.2953 298.383 99.5549C298.383 99.8387 298.576 99.9895 298.805 99.9895C298.923 99.9895 299.041 99.9564 299.131 99.8659L299.379 100.107Z" fill="#D9D9D9"/>
<path d="M301.052 99.5669C301.052 99.9956 300.759 100.343 300.276 100.343C299.793 100.343 299.503 99.9956 299.503 99.5669C299.503 99.1411 299.799 98.791 300.273 98.791C300.747 98.791 301.052 99.1411 301.052 99.5669ZM299.872 99.5669C299.872 99.7934 300.008 100.005 300.276 100.005C300.545 100.005 300.681 99.7934 300.681 99.5669C300.681 99.3433 300.524 99.126 300.276 99.126C300.01 99.1262 299.872 99.3435 299.872 99.5669Z" fill="#D9D9D9"/>
<path d="M302.297 100.343V99.5457C302.297 99.3492 302.194 99.1713 301.992 99.1713C301.793 99.1713 301.675 99.3492 301.675 99.5457V100.343H301.307V98.8511H301.648L301.675 99.0324C301.754 98.8815 301.926 98.827 302.068 98.827C302.246 98.827 302.424 98.8995 302.509 99.1049C302.642 98.8935 302.814 98.8329 303.007 98.8329C303.43 98.8329 303.638 99.0927 303.638 99.5395V100.343H303.269V99.5395C303.269 99.3433 303.188 99.177 302.989 99.177C302.79 99.177 302.666 99.349 302.666 99.5455V100.343H302.297V100.343Z" fill="#D9D9D9"/>
</g>
<g opacity="0.61">
<path d="M303.662 92.359C303.661 92.1338 303.485 91.9688 303.259 91.9653C303.089 91.9627 303.106 91.9874 303.106 91.8057C303.105 91.6039 303.104 91.402 303.106 91.2C303.107 91.1303 303.085 91.0729 303.039 91.0204C302.609 90.5295 302.179 90.0375 301.748 89.5464C301.726 89.5212 301.697 89.5015 301.672 89.4791C300.528 89.4791 299.385 89.4791 298.242 89.4791C298.096 89.533 298.032 89.6388 298.032 89.7935C298.034 90.4832 298.033 91.1728 298.033 91.8622C298.033 91.9645 298.033 91.9706 297.932 91.9636C297.657 91.9448 297.469 92.145 297.473 92.4221C297.481 93.0617 297.475 93.7015 297.475 94.3411C297.475 94.6318 297.635 94.7906 297.926 94.7917C298.033 94.7921 298.033 94.7921 298.033 94.9021C298.033 95.3104 298.033 95.7187 298.033 96.127C298.033 96.3463 298.14 96.4528 298.359 96.4528C299.833 96.453 301.308 96.453 302.782 96.4528C302.997 96.4528 303.105 96.3456 303.105 96.1318C303.106 95.7167 303.105 95.3016 303.105 94.8865C303.105 94.7922 303.106 94.7924 303.201 94.7917C303.251 94.7913 303.301 94.7932 303.35 94.781C303.533 94.7358 303.661 94.5889 303.662 94.4003C303.665 93.7201 303.665 93.0395 303.662 92.359ZM298.427 89.7578C299.409 89.7578 300.391 89.7578 301.373 89.7578C301.473 89.7578 301.475 89.7591 301.475 89.861C301.475 90.2738 301.474 90.6865 301.475 91.0994C301.475 91.2486 301.521 91.2942 301.67 91.2942C302.021 91.2944 302.373 91.2942 302.724 91.2944C302.809 91.2944 302.812 91.2983 302.813 91.3833C302.813 91.5465 302.813 91.7099 302.813 91.8731C302.813 91.9609 302.808 91.9647 302.72 91.9649C302.003 91.9651 301.287 91.9649 300.57 91.9649C299.856 91.9649 299.141 91.9649 298.427 91.9649C298.326 91.9649 298.326 91.9647 298.326 91.8617C298.325 91.1949 298.325 90.5282 298.326 89.8614C298.326 89.7586 298.326 89.7578 298.427 89.7578ZM302.711 96.0906C301.997 96.0907 301.282 96.0906 300.568 96.0906C299.855 96.0906 299.143 96.0906 298.431 96.0906C298.326 96.0906 298.325 96.0902 298.325 95.984C298.325 95.6166 298.325 95.2491 298.325 94.8817C298.325 94.7963 298.33 94.7922 298.413 94.7921C299.849 94.7919 301.285 94.7919 302.721 94.7921C302.809 94.7921 302.813 94.7957 302.813 94.8846C302.813 95.2521 302.813 95.6195 302.813 95.987C302.813 96.0896 302.812 96.0906 302.711 96.0906Z" fill="#D9D9D9"/>
<path d="M300.568 89.7378H300.245V89.9317H300.568V89.7378Z" fill="#D9D9D9"/>
<path d="M300.245 89.9317H299.922V90.1256H300.245V89.9317Z" fill="#D9D9D9"/>
<path d="M300.568 90.1257H300.245V90.3196H300.568V90.1257Z" fill="#D9D9D9"/>
<path d="M300.245 90.3196H299.922V90.5135H300.245V90.3196Z" fill="#D9D9D9"/>
<path d="M300.568 90.5135H300.245V90.7075H300.568V90.5135Z" fill="#D9D9D9"/>
<path d="M300.245 90.7075H299.922V90.9014H300.245V90.7075Z" fill="#D9D9D9"/>
<path d="M300.568 90.9016H300.245V91.0956H300.568V90.9016Z" fill="#D9D9D9"/>
<path d="M300.245 91.0955H299.922V91.2895H300.245V91.0955Z" fill="#D9D9D9"/>
<path d="M300.568 91.2895H300.245V91.4834H300.568V91.2895Z" fill="#D9D9D9"/>
<path d="M300.245 91.4834H299.922V91.6773H300.245V91.4834Z" fill="#D9D9D9"/>
<path d="M300.568 91.6773H300.245V91.8712H300.568V91.6773Z" fill="#D9D9D9"/>
<path d="M300.245 91.8713H299.922V92.0652H300.245V91.8713Z" fill="#D9D9D9"/>
<path d="M274.525 92.359C274.524 92.1338 274.349 91.9688 274.122 91.9653C273.952 91.9627 273.969 91.9874 273.969 91.8057C273.968 91.6039 273.968 91.402 273.97 91.2C273.97 91.1303 273.949 91.0729 273.903 91.0204C273.472 90.5295 273.042 90.0375 272.611 89.5464C272.589 89.5212 272.561 89.5015 272.535 89.4791C271.392 89.4791 270.249 89.4791 269.105 89.4791C268.959 89.533 268.896 89.6388 268.896 89.7935C268.898 90.4832 268.897 91.1728 268.897 91.8622C268.897 91.9645 268.896 91.9706 268.795 91.9636C268.52 91.9448 268.332 92.145 268.336 92.4221C268.344 93.0617 268.338 93.7015 268.339 94.3411C268.339 94.6318 268.498 94.7906 268.789 94.7917C268.896 94.7921 268.896 94.7921 268.896 94.9021C268.896 95.3104 268.896 95.7187 268.897 96.127C268.897 96.3463 269.003 96.4528 269.222 96.4528C270.696 96.453 272.171 96.453 273.645 96.4528C273.86 96.4528 273.968 96.3456 273.969 96.1318C273.969 95.7167 273.969 95.3016 273.969 94.8865C273.969 94.7922 273.969 94.7924 274.064 94.7917C274.114 94.7913 274.164 94.7932 274.213 94.781C274.397 94.7358 274.524 94.5889 274.525 94.4003C274.528 93.7201 274.529 93.0395 274.525 92.359ZM269.29 89.7578C270.272 89.7578 271.254 89.7578 272.236 89.7578C272.337 89.7578 272.338 89.7591 272.338 89.861C272.338 90.2738 272.338 90.6865 272.338 91.0994C272.339 91.2486 272.384 91.2942 272.533 91.2942C272.885 91.2944 273.236 91.2942 273.588 91.2944C273.672 91.2944 273.676 91.2983 273.676 91.3833C273.677 91.5465 273.677 91.7099 273.676 91.8731C273.676 91.9609 273.672 91.9647 273.584 91.9649C272.867 91.9651 272.15 91.9649 271.434 91.9649C270.72 91.9649 270.005 91.9649 269.291 91.9649C269.19 91.9649 269.189 91.9647 269.189 91.8617C269.189 91.1949 269.189 90.5282 269.189 89.8614C269.189 89.7586 269.19 89.7578 269.29 89.7578ZM273.575 96.0906C272.86 96.0907 272.146 96.0906 271.431 96.0906C270.719 96.0906 270.007 96.0906 269.294 96.0906C269.189 96.0906 269.189 96.0902 269.189 95.984C269.189 95.6166 269.189 95.2491 269.189 94.8817C269.189 94.7963 269.193 94.7922 269.277 94.7921C270.713 94.7919 272.149 94.7919 273.584 94.7921C273.672 94.7921 273.676 94.7957 273.676 94.8846C273.677 95.2521 273.676 95.6195 273.676 95.987C273.676 96.0896 273.675 96.0906 273.575 96.0906Z" fill="#D9D9D9"/>
<path d="M269.399 94.0831V92.6301H269.911C269.98 92.6301 270.044 92.6413 270.104 92.6636C270.165 92.6858 270.217 92.7173 270.262 92.7579C270.306 92.7986 270.342 92.8468 270.367 92.9031C270.393 92.9592 270.406 93.0213 270.406 93.0888C270.406 93.1578 270.393 93.2203 270.367 93.2765C270.341 93.3326 270.306 93.381 270.262 93.4216C270.217 93.4623 270.165 93.4938 270.104 93.516C270.044 93.5383 269.98 93.5495 269.911 93.5495H269.673V94.0833H269.399V94.0831ZM269.915 93.2895C269.986 93.2895 270.041 93.2691 270.077 93.2286C270.114 93.1881 270.132 93.1414 270.132 93.0886C270.132 93.0628 270.127 93.0378 270.119 93.0135C270.11 92.9892 270.096 92.9679 270.078 92.9497C270.06 92.9315 270.037 92.9169 270.01 92.9061C269.983 92.8952 269.951 92.8897 269.914 92.8897H269.673V93.2895H269.915Z" fill="#D9D9D9"/>
<path d="M270.601 92.6299H270.919L271.504 93.604H271.52L271.504 93.3239V92.6299H271.776V94.0829H271.487L270.871 93.054H270.854L270.871 93.3341V94.0829H270.601V92.6299Z" fill="#D9D9D9"/>
<path d="M272.738 93.2855H273.45C273.454 93.3018 273.457 93.3213 273.46 93.3443C273.463 93.3673 273.464 93.3903 273.464 93.4133C273.464 93.5066 273.45 93.5946 273.422 93.6772C273.393 93.7598 273.349 93.8334 273.288 93.8984C273.223 93.9674 273.145 94.0209 273.054 94.0586C272.964 94.0965 272.86 94.1155 272.744 94.1155C272.638 94.1155 272.539 94.0965 272.445 94.0586C272.352 94.0207 272.271 93.9681 272.202 93.9004C272.133 93.8328 272.078 93.7526 272.037 93.6599C271.997 93.5672 271.977 93.4661 271.977 93.3565C271.977 93.247 271.997 93.1458 272.037 93.0531C272.078 92.9603 272.133 92.8803 272.202 92.8126C272.271 92.745 272.352 92.6922 272.445 92.6543C272.539 92.6164 272.638 92.5975 272.744 92.5975C272.862 92.5975 272.967 92.6177 273.059 92.6584C273.152 92.699 273.231 92.7552 273.298 92.8267L273.109 93.0115C273.062 92.9614 273.009 92.9232 272.951 92.8968C272.893 92.8705 272.823 92.8573 272.742 92.8573C272.675 92.8573 272.612 92.8692 272.553 92.8928C272.493 92.9165 272.441 92.95 272.397 92.9933C272.352 93.0365 272.316 93.0889 272.29 93.1506C272.264 93.2122 272.251 93.2808 272.251 93.3565C272.251 93.4323 272.264 93.5009 272.29 93.5626C272.316 93.6242 272.352 93.6766 272.398 93.7199C272.443 93.7631 272.495 93.7968 272.555 93.8203C272.614 93.8441 272.678 93.8558 272.746 93.8558C272.823 93.8558 272.888 93.8446 272.941 93.8224C272.995 93.8001 273.04 93.7712 273.078 93.7361C273.106 93.7118 273.129 93.6809 273.148 93.6437C273.168 93.6065 273.183 93.5649 273.194 93.5189H272.737L272.738 93.2855Z" fill="#D9D9D9"/>
<path d="M281.22 92.359C281.218 92.1338 281.043 91.9688 280.817 91.9653C280.647 91.9627 280.664 91.9874 280.663 91.8057C280.663 91.6039 280.662 91.402 280.664 91.2C280.664 91.1303 280.643 91.0729 280.597 91.0204C280.166 90.5295 279.736 90.0375 279.306 89.5464C279.284 89.5212 279.255 89.5015 279.23 89.4791C278.086 89.4791 276.943 89.4791 275.8 89.4791C275.654 89.533 275.59 89.6388 275.59 89.7935C275.592 90.4832 275.591 91.1728 275.591 91.8622C275.591 91.9645 275.59 91.9706 275.49 91.9636C275.214 91.9448 275.027 92.145 275.03 92.4221C275.038 93.0617 275.033 93.7015 275.033 94.3411C275.033 94.6318 275.192 94.7906 275.484 94.7917C275.591 94.7921 275.591 94.7921 275.591 94.9021C275.591 95.3104 275.591 95.7187 275.591 96.127C275.591 96.3463 275.698 96.4528 275.916 96.4528C277.391 96.453 278.865 96.453 280.34 96.4528C280.555 96.4528 280.663 96.3456 280.663 96.1318C280.663 95.7167 280.663 95.3016 280.663 94.8865C280.663 94.7922 280.663 94.7924 280.759 94.7917C280.809 94.7913 280.858 94.7932 280.908 94.781C281.091 94.7358 281.219 94.5889 281.219 94.4003C281.222 93.7201 281.223 93.0395 281.22 92.359ZM275.985 89.7578C276.967 89.7578 277.949 89.7578 278.93 89.7578C279.031 89.7578 279.032 89.7591 279.032 89.861C279.033 90.2738 279.032 90.6865 279.033 91.0994C279.033 91.2486 279.078 91.2942 279.228 91.2942C279.579 91.2944 279.931 91.2942 280.282 91.2944C280.366 91.2944 280.37 91.2983 280.371 91.3833C280.371 91.5465 280.371 91.7099 280.371 91.8731C280.37 91.9609 280.366 91.9647 280.278 91.9649C279.561 91.9651 278.844 91.9649 278.128 91.9649C277.414 91.9649 276.699 91.9649 275.985 91.9649C275.884 91.9649 275.883 91.9647 275.883 91.8617C275.883 91.1949 275.883 90.5282 275.883 89.8614C275.883 89.7586 275.884 89.7578 275.985 89.7578ZM280.269 96.0906C279.555 96.0907 278.84 96.0906 278.126 96.0906C277.413 96.0906 276.701 96.0906 275.989 96.0906C275.884 96.0906 275.883 96.0902 275.883 95.984C275.883 95.6166 275.883 95.2491 275.883 94.8817C275.883 94.7963 275.888 94.7922 275.971 94.7921C277.407 94.7919 278.843 94.7919 280.279 94.7921C280.367 94.7921 280.371 94.7957 280.371 94.8846C280.371 95.2521 280.371 95.6195 280.371 95.987C280.371 96.0896 280.37 96.0906 280.269 96.0906Z" fill="#D9D9D9"/>
<path d="M277.74 92.6301H278.053L278.599 94.0832H278.296L278.177 93.7362H277.617L277.497 94.0832H277.194L277.74 92.6301ZM278.087 93.4846L277.958 93.1214L277.905 92.9448H277.889L277.836 93.1214L277.706 93.4846H278.087Z" fill="#D9D9D9"/>
<path d="M278.885 92.9547C278.862 92.9547 278.84 92.9502 278.819 92.9414C278.798 92.9326 278.78 92.9204 278.764 92.9048C278.749 92.8893 278.736 92.8713 278.728 92.8511C278.719 92.8308 278.714 92.8084 278.714 92.7841C278.714 92.7598 278.719 92.7374 278.728 92.7171C278.736 92.6969 278.749 92.6788 278.764 92.6634C278.779 92.6479 278.798 92.6356 278.819 92.627C278.84 92.6181 278.862 92.6137 278.885 92.6137C278.932 92.6137 278.973 92.6303 279.007 92.6634C279.041 92.6967 279.058 92.7368 279.058 92.7841C279.058 92.8314 279.041 92.8717 279.007 92.9048C278.973 92.9381 278.932 92.9547 278.885 92.9547ZM278.753 94.0831V93.0888H279.019V94.0831H278.753Z" fill="#D9D9D9"/>
<path d="M288.032 92.359C288.031 92.1338 287.856 91.9688 287.629 91.9653C287.459 91.9627 287.476 91.9874 287.476 91.8057C287.475 91.6039 287.475 91.402 287.476 91.2C287.477 91.1303 287.456 91.0729 287.41 91.0204C286.979 90.5295 286.549 90.0375 286.118 89.5464C286.096 89.5212 286.068 89.5015 286.042 89.4791C284.899 89.4791 283.756 89.4791 282.612 89.4791C282.466 89.533 282.402 89.6388 282.403 89.7935C282.405 90.4832 282.403 91.1728 282.403 91.8622C282.403 91.9645 282.403 91.9706 282.302 91.9636C282.027 91.9448 281.839 92.145 281.843 92.4221C281.851 93.0617 281.845 93.7015 281.845 94.3411C281.846 94.6318 282.005 94.7906 282.296 94.7917C282.403 94.7921 282.403 94.7921 282.403 94.9021C282.403 95.3104 282.403 95.7187 282.403 96.127C282.404 96.3463 282.51 96.4528 282.729 96.4528C284.203 96.453 285.678 96.453 287.152 96.4528C287.367 96.4528 287.475 96.3456 287.475 96.1318C287.476 95.7167 287.475 95.3016 287.476 94.8865C287.476 94.7922 287.476 94.7924 287.571 94.7917C287.621 94.7913 287.671 94.7932 287.72 94.781C287.903 94.7358 288.031 94.5889 288.032 94.4003C288.035 93.7201 288.035 93.0395 288.032 92.359ZM282.797 89.7578C283.779 89.7578 284.761 89.7578 285.743 89.7578C285.844 89.7578 285.845 89.7591 285.845 89.861C285.845 90.2738 285.845 90.6865 285.845 91.0994C285.845 91.2486 285.891 91.2942 286.04 91.2942C286.391 91.2944 286.743 91.2942 287.095 91.2944C287.179 91.2944 287.183 91.2983 287.183 91.3833C287.184 91.5465 287.183 91.7099 287.183 91.8731C287.183 91.9609 287.179 91.9647 287.09 91.9649C286.374 91.9651 285.657 91.9649 284.94 91.9649C284.226 91.9649 283.512 91.9649 282.797 91.9649C282.696 91.9649 282.696 91.9647 282.696 91.8617C282.696 91.1949 282.696 90.5282 282.696 89.8614C282.696 89.7586 282.697 89.7578 282.797 89.7578ZM287.081 96.0906C286.367 96.0907 285.653 96.0906 284.938 96.0906C284.226 96.0906 283.513 96.0906 282.801 96.0906C282.696 96.0906 282.695 96.0902 282.695 95.984C282.695 95.6166 282.695 95.2491 282.696 94.8817C282.696 94.7963 282.7 94.7922 282.784 94.7921C284.219 94.7919 285.655 94.7919 287.091 94.7921C287.179 94.7921 287.183 94.7957 287.183 94.8846C287.183 95.2521 287.183 95.6195 287.183 95.987C287.183 96.0896 287.182 96.0906 287.081 96.0906Z" fill="#D9D9D9"/>
<path d="M283.49 94.1155C283.428 94.1155 283.369 94.1067 283.312 94.0892C283.255 94.0717 283.203 94.0452 283.155 94.0101C283.108 93.975 283.067 93.9319 283.032 93.8813C282.997 93.8305 282.969 93.7715 282.948 93.7037L283.206 93.6024C283.225 93.6754 283.258 93.7359 283.306 93.784C283.353 93.832 283.415 93.8561 283.492 93.8561C283.521 93.8561 283.548 93.8524 283.575 93.8449C283.601 93.8375 283.625 93.8267 283.646 93.8125C283.667 93.7983 283.683 93.7803 283.695 93.7588C283.707 93.737 283.714 93.712 283.714 93.6837C283.714 93.6566 283.709 93.6324 283.699 93.6106C283.69 93.5891 283.674 93.5689 283.652 93.5497C283.629 93.5308 283.6 93.5126 283.564 93.4949C283.528 93.4774 283.484 93.459 283.431 93.4401L283.342 93.4077C283.303 93.3943 283.263 93.3759 283.224 93.3529C283.184 93.3299 283.148 93.3021 283.115 93.2697C283.082 93.2373 283.056 93.199 283.035 93.1551C283.014 93.1111 283.003 93.0614 283.003 93.006C283.003 92.9492 283.014 92.8962 283.037 92.8467C283.059 92.7974 283.091 92.7541 283.132 92.7168C283.173 92.6796 283.223 92.6505 283.28 92.6296C283.338 92.6086 283.402 92.5981 283.472 92.5981C283.545 92.5981 283.608 92.6078 283.662 92.6275C283.715 92.6472 283.76 92.6722 283.798 92.7026C283.835 92.733 283.865 92.7666 283.888 92.8031C283.911 92.8397 283.928 92.8741 283.939 92.9067L283.697 93.008C283.684 92.9674 283.659 92.9309 283.623 92.8984C283.588 92.866 283.538 92.8496 283.476 92.8496C283.417 92.8496 283.367 92.8634 283.328 92.8912C283.289 92.919 283.269 92.9552 283.269 92.9998C283.269 93.043 283.288 93.08 283.326 93.1103C283.364 93.1407 283.424 93.1701 283.507 93.1987L283.598 93.229C283.656 93.2494 283.71 93.2726 283.758 93.2991C283.806 93.3254 283.847 93.3569 283.881 93.3935C283.916 93.4301 283.942 93.4717 283.96 93.5183C283.979 93.565 283.988 93.6187 283.988 93.6796C283.988 93.7554 283.973 93.8208 283.942 93.8754C283.912 93.9302 283.873 93.9751 283.826 94.0105C283.778 94.0456 283.725 94.0721 283.665 94.0896C283.605 94.1067 283.547 94.1155 283.49 94.1155Z" fill="#D9D9D9"/>
<path d="M284.071 92.6299H284.367L284.668 93.5046L284.72 93.6914H284.737L284.793 93.5046L285.106 92.6299H285.402L284.873 94.0829H284.584L284.071 92.6299Z" fill="#D9D9D9"/>
<path d="M286.202 93.2855H286.914C286.918 93.3018 286.921 93.3213 286.924 93.3443C286.927 93.3673 286.928 93.3903 286.928 93.4133C286.928 93.5066 286.914 93.5946 286.886 93.6772C286.857 93.7598 286.813 93.8334 286.752 93.8984C286.687 93.9674 286.609 94.0209 286.518 94.0586C286.428 94.0965 286.324 94.1155 286.208 94.1155C286.102 94.1155 286.003 94.0965 285.91 94.0586C285.816 94.0207 285.735 93.9681 285.666 93.9004C285.597 93.8328 285.542 93.7526 285.501 93.6599C285.461 93.5672 285.441 93.4661 285.441 93.3565C285.441 93.247 285.461 93.1458 285.501 93.0531C285.542 92.9603 285.597 92.8803 285.666 92.8126C285.735 92.745 285.816 92.6922 285.91 92.6543C286.003 92.6164 286.102 92.5975 286.208 92.5975C286.326 92.5975 286.431 92.6177 286.523 92.6584C286.616 92.699 286.696 92.7552 286.762 92.8267L286.573 93.0115C286.526 92.9614 286.473 92.9232 286.415 92.8968C286.357 92.8705 286.287 92.8573 286.206 92.8573C286.139 92.8573 286.076 92.8692 286.017 92.8928C285.957 92.9165 285.905 92.95 285.861 92.9933C285.816 93.0365 285.78 93.0889 285.754 93.1506C285.728 93.2122 285.715 93.2808 285.715 93.3565C285.715 93.4323 285.728 93.5009 285.754 93.5626C285.78 93.6242 285.816 93.6766 285.862 93.7199C285.907 93.7631 285.959 93.7968 286.019 93.8203C286.078 93.8441 286.142 93.8558 286.21 93.8558C286.287 93.8558 286.352 93.8446 286.405 93.8224C286.459 93.8001 286.505 93.7712 286.543 93.7361C286.57 93.7118 286.593 93.6809 286.612 93.6437C286.632 93.6065 286.647 93.5649 286.658 93.5189H286.201V93.2855H286.202Z" fill="#D9D9D9"/>
<path d="M294.703 92.359C294.702 92.1338 294.527 91.9688 294.3 91.9653C294.13 91.9627 294.147 91.9874 294.147 91.8057C294.146 91.6039 294.146 91.402 294.147 91.2C294.148 91.1303 294.127 91.0729 294.081 91.0204C293.65 90.5295 293.22 90.0375 292.789 89.5464C292.767 89.5212 292.739 89.5015 292.713 89.4791C291.57 89.4791 290.427 89.4791 289.283 89.4791C289.137 89.533 289.074 89.6388 289.074 89.7935C289.076 90.4832 289.075 91.1728 289.075 91.8622C289.075 91.9645 289.074 91.9706 288.973 91.9636C288.698 91.9448 288.51 92.145 288.514 92.4221C288.522 93.0617 288.516 93.7015 288.517 94.3411C288.517 94.6318 288.676 94.7906 288.967 94.7917C289.074 94.7921 289.074 94.7921 289.074 94.9021C289.074 95.3104 289.074 95.7187 289.075 96.127C289.075 96.3463 289.181 96.4528 289.4 96.4528C290.874 96.453 292.349 96.453 293.823 96.4528C294.038 96.4528 294.146 96.3456 294.147 96.1318C294.147 95.7167 294.147 95.3016 294.147 94.8865C294.147 94.7922 294.147 94.7924 294.242 94.7917C294.292 94.7913 294.342 94.7932 294.391 94.781C294.575 94.7358 294.702 94.5889 294.703 94.4003C294.706 93.7201 294.706 93.0395 294.703 92.359ZM289.468 89.7578C290.45 89.7578 291.432 89.7578 292.414 89.7578C292.515 89.7578 292.516 89.7591 292.516 89.861C292.516 90.2738 292.516 90.6865 292.516 91.0994C292.517 91.2486 292.562 91.2942 292.711 91.2942C293.063 91.2944 293.414 91.2942 293.766 91.2944C293.85 91.2944 293.854 91.2983 293.854 91.3833C293.855 91.5465 293.855 91.7099 293.854 91.8731C293.854 91.9609 293.85 91.9647 293.762 91.9649C293.045 91.9651 292.328 91.9649 291.612 91.9649C290.897 91.9649 290.183 91.9649 289.469 91.9649C289.368 91.9649 289.367 91.9647 289.367 91.8617C289.367 91.1949 289.367 90.5282 289.367 89.8614C289.367 89.7586 289.368 89.7578 289.468 89.7578ZM293.753 96.0906C293.038 96.0907 292.324 96.0906 291.609 96.0906C290.897 96.0906 290.185 96.0906 289.472 96.0906C289.367 96.0906 289.367 96.0902 289.367 95.984C289.367 95.6166 289.367 95.2491 289.367 94.8817C289.367 94.7963 289.371 94.7922 289.455 94.7921C290.891 94.7919 292.327 94.7919 293.762 94.7921C293.85 94.7921 293.854 94.7957 293.854 94.8846C293.854 95.2521 293.854 95.6195 293.854 95.987C293.854 96.0896 293.853 96.0906 293.753 96.0906Z" fill="#D9D9D9"/>
<path d="M290.226 92.8898V93.2267H290.808V93.4865H290.226V93.8234H290.873V94.0832H289.952V92.6301H290.873V92.8899L290.226 92.8898Z" fill="#D9D9D9"/>
<path d="M291.125 94.0832V92.6301H291.636C291.705 92.6301 291.77 92.6414 291.83 92.6636C291.89 92.6859 291.942 92.7173 291.987 92.758C292.032 92.7987 292.067 92.8469 292.093 92.9032C292.119 92.9593 292.131 93.0213 292.131 93.0888C292.131 93.1578 292.118 93.2204 292.093 93.2765C292.067 93.3326 292.032 93.381 291.987 93.4217C291.942 93.4624 291.89 93.4938 291.83 93.5161C291.77 93.5384 291.705 93.5496 291.636 93.5496H291.399V94.0834H291.125V94.0832ZM291.64 93.2896C291.712 93.2896 291.766 93.2692 291.802 93.2287C291.839 93.1882 291.857 93.1415 291.857 93.0887C291.857 93.0629 291.853 93.0379 291.844 93.0136C291.835 92.9893 291.822 92.968 291.803 92.9497C291.785 92.9315 291.763 92.917 291.735 92.9061C291.708 92.8953 291.676 92.8898 291.64 92.8898H291.399V93.2896H291.64Z" fill="#D9D9D9"/>
<path d="M292.771 94.1155C292.708 94.1155 292.649 94.1067 292.592 94.0892C292.535 94.0717 292.483 94.0452 292.436 94.0101C292.388 93.975 292.347 93.9319 292.312 93.8813C292.277 93.8305 292.249 93.7715 292.229 93.7037L292.487 93.6024C292.505 93.6754 292.539 93.7359 292.586 93.784C292.633 93.832 292.696 93.8561 292.773 93.8561C292.801 93.8561 292.829 93.8524 292.855 93.8449C292.881 93.8375 292.905 93.8267 292.926 93.8125C292.947 93.7983 292.964 93.7803 292.976 93.7588C292.988 93.737 292.994 93.712 292.994 93.6837C292.994 93.6566 292.989 93.6324 292.98 93.6106C292.971 93.5891 292.955 93.5689 292.932 93.5497C292.91 93.5308 292.881 93.5126 292.845 93.4949C292.809 93.4774 292.765 93.459 292.712 93.4401L292.623 93.4077C292.584 93.3943 292.544 93.3759 292.504 93.3529C292.464 93.3299 292.428 93.3021 292.396 93.2697C292.363 93.2373 292.336 93.199 292.315 93.1551C292.294 93.1111 292.284 93.0614 292.284 93.006C292.284 92.9492 292.295 92.8962 292.317 92.8467C292.34 92.7974 292.372 92.7541 292.413 92.7168C292.454 92.6796 292.503 92.6505 292.561 92.6296C292.618 92.6086 292.682 92.5981 292.753 92.5981C292.826 92.5981 292.889 92.6078 292.942 92.6275C292.996 92.6472 293.041 92.6722 293.078 92.7026C293.115 92.733 293.145 92.7666 293.169 92.8031C293.192 92.8397 293.209 92.8741 293.219 92.9067L292.978 93.008C292.964 92.9674 292.94 92.9309 292.904 92.8984C292.868 92.866 292.819 92.8496 292.757 92.8496C292.697 92.8496 292.648 92.8634 292.609 92.8912C292.57 92.919 292.55 92.9552 292.55 92.9998C292.55 93.043 292.569 93.08 292.607 93.1103C292.645 93.1407 292.705 93.1701 292.787 93.1987L292.879 93.229C292.937 93.2494 292.99 93.2726 293.038 93.2991C293.086 93.3254 293.127 93.3569 293.162 93.3935C293.196 93.4301 293.223 93.4717 293.241 93.5183C293.259 93.565 293.268 93.6187 293.268 93.6796C293.268 93.7554 293.253 93.8208 293.223 93.8754C293.192 93.9302 293.153 93.9751 293.106 94.0105C293.059 94.0456 293.005 94.0721 292.946 94.0896C292.886 94.1067 292.827 94.1155 292.771 94.1155Z" fill="#D9D9D9"/>
<path d="M299.136 93.8069L299.873 92.8897H299.169V92.6299H300.192V92.9059L299.463 93.8231H300.2V94.0829H299.137L299.136 93.8069Z" fill="#D9D9D9"/>
<path d="M300.427 92.6299H300.701V94.0829H300.427V92.6299Z" fill="#D9D9D9"/>
<path d="M300.993 94.0831V92.6301H301.505C301.574 92.6301 301.638 92.6413 301.698 92.6636C301.759 92.6858 301.811 92.7173 301.856 92.7579C301.901 92.7986 301.936 92.8468 301.961 92.9031C301.987 92.9592 302 93.0213 302 93.0888C302 93.1578 301.987 93.2203 301.961 93.2765C301.936 93.3326 301.901 93.381 301.856 93.4216C301.811 93.4623 301.759 93.4938 301.698 93.516C301.638 93.5383 301.574 93.5495 301.505 93.5495H301.267V94.0833H300.993V94.0831ZM301.509 93.2895C301.581 93.2895 301.635 93.2691 301.671 93.2286C301.708 93.1881 301.726 93.1414 301.726 93.0886C301.726 93.0628 301.722 93.0378 301.713 93.0135C301.704 92.9892 301.691 92.9679 301.672 92.9497C301.654 92.9315 301.631 92.9169 301.604 92.9061C301.577 92.8952 301.545 92.8897 301.509 92.8897H301.267V93.2895H301.509Z" fill="#D9D9D9"/>
</g>
<g opacity="0.61">
<path d="M295.224 92.7217H296.893V93.1342H295.224V92.7217ZM295.224 93.433H296.893V93.8457H295.224V93.433Z" fill="#D9D9D9"/>
</g>
<g opacity="0.61">
<path d="M268.843 101.114H269.139C269.371 101.114 269.528 101.263 269.528 101.477C269.528 101.69 269.371 101.84 269.139 101.84H268.843V101.114ZM269.135 101.773C269.328 101.773 269.452 101.651 269.452 101.477C269.452 101.303 269.327 101.18 269.135 101.18H268.92V101.773H269.135Z" fill="#D9D9D9"/>
<path d="M270.386 101.477C270.386 101.265 270.547 101.107 270.767 101.107C270.985 101.107 271.148 101.264 271.148 101.477C271.148 101.689 270.985 101.846 270.767 101.846C270.548 101.846 270.386 101.688 270.386 101.477ZM271.071 101.477C271.071 101.303 270.942 101.176 270.767 101.176C270.592 101.176 270.461 101.303 270.461 101.477C270.461 101.65 270.592 101.777 270.767 101.777C270.942 101.777 271.071 101.65 271.071 101.477Z" fill="#D9D9D9"/>
<path d="M273.046 101.114L272.801 101.84H272.72L272.507 101.22L272.294 101.84H272.214L271.969 101.114H272.048L272.257 101.738L272.474 101.114H272.546L272.759 101.741L272.972 101.114H273.046Z" fill="#D9D9D9"/>
<path d="M274.543 101.114V101.84H274.479L274.012 101.251V101.84H273.936V101.114H273.999L274.467 101.703V101.114H274.543Z" fill="#D9D9D9"/>
<path d="M275.529 101.114H275.606V101.773H276.013V101.84H275.529V101.114Z" fill="#D9D9D9"/>
<path d="M276.811 101.477C276.811 101.265 276.973 101.107 277.193 101.107C277.411 101.107 277.574 101.264 277.574 101.477C277.574 101.689 277.411 101.846 277.193 101.846C276.973 101.846 276.811 101.688 276.811 101.477ZM277.497 101.477C277.497 101.303 277.367 101.176 277.193 101.176C277.018 101.176 276.887 101.303 276.887 101.477C276.887 101.65 277.018 101.777 277.193 101.777C277.367 101.777 277.497 101.65 277.497 101.477Z" fill="#D9D9D9"/>
<path d="M278.941 101.646H278.536L278.449 101.84H278.369L278.701 101.113H278.777L279.109 101.84H279.028L278.941 101.646ZM278.913 101.584L278.739 101.193L278.565 101.584H278.913Z" fill="#D9D9D9"/>
<path d="M279.98 101.114H280.275C280.508 101.114 280.664 101.263 280.664 101.477C280.664 101.69 280.508 101.84 280.275 101.84H279.98V101.114ZM280.271 101.773C280.464 101.773 280.588 101.651 280.588 101.477C280.588 101.302 280.464 101.18 280.271 101.18H280.056V101.773H280.271Z" fill="#D9D9D9"/>
<path d="M283.064 101.646H282.659L282.572 101.84H282.492L282.824 101.113H282.9L283.232 101.84H283.151L283.064 101.646ZM283.036 101.584L282.861 101.193L282.687 101.584H283.036Z" fill="#D9D9D9"/>
<path d="M284.102 101.114H284.179V101.773H284.585V101.84H284.102V101.114Z" fill="#D9D9D9"/>
<path d="M285.463 101.114H285.54V101.773H285.947V101.84H285.463V101.114Z" fill="#D9D9D9"/>
<path d="M287.923 101.18V101.465H288.298V101.532H287.923V101.84H287.846V101.114H288.344V101.18L287.923 101.18Z" fill="#D9D9D9"/>
<path d="M289.253 101.114H289.33V101.84H289.253V101.114Z" fill="#D9D9D9"/>
<path d="M290.316 101.114H290.393V101.773H290.799V101.84H290.316V101.114Z" fill="#D9D9D9"/>
<path d="M292.191 101.773V101.84H291.677V101.114H292.175V101.18H291.754V101.438H292.129V101.504H291.754V101.773H292.191Z" fill="#D9D9D9"/>
<path d="M294.22 101.18V101.465H294.595V101.532H294.22V101.84H294.143V101.114H294.641V101.18L294.22 101.18Z" fill="#D9D9D9"/>
<path d="M295.476 101.477C295.476 101.265 295.638 101.107 295.858 101.107C296.076 101.107 296.239 101.264 296.239 101.477C296.239 101.689 296.076 101.846 295.858 101.846C295.638 101.846 295.476 101.688 295.476 101.477ZM296.162 101.477C296.162 101.303 296.032 101.176 295.858 101.176C295.682 101.176 295.552 101.303 295.552 101.477C295.552 101.65 295.682 101.777 295.858 101.777C296.032 101.777 296.162 101.65 296.162 101.477Z" fill="#D9D9D9"/>
<path d="M297.657 101.84L297.491 101.606C297.472 101.608 297.453 101.609 297.433 101.609H297.237V101.84H297.161V101.114H297.433C297.617 101.114 297.729 101.207 297.729 101.362C297.729 101.477 297.669 101.556 297.563 101.591L297.741 101.84H297.657V101.84ZM297.652 101.362C297.652 101.246 297.576 101.18 297.43 101.18H297.237V101.544H297.43C297.576 101.544 297.652 101.477 297.652 101.362Z" fill="#D9D9D9"/>
<path d="M299.415 101.114V101.84H299.341V101.259L299.056 101.747H299.02L298.734 101.262V101.84H298.661V101.113H298.724L299.039 101.652L299.352 101.113L299.415 101.114Z" fill="#D9D9D9"/>
<path d="M300.857 101.646H300.452L300.365 101.84H300.285L300.617 101.113H300.693L301.025 101.84H300.944L300.857 101.646ZM300.829 101.584L300.655 101.193L300.48 101.584H300.829Z" fill="#D9D9D9"/>
<path d="M302 101.18H301.745V101.114H302.332V101.18H302.077V101.84H302V101.18H302Z" fill="#D9D9D9"/>
<path d="M303.124 101.752L303.154 101.693C303.206 101.743 303.298 101.781 303.393 101.781C303.529 101.781 303.588 101.724 303.588 101.652C303.588 101.453 303.141 101.575 303.141 101.307C303.141 101.2 303.224 101.107 303.409 101.107C303.491 101.107 303.576 101.131 303.634 101.172L303.608 101.233C303.546 101.193 303.473 101.173 303.409 101.173C303.276 101.173 303.217 101.232 303.217 101.305C303.217 101.504 303.664 101.384 303.664 101.648C303.664 101.755 303.579 101.846 303.393 101.846C303.284 101.846 303.178 101.808 303.124 101.752Z" fill="#D9D9D9"/>
</g>
<path d="M247.912 31.9963L285.494 18.606L324.088 31.7582L317.839 81.4808L285.494 99.3942L253.655 81.7189L247.912 31.9963Z" fill="#2F2F2F"/>
<path d="M324.088 31.7581L285.494 18.6058V99.3939L317.839 81.5104L324.088 31.7581Z" fill="#2F2F2F"/>
<path d="M285.554 28.0387L262.135 80.142L270.884 79.9931L275.585 68.2394H285.583H285.613H296.593L301.741 80.142L310.102 80.2908L285.554 28.0387ZM285.613 44.7319L293.528 61.2765H285.941H285.554H278.65L285.613 44.7319Z" fill="#D9D9D9"/>
<path d="M500.895 47.5688H487.323V21H500.895C508.22 21 514.178 26.9581 514.178 34.2829C514.178 41.6077 508.22 47.5688 500.895 47.5688ZM491.674 43.2171H500.895C505.821 43.2171 509.827 39.2085 509.827 34.2859C509.827 29.3632 505.818 25.3547 500.895 25.3547H491.674V43.2171ZM491.674 47.5688H478.104C470.78 47.5688 464.822 41.6107 464.822 34.2859C464.822 26.961 470.78 21 478.104 21H491.677V47.5688H491.674ZM478.104 25.3517C473.179 25.3517 469.173 29.3602 469.173 34.2829C469.173 39.2056 473.179 43.2171 478.104 43.2171H487.326V25.3517H478.104ZM491.674 69.7829H478.104C470.78 69.7829 464.822 63.8248 464.822 56.5C464.822 49.1752 470.78 43.2171 478.104 43.2171H491.677V69.7829H491.674ZM478.104 47.5688C473.179 47.5688 469.173 51.5773 469.173 56.5C469.173 61.4227 473.182 65.4312 478.104 65.4312H487.326V47.5688H478.104ZM478.175 92C470.812 92 464.819 86.0419 464.819 78.7171C464.819 71.3922 470.777 65.4342 478.102 65.4342H491.674V78.5721C491.674 85.9768 485.619 92 478.175 92ZM478.104 69.7829C475.737 69.786 473.467 70.728 471.793 72.4023C470.118 74.0765 469.176 76.3464 469.173 78.7141C469.173 83.6398 473.211 87.6453 478.178 87.6453C483.222 87.6453 487.329 83.5747 487.329 78.5692V69.7829H478.104ZM500.895 69.7829H500.606C493.281 69.7829 487.323 63.8248 487.323 56.5C487.323 49.1752 493.281 43.2171 500.606 43.2171H500.895C508.22 43.2171 514.178 49.1752 514.178 56.5C514.178 63.8248 508.22 69.7829 500.895 69.7829ZM500.609 47.5688C495.683 47.5688 491.677 51.5773 491.677 56.5C491.677 61.4227 495.686 65.4312 500.609 65.4312H500.898C505.824 65.4312 509.83 61.4227 509.83 56.5C509.83 51.5773 505.818 47.5688 500.895 47.5688H500.609Z" fill="#2F2F2F"/>
<defs>
<clipPath id="clip0_87_563">
<rect width="61" height="56" fill="white" transform="translate(255 441)"/>
</clipPath>
<clipPath id="clip1_87_563">
<rect width="80" height="49" fill="white" transform="translate(42 444)"/>
</clipPath>
</defs>
</svg>
