<svg width="614" height="553" viewBox="0 0 614 553" fill="none" xmlns="http://www.w3.org/2000/svg">
<circle cx="115" cy="55" r="55" fill="#D9D9D9"/>
<circle cx="322" cy="55" r="55" fill="#D9D9D9"/>
<circle cx="524" cy="55" r="55" fill="#D9D9D9"/>
<path d="M0 188H544C582.66 188 614 219.34 614 258V305C614 343.66 582.66 375 544 375H0V188Z" fill="#2F2F2F"/>
<path d="M0 366H544C582.66 366 614 397.34 614 436V553H0V366Z" fill="#2F2F2F"/>
<path d="M212 441C212 402.34 243.34 371 282 371H614V553H212V441Z" fill="white"/>
<circle cx="107" cy="469" r="55" fill="white"/>
<circle cx="322" cy="469" r="55" fill="#D9D9D9"/>
<circle cx="524" cy="469" r="55" fill="#D9D9D9"/>
<path d="M324.512 299V265.4H330.752V293.72H348.32V299H324.512ZM362.084 299.336C359.236 299.336 356.74 298.776 354.596 297.656C352.484 296.504 350.836 294.936 349.652 292.952C348.5 290.968 347.924 288.712 347.924 286.184C347.924 283.624 348.484 281.368 349.604 279.416C350.756 277.432 352.324 275.88 354.308 274.76C356.324 273.64 358.612 273.08 361.172 273.08C363.668 273.08 365.892 273.624 367.844 274.712C369.796 275.8 371.332 277.336 372.452 279.32C373.572 281.304 374.132 283.64 374.132 286.328C374.132 286.584 374.116 286.872 374.084 287.192C374.084 287.512 374.068 287.816 374.036 288.104H352.676V284.12H370.868L368.516 285.368C368.548 283.896 368.244 282.6 367.604 281.48C366.964 280.36 366.084 279.48 364.964 278.84C363.876 278.2 362.612 277.88 361.172 277.88C359.7 277.88 358.404 278.2 357.284 278.84C356.196 279.48 355.332 280.376 354.692 281.528C354.084 282.648 353.78 283.976 353.78 285.512V286.472C353.78 288.008 354.132 289.368 354.836 290.552C355.54 291.736 356.532 292.648 357.812 293.288C359.092 293.928 360.564 294.248 362.228 294.248C363.668 294.248 364.964 294.024 366.116 293.576C367.268 293.128 368.292 292.424 369.188 291.464L372.404 295.16C371.252 296.504 369.796 297.544 368.036 298.28C366.308 298.984 364.324 299.336 362.084 299.336ZM392.039 273.08C394.087 273.08 395.911 273.48 397.511 274.28C399.143 275.08 400.423 276.312 401.351 277.976C402.279 279.608 402.743 281.72 402.743 284.312V299H396.743V285.08C396.743 282.808 396.199 281.112 395.111 279.992C394.055 278.872 392.567 278.312 390.647 278.312C389.239 278.312 387.991 278.6 386.903 279.176C385.815 279.752 384.967 280.616 384.359 281.768C383.783 282.888 383.495 284.312 383.495 286.04V299H377.495V273.368H383.207V280.28L382.199 278.168C383.095 276.536 384.391 275.288 386.087 274.424C387.815 273.528 389.799 273.08 392.039 273.08ZM419.618 308.648C417.25 308.648 414.93 308.328 412.658 307.688C410.418 307.08 408.578 306.184 407.138 305L409.826 300.488C410.946 301.416 412.354 302.152 414.05 302.696C415.778 303.272 417.522 303.56 419.282 303.56C422.098 303.56 424.162 302.904 425.474 301.592C426.786 300.312 427.442 298.376 427.442 295.784V291.224L427.922 285.416L427.73 279.608V273.368H433.442V295.112C433.442 299.752 432.258 303.16 429.89 305.336C427.522 307.544 424.098 308.648 419.618 308.648ZM418.85 297.848C416.418 297.848 414.21 297.336 412.226 296.312C410.274 295.256 408.722 293.8 407.57 291.944C406.45 290.088 405.89 287.912 405.89 285.416C405.89 282.952 406.45 280.792 407.57 278.936C408.722 277.08 410.274 275.64 412.226 274.616C414.21 273.592 416.418 273.08 418.85 273.08C421.026 273.08 422.978 273.512 424.706 274.376C426.434 275.24 427.81 276.584 428.834 278.408C429.89 280.232 430.418 282.568 430.418 285.416C430.418 288.264 429.89 290.616 428.834 292.472C427.81 294.296 426.434 295.656 424.706 296.552C422.978 297.416 421.026 297.848 418.85 297.848ZM419.762 292.76C421.266 292.76 422.61 292.456 423.794 291.848C424.978 291.208 425.89 290.344 426.53 289.256C427.202 288.136 427.538 286.856 427.538 285.416C427.538 283.976 427.202 282.712 426.53 281.624C425.89 280.504 424.978 279.656 423.794 279.08C422.61 278.472 421.266 278.168 419.762 278.168C418.258 278.168 416.898 278.472 415.682 279.08C414.498 279.656 413.57 280.504 412.898 281.624C412.258 282.712 411.938 283.976 411.938 285.416C411.938 286.856 412.258 288.136 412.898 289.256C413.57 290.344 414.498 291.208 415.682 291.848C416.898 292.456 418.258 292.76 419.762 292.76ZM449.778 299.336C447.602 299.336 445.682 298.936 444.018 298.136C442.354 297.304 441.058 296.056 440.13 294.392C439.202 292.696 438.738 290.568 438.738 288.008V273.368H444.738V287.192C444.738 289.496 445.25 291.224 446.274 292.376C447.33 293.496 448.818 294.056 450.738 294.056C452.146 294.056 453.362 293.768 454.386 293.192C455.442 292.616 456.258 291.752 456.834 290.6C457.442 289.448 457.746 288.024 457.746 286.328V273.368H463.746V299H458.034V292.088L459.042 294.2C458.178 295.864 456.914 297.144 455.25 298.04C453.586 298.904 451.762 299.336 449.778 299.336ZM484.994 299V293.816L484.658 292.712V283.64C484.658 281.88 484.13 280.52 483.074 279.56C482.018 278.568 480.418 278.072 478.274 278.072C476.834 278.072 475.41 278.296 474.002 278.744C472.626 279.192 471.458 279.816 470.498 280.616L468.146 276.248C469.522 275.192 471.154 274.408 473.042 273.896C474.962 273.352 476.946 273.08 478.994 273.08C482.706 273.08 485.57 273.976 487.586 275.768C489.634 277.528 490.658 280.264 490.658 283.976V299H484.994ZM476.93 299.336C475.01 299.336 473.33 299.016 471.89 298.376C470.45 297.704 469.33 296.792 468.53 295.64C467.762 294.456 467.378 293.128 467.378 291.656C467.378 290.216 467.714 288.92 468.386 287.768C469.09 286.616 470.226 285.704 471.794 285.032C473.362 284.36 475.442 284.024 478.034 284.024H485.474V288.008H478.466C476.418 288.008 475.042 288.344 474.338 289.016C473.634 289.656 473.282 290.456 473.282 291.416C473.282 292.504 473.714 293.368 474.578 294.008C475.442 294.648 476.642 294.968 478.178 294.968C479.65 294.968 480.962 294.632 482.114 293.96C483.298 293.288 484.146 292.296 484.658 290.984L485.666 294.584C485.09 296.088 484.05 297.256 482.546 298.088C481.074 298.92 479.202 299.336 476.93 299.336ZM493.318 308.648C492.198 308.648 491.142 308.52 490.15 308.264C489.126 308.04 488.262 307.672 487.558 307.16L489.286 302.696C490.214 303.368 491.382 303.704 492.79 303.704C493.878 303.704 494.726 303.352 495.334 302.648C495.942 301.976 496.246 300.968 496.246 299.624V273.368H502.246V299.48C502.246 302.296 501.462 304.52 499.894 306.152C498.358 307.816 496.166 308.648 493.318 308.648ZM499.222 269.144C498.102 269.144 497.174 268.792 496.438 268.088C495.734 267.384 495.382 266.536 495.382 265.544C495.382 264.52 495.734 263.672 496.438 263C497.174 262.296 498.102 261.944 499.222 261.944C500.342 261.944 501.254 262.28 501.958 262.952C502.694 263.592 503.062 264.408 503.062 265.4C503.062 266.456 502.71 267.352 502.006 268.088C501.302 268.792 500.374 269.144 499.222 269.144ZM519.762 299.336C516.914 299.336 514.418 298.776 512.274 297.656C510.162 296.504 508.514 294.936 507.33 292.952C506.178 290.968 505.602 288.712 505.602 286.184C505.602 283.624 506.162 281.368 507.282 279.416C508.434 277.432 510.002 275.88 511.986 274.76C514.002 273.64 516.29 273.08 518.85 273.08C521.346 273.08 523.57 273.624 525.522 274.712C527.474 275.8 529.01 277.336 530.13 279.32C531.25 281.304 531.81 283.64 531.81 286.328C531.81 286.584 531.794 286.872 531.762 287.192C531.762 287.512 531.746 287.816 531.714 288.104H510.354V284.12H528.546L526.194 285.368C526.226 283.896 525.922 282.6 525.282 281.48C524.642 280.36 523.762 279.48 522.642 278.84C521.554 278.2 520.29 277.88 518.85 277.88C517.378 277.88 516.082 278.2 514.962 278.84C513.874 279.48 513.01 280.376 512.37 281.528C511.762 282.648 511.458 283.976 511.458 285.512V286.472C511.458 288.008 511.81 289.368 512.514 290.552C513.218 291.736 514.21 292.648 515.49 293.288C516.77 293.928 518.242 294.248 519.906 294.248C521.346 294.248 522.642 294.024 523.794 293.576C524.946 293.128 525.97 292.424 526.866 291.464L530.082 295.16C528.93 296.504 527.474 297.544 525.714 298.28C523.986 298.984 522.002 299.336 519.762 299.336ZM543.094 299.336C540.95 299.336 538.886 299.064 536.902 298.52C534.95 297.944 533.398 297.256 532.246 296.456L534.55 291.896C535.702 292.632 537.078 293.24 538.678 293.72C540.278 294.2 541.878 294.44 543.478 294.44C545.366 294.44 546.726 294.184 547.558 293.672C548.422 293.16 548.854 292.472 548.854 291.608C548.854 290.904 548.566 290.376 547.99 290.024C547.414 289.64 546.662 289.352 545.734 289.16C544.806 288.968 543.766 288.792 542.614 288.632C541.494 288.472 540.358 288.264 539.206 288.008C538.086 287.72 537.062 287.32 536.134 286.808C535.206 286.264 534.454 285.544 533.878 284.648C533.302 283.752 533.014 282.568 533.014 281.096C533.014 279.464 533.478 278.056 534.406 276.872C535.334 275.656 536.63 274.728 538.294 274.088C539.99 273.416 541.99 273.08 544.294 273.08C546.022 273.08 547.766 273.272 549.526 273.656C551.286 274.04 552.742 274.584 553.894 275.288L551.59 279.848C550.374 279.112 549.142 278.616 547.894 278.36C546.678 278.072 545.462 277.928 544.246 277.928C542.422 277.928 541.062 278.2 540.166 278.744C539.302 279.288 538.87 279.976 538.87 280.808C538.87 281.576 539.158 282.152 539.734 282.536C540.31 282.92 541.062 283.224 541.99 283.448C542.918 283.672 543.942 283.864 545.062 284.024C546.214 284.152 547.35 284.36 548.47 284.648C549.59 284.936 550.614 285.336 551.542 285.848C552.502 286.328 553.27 287.016 553.846 287.912C554.422 288.808 554.71 289.976 554.71 291.416C554.71 293.016 554.23 294.408 553.27 295.592C552.342 296.776 551.014 297.704 549.286 298.376C547.558 299.016 545.494 299.336 543.094 299.336Z" fill="white"/>
<path d="M324.59 433C328.55 442.163 310.392 447.822 308.705 455.455C307.158 462.469 319.494 470.62 319.505 470.62C317.632 467.717 316.254 465.327 314.375 460.81C311.197 453.171 333.731 446.258 324.59 433ZM336.65 445.69C336.65 445.69 320.72 446.714 319.91 456.895C319.55 461.429 324.101 463.814 324.23 467.11C324.337 469.804 321.53 472.06 321.53 472.06C321.53 472.06 326.637 471.087 328.235 466.975C330.007 462.413 324.781 459.331 325.31 455.68C325.816 452.187 336.65 445.69 336.65 445.69ZM311.63 469.225C311.63 469.225 297.05 469.017 297.05 473.14C297.05 477.449 316.136 477.769 329.765 475.12C329.765 475.12 333.387 472.628 334.355 471.7C325.422 473.522 305.06 473.725 305.06 472.15C305.06 470.699 311.63 469.225 311.63 469.225ZM339.665 469.225C338.236 469.337 336.695 469.889 335.3 470.89C338.585 470.181 341.375 472.217 341.375 474.535C341.375 479.755 333.815 484.66 333.815 484.66C333.815 484.66 345.515 483.332 345.515 474.76C345.515 470.867 342.809 468.977 339.665 469.225ZM308.12 477.235C305.881 477.235 302.54 478.99 302.54 480.655C302.54 484.002 319.37 486.578 331.835 481.69L327.515 479.035C319.066 481.741 303.507 480.857 308.12 477.235ZM310.19 484.75C307.124 484.75 305.105 486.601 305.105 487.99C305.105 492.287 323.414 492.721 330.665 488.35L326.075 485.425C320.658 487.714 307.062 488.063 310.19 484.75ZM299.975 488.62C294.98 488.519 291.74 490.763 291.74 492.625C291.74 502.525 342.86 502.069 342.86 491.95C342.86 490.268 340.919 489.452 340.205 489.07C344.384 498.745 298.355 497.974 298.355 492.265C298.355 490.966 301.741 489.722 304.88 490.33L302.225 488.8C301.443 488.682 300.689 488.637 299.975 488.62ZM348.26 495.28C340.486 502.649 320.787 505.321 300.965 500.77C320.782 508.881 348.164 504.331 348.26 495.28Z" fill="#2F2F2F"/>
<path d="M546.8 441.133H501.2C498.401 441.133 496.133 443.401 496.133 446.2V491.8C496.133 494.599 498.401 496.867 501.2 496.867H546.8C549.599 496.867 551.867 494.599 551.867 491.8V446.2C551.867 443.401 549.599 441.133 546.8 441.133ZM524 482.629C524 487.131 521.239 489.654 516.653 489.654C512.124 489.654 509.238 487.007 509.238 482.726H514.145C514.158 484.314 515.105 485.317 516.57 485.317C518.075 485.317 518.883 484.37 518.883 482.586V468.995H524V482.629ZM537.885 489.654C532.796 489.654 529.594 487.258 529.507 483.382H534.387C534.511 484.846 535.972 485.778 538.093 485.778C540.003 485.778 541.315 484.859 541.315 483.534C541.315 482.419 540.436 481.819 538.136 481.36L535.489 480.831C531.808 480.134 529.913 478.128 529.913 474.963C529.913 471.032 533.064 468.453 537.913 468.453C542.625 468.453 545.885 471.004 545.969 474.725H541.244C541.133 473.304 539.78 472.314 537.979 472.314C536.183 472.314 535 473.165 535 474.502C535 475.604 535.891 476.245 538.009 476.663L540.598 477.165C544.573 477.932 546.357 479.729 546.357 482.921C546.359 487.118 543.155 489.654 537.885 489.654Z" fill="#2F2F2F"/>
<path d="M353.303 53.8841C353.418 46.6936 351.818 38.1431 348.485 28.1109L345.872 20.2438L342.322 27.7245C342.132 28.1244 341.915 28.5159 341.688 28.9023C335.857 23.8331 328.29 20.75 320 20.75C301.59 20.75 286.667 35.8599 286.667 54.5C286.667 73.1401 301.59 88.25 320 88.25C338.41 88.25 353.333 73.1401 353.333 54.5C353.333 54.2925 353.307 54.0916 353.303 53.8841Z" fill="#2F2F2F"/>
<path d="M345.642 68.9416C340.437 76.2012 331.223 76.5911 322.552 76.4375H311.25H308.02C315.4 73.7493 319.792 73.1097 324.277 70.7C332.723 66.2028 341.073 56.363 342.812 46.1266C339.595 55.9749 329.847 64.436 320.963 67.8768C314.877 70.2275 303.883 72.509 303.883 72.509L303.438 72.2643C295.955 68.4523 295.728 51.4861 309.333 46.0085C315.29 43.6072 320.988 44.9268 327.423 43.3203C334.293 41.6126 342.24 36.2193 345.473 29.1875C349.093 40.4381 353.45 58.0539 345.642 68.9416ZM306.113 78.8759C305.643 79.4666 304.925 79.8125 304.175 79.8125C302.803 79.8125 301.683 78.6701 301.683 77.2812C301.683 75.8924 302.812 74.75 304.175 74.75C304.743 74.75 305.303 74.9491 305.743 75.317C306.81 76.1928 306.977 77.7959 306.113 78.8759Z" fill="#D9D9D9"/>
<circle cx="524" cy="55" r="55" fill="#D9D9D9"/>
<g clip-path="url(#clip0_87_646)">
<path d="M524.989 89.0002C524.696 89.0002 524.404 88.9154 524.146 88.7522L521.463 87.0035C521.062 86.7568 521.258 86.6696 521.39 86.6193C521.924 86.4133 522.033 86.3668 522.603 86.0103C522.663 85.9726 522.742 85.9859 522.803 86.0258L524.864 87.3722C524.939 87.4165 525.045 87.4165 525.114 87.3722L533.151 82.2654C533.225 82.2189 533.274 82.1236 533.274 82.0262V71.8169C533.274 71.715 533.225 71.6242 533.149 71.5733L525.115 66.4708C525.041 66.4221 524.942 66.4221 524.868 66.4708L516.835 71.5733C516.757 71.622 516.708 71.7172 516.708 71.8147V82.024C516.708 82.1214 516.756 82.2144 516.832 82.2609L519.033 83.6606C520.228 84.3183 520.959 83.5432 520.959 82.7637V72.6872C520.959 72.5433 521.061 72.4325 521.192 72.4325H522.21C522.337 72.4325 522.442 72.5433 522.442 72.6872V82.7681C522.442 84.5221 521.572 85.5297 520.061 85.5297C519.597 85.5297 519.231 85.5297 518.209 84.976L516.1 83.6384C515.579 83.3062 515.257 82.6861 515.257 82.024V71.8147C515.257 71.1503 515.579 70.5302 516.1 70.2024L524.146 65.0934C524.655 64.7767 525.331 64.7767 525.836 65.0934L533.871 70.2047C534.39 70.5346 534.714 71.1525 534.714 71.8169V82.0262C534.714 82.6884 534.39 83.3062 533.871 83.6384L525.836 88.7475C525.578 88.9114 525.286 88.9956 524.989 88.9956" fill="#2F2F2F"/>
<path d="M527.472 81.9653C523.955 81.9653 523.218 80.1883 523.218 78.6979C523.218 78.5561 523.322 78.4432 523.451 78.4432H524.489C524.604 78.4432 524.7 78.5351 524.718 78.6598C524.875 79.8242 525.342 80.4115 527.469 80.4115C529.163 80.4115 529.883 79.9903 529.883 79.0015C529.883 78.4324 529.678 78.0094 527.046 77.7259C524.845 77.4867 523.485 76.953 523.485 75.0152C523.485 73.2302 524.853 72.1672 527.145 72.1672C529.718 72.1672 530.993 73.1505 531.154 75.2633C531.16 75.3363 531.136 75.4072 531.092 75.4604C531.048 75.5113 530.985 75.5423 530.921 75.5423H529.877C529.768 75.5423 529.674 75.4581 529.651 75.343C529.4 74.1183 528.792 73.7263 527.141 73.7263C525.292 73.7263 525.076 74.435 525.076 74.9665C525.076 75.6109 525.33 75.7992 527.825 76.1624C530.295 76.5234 531.468 77.0327 531.468 78.9439C531.468 80.8706 530.008 81.9757 527.46 81.9757M537.25 71.1485H537.52C537.741 71.1485 537.783 70.978 537.783 70.8783C537.783 70.617 537.621 70.617 537.53 70.617H537.252L537.25 71.1485ZM536.922 70.3114H537.52C537.725 70.3114 538.127 70.3114 538.127 70.8163C538.127 71.1685 537.922 71.2415 537.8 71.2858C538.039 71.3035 538.055 71.4763 538.087 71.7199C538.103 71.8727 538.13 72.1362 538.178 72.2248H537.81C537.8 72.1362 537.743 71.649 537.743 71.6224C537.719 71.5139 537.685 71.4608 537.562 71.4608H537.258V72.227H536.922V70.3114ZM536.204 71.2637C536.204 72.0565 536.786 72.6987 537.5 72.6987C538.22 72.6987 538.801 72.0432 538.801 71.2637C538.801 70.4686 538.212 69.8375 537.498 69.8375C536.794 69.8375 536.202 70.4598 536.202 71.2615M539.051 71.2681C539.051 72.2071 538.353 72.9734 537.502 72.9734C536.657 72.9734 535.953 72.216 535.953 71.2681C535.953 70.3025 536.673 69.5629 537.502 69.5629C538.337 69.5629 539.049 70.3048 539.049 71.2681" fill="#2F2F2F"/>
<path fill-rule="evenodd" clip-rule="evenodd" d="M500.1 49.0532C500.1 48.6457 499.905 48.2714 499.586 48.0688L491.064 42.6718C490.92 42.5788 490.759 42.5301 490.596 42.5234H490.508C490.344 42.5301 490.183 42.5788 490.037 42.6718L481.516 48.0688C481.198 48.2725 481 48.6468 481 49.0543L481.019 63.5909C481.019 63.7925 481.114 63.9807 481.274 64.0804C481.431 64.1867 481.629 64.1867 481.785 64.0804L486.851 60.8869C487.171 60.6774 487.366 60.3071 487.366 59.9036V53.1125C487.366 52.7073 487.562 52.333 487.88 52.1315L490.037 50.7642C490.197 50.6623 490.373 50.6118 490.552 50.6118C490.729 50.6118 490.908 50.6619 491.064 50.764L493.22 52.1308C493.539 52.3323 493.735 52.7066 493.735 53.1119V59.9025C493.735 60.3056 493.933 60.6776 494.251 60.8858L499.314 64.077C499.473 64.1811 499.67 64.1811 499.829 64.077C499.985 63.9774 500.084 63.7891 500.084 63.5876L500.1 49.0532ZM540.311 56.6218C540.311 56.723 540.263 56.8167 540.183 56.8667L537.256 58.7239C537.176 58.7742 537.078 58.7742 536.999 58.7239L534.072 56.8667C533.991 56.8165 533.943 56.7228 533.943 56.6218V52.9022C533.943 52.8007 533.991 52.7073 534.07 52.6563L536.995 50.7961C537.075 50.7451 537.174 50.7451 537.254 50.7961L540.182 52.6563C540.262 52.7073 540.31 52.8007 540.31 52.9022L540.311 56.6218ZM541.102 29.0717C540.942 28.9738 540.748 28.9765 540.59 29.0777C540.433 29.1796 540.336 29.3656 540.336 29.5671V43.962C540.336 44.1038 540.268 44.2344 540.157 44.3053C540.046 44.3762 539.908 44.3762 539.796 44.3053L537.662 42.9519C537.344 42.7495 536.952 42.7495 536.633 42.9519L528.109 48.3673C527.79 48.5688 527.594 48.9431 527.594 49.3462V60.18C527.594 60.5853 527.79 60.9573 528.109 61.1611L536.633 66.5802C536.952 66.7817 537.344 66.7817 537.663 66.5802L546.187 61.1589C546.505 60.9551 546.702 60.5831 546.702 60.1778V33.1774C546.702 32.7663 546.499 32.3883 546.173 32.1874L541.102 29.0717ZM569.488 52.8043C569.805 52.6019 570 52.228 570 51.825V49.1993C570 48.7954 569.805 48.4227 569.488 48.2194L561.018 42.8069C560.698 42.6031 560.305 42.6031 559.985 42.8069L551.463 48.2216C551.143 48.4253 550.948 48.7974 550.948 49.2027V60.0321C550.948 60.4396 551.147 60.816 551.467 61.0176L559.935 66.3304C560.247 66.5275 560.629 66.5297 560.945 66.337L566.067 63.2034C566.228 63.1037 566.331 62.9155 566.331 62.7117C566.331 62.508 566.232 62.3175 566.071 62.2179L557.497 56.801C557.336 56.7013 557.237 56.5131 557.237 56.3115V52.9143C557.237 52.7115 557.334 52.5246 557.495 52.4236L560.163 50.7294C560.321 50.6275 560.517 50.6275 560.676 50.7294L563.345 52.4236C563.504 52.5232 563.603 52.7115 563.603 52.913V55.5838C563.603 55.7854 563.701 55.9736 563.86 56.0755C564.019 56.1751 564.216 56.1751 564.375 56.0732L569.488 52.8043Z" fill="#333333"/>
<path fill-rule="evenodd" clip-rule="evenodd" d="M560.377 52.2976C560.437 52.2584 560.513 52.2584 560.574 52.2976L562.209 53.3363C562.271 53.3753 562.308 53.447 562.308 53.5245V55.604C562.308 55.6816 562.271 55.7533 562.209 55.7923L560.574 56.8309C560.513 56.8701 560.437 56.8701 560.377 56.8309L558.742 55.7923C558.68 55.7533 558.641 55.6816 558.641 55.604V53.5245C558.641 53.447 558.678 53.3753 558.74 53.3363L560.377 52.2976Z" fill="#2F2F2F"/>
<mask id="mask0_87_646" style="mask-type:luminance" maskUnits="userSpaceOnUse" x="504" y="42" width="20" height="25">
<path d="M513.336 42.861L504.86 48.2462C504.542 48.4478 504.348 48.8198 504.348 49.222V60C504.348 60.4024 504.542 60.7742 504.86 60.9758L513.337 66.3652C513.653 66.5661 514.044 66.5661 514.361 66.3652L522.836 60.9758C523.152 60.7742 523.347 60.4022 523.347 60V49.222C523.347 48.8198 523.152 48.4478 522.834 48.2462L514.36 42.861C514.201 42.7607 514.024 42.7104 513.847 42.7104C513.67 42.7104 513.493 42.7607 513.334 42.861" fill="white"/>
</mask>
<g mask="url(#mask0_87_646)">
<path d="M531.912 47.3318L508.028 34.4451L495.782 61.9447L519.665 74.8321L531.912 47.3318Z" fill="#2F2F2F"/>
</g>
<mask id="mask1_87_646" style="mask-type:luminance" maskUnits="userSpaceOnUse" x="504" y="42" width="20" height="25">
<path d="M504.558 60.6843C504.639 60.8001 504.74 60.9004 504.859 60.9757L512.13 65.5987L513.342 66.365C513.523 66.4801 513.729 66.5288 513.932 66.5122C513.999 66.5063 514.067 66.4923 514.133 66.4717L523.073 48.4537C523.004 48.3718 522.924 48.3031 522.834 48.2455L517.284 44.7177L514.351 42.8596C514.267 42.8065 514.177 42.7688 514.085 42.7422L504.558 60.6843Z" fill="white"/>
</mask>
<g mask="url(#mask1_87_646)">
<path d="M494.231 51.1433L511.096 76.2686L533.399 58.1297L516.534 33.0051L494.231 51.1433Z" fill="#2F2F2F"/>
</g>
<mask id="mask2_87_646" style="mask-type:luminance" maskUnits="userSpaceOnUse" x="504" y="42" width="20" height="25">
<path d="M513.746 42.7166C513.603 42.7321 513.464 42.7808 513.336 42.861L504.884 48.2307L513.998 66.5034C514.125 66.4835 514.25 66.437 514.362 66.3652L522.838 60.9758C523.1 60.8088 523.279 60.5262 523.333 60.206L514.042 42.735C513.974 42.7202 513.906 42.7124 513.835 42.7124C513.807 42.7124 513.779 42.714 513.751 42.7168" fill="white"/>
</mask>
<g mask="url(#mask2_87_646)">
<path d="M504.884 42.7124V66.5039H523.329V42.7124H504.884Z" fill="#2F2F2F"/>
</g>
</g>
<path d="M92.1973 48.336C90.8213 48.336 89.4933 48.168 88.2133 47.832C86.9493 47.48 85.9173 47.032 85.1173 46.488L86.6773 42.984C87.4293 43.464 88.2933 43.864 89.2693 44.184C90.2613 44.488 91.2453 44.64 92.2213 44.64C92.8773 44.64 93.4053 44.584 93.8053 44.472C94.2053 44.344 94.4933 44.184 94.6693 43.992C94.8613 43.784 94.9573 43.544 94.9573 43.272C94.9573 42.888 94.7813 42.584 94.4293 42.36C94.0773 42.136 93.6213 41.952 93.0613 41.808C92.5013 41.664 91.8773 41.52 91.1893 41.376C90.5173 41.232 89.8373 41.048 89.1493 40.824C88.4773 40.6 87.8613 40.312 87.3013 39.96C86.7413 39.592 86.2853 39.12 85.9333 38.544C85.5813 37.952 85.4053 37.208 85.4053 36.312C85.4053 35.304 85.6773 34.392 86.2213 33.576C86.7813 32.76 87.6133 32.104 88.7173 31.608C89.8213 31.112 91.1973 30.864 92.8453 30.864C93.9493 30.864 95.0293 30.992 96.0853 31.248C97.1573 31.488 98.1093 31.848 98.9413 32.328L97.4773 35.856C96.6773 35.424 95.8853 35.104 95.1013 34.896C94.3173 34.672 93.5573 34.56 92.8213 34.56C92.1653 34.56 91.6373 34.632 91.2373 34.776C90.8373 34.904 90.5493 35.08 90.3733 35.304C90.1973 35.528 90.1093 35.784 90.1093 36.072C90.1093 36.44 90.2773 36.736 90.6133 36.96C90.9653 37.168 91.4213 37.344 91.9813 37.488C92.5573 37.616 93.1813 37.752 93.8533 37.896C94.5413 38.04 95.2213 38.224 95.8933 38.448C96.5813 38.656 97.2053 38.944 97.7653 39.312C98.3253 39.664 98.7733 40.136 99.1093 40.728C99.4613 41.304 99.6373 42.032 99.6373 42.912C99.6373 43.888 99.3573 44.792 98.7973 45.624C98.2533 46.44 97.4293 47.096 96.3253 47.592C95.2373 48.088 93.8613 48.336 92.1973 48.336ZM110.304 48.336C108.96 48.336 107.72 48.12 106.584 47.688C105.448 47.256 104.456 46.648 103.608 45.864C102.776 45.064 102.128 44.136 101.664 43.08C101.2 42.024 100.968 40.864 100.968 39.6C100.968 38.336 101.2 37.176 101.664 36.12C102.128 35.064 102.776 34.144 103.608 33.36C104.456 32.56 105.448 31.944 106.584 31.512C107.72 31.08 108.96 30.864 110.304 30.864C111.664 30.864 112.904 31.08 114.024 31.512C115.16 31.944 116.144 32.552 116.976 33.336C117.808 34.12 118.456 35.048 118.92 36.12C119.4 37.176 119.64 38.336 119.64 39.6C119.64 40.864 119.4 42.032 118.92 43.104C118.456 44.16 117.808 45.08 116.976 45.864C116.144 46.648 115.16 47.256 114.024 47.688C112.904 48.12 111.664 48.336 110.304 48.336ZM115.8 52.056C115.08 52.056 114.408 51.976 113.784 51.816C113.16 51.672 112.544 51.432 111.936 51.096C111.344 50.76 110.72 50.304 110.064 49.728C109.424 49.152 108.704 48.44 107.904 47.592L112.872 46.344C113.272 46.936 113.632 47.4 113.952 47.736C114.272 48.072 114.584 48.312 114.888 48.456C115.208 48.6 115.544 48.672 115.896 48.672C116.824 48.672 117.672 48.28 118.44 47.496L120.504 49.944C119.336 51.352 117.768 52.056 115.8 52.056ZM110.304 44.4C110.944 44.4 111.536 44.288 112.08 44.064C112.64 43.84 113.12 43.52 113.52 43.104C113.936 42.672 114.256 42.16 114.48 41.568C114.72 40.976 114.84 40.32 114.84 39.6C114.84 38.864 114.72 38.208 114.48 37.632C114.256 37.04 113.936 36.536 113.52 36.12C113.12 35.688 112.64 35.36 112.08 35.136C111.536 34.912 110.944 34.8 110.304 34.8C109.664 34.8 109.064 34.912 108.504 35.136C107.96 35.36 107.48 35.688 107.064 36.12C106.664 36.536 106.344 37.04 106.104 37.632C105.88 38.208 105.768 38.864 105.768 39.6C105.768 40.32 105.88 40.976 106.104 41.568C106.344 42.16 106.664 42.672 107.064 43.104C107.48 43.52 107.96 43.84 108.504 44.064C109.064 44.288 109.664 44.4 110.304 44.4ZM122.129 48V31.2H126.881V44.232H134.897V48H122.129ZM134.538 50.4L142.458 27.792H146.514L138.594 50.4H134.538ZM73.7777 77V60.2H77.6897L86.9537 71.384H85.1057V60.2H89.7617V77H85.8497L76.5857 65.816H78.4337V77H73.7777ZM99.4256 77.216C98.0016 77.216 96.7376 76.928 95.6336 76.352C94.5296 75.776 93.6576 74.984 93.0176 73.976C92.3936 72.952 92.0816 71.784 92.0816 70.472C92.0816 69.16 92.3936 68 93.0176 66.992C93.6576 65.984 94.5296 65.2 95.6336 64.64C96.7376 64.064 98.0016 63.776 99.4256 63.776C100.85 63.776 102.114 64.064 103.218 64.64C104.338 65.2 105.21 65.984 105.834 66.992C106.458 68 106.77 69.16 106.77 70.472C106.77 71.784 106.458 72.952 105.834 73.976C105.21 74.984 104.338 75.776 103.218 76.352C102.114 76.928 100.85 77.216 99.4256 77.216ZM99.4256 73.592C99.9536 73.592 100.418 73.472 100.818 73.232C101.234 72.992 101.562 72.64 101.802 72.176C102.042 71.696 102.162 71.128 102.162 70.472C102.162 69.816 102.042 69.264 101.802 68.816C101.562 68.352 101.234 68 100.818 67.76C100.418 67.52 99.9536 67.4 99.4256 67.4C98.9136 67.4 98.4496 67.52 98.0336 67.76C97.6336 68 97.3056 68.352 97.0496 68.816C96.8096 69.264 96.6896 69.816 96.6896 70.472C96.6896 71.128 96.8096 71.696 97.0496 72.176C97.3056 72.64 97.6336 72.992 98.0336 73.232C98.4496 73.472 98.9136 73.592 99.4256 73.592ZM115.002 77.336C113.626 77.336 112.298 77.168 111.018 76.832C109.754 76.48 108.722 76.032 107.922 75.488L109.482 71.984C110.234 72.464 111.098 72.864 112.074 73.184C113.066 73.488 114.05 73.64 115.026 73.64C115.682 73.64 116.21 73.584 116.61 73.472C117.01 73.344 117.298 73.184 117.474 72.992C117.666 72.784 117.762 72.544 117.762 72.272C117.762 71.888 117.586 71.584 117.234 71.36C116.882 71.136 116.426 70.952 115.866 70.808C115.306 70.664 114.682 70.52 113.994 70.376C113.322 70.232 112.642 70.048 111.954 69.824C111.282 69.6 110.666 69.312 110.106 68.96C109.546 68.592 109.09 68.12 108.738 67.544C108.386 66.952 108.21 66.208 108.21 65.312C108.21 64.304 108.482 63.392 109.026 62.576C109.586 61.76 110.418 61.104 111.522 60.608C112.626 60.112 114.002 59.864 115.65 59.864C116.754 59.864 117.834 59.992 118.89 60.248C119.962 60.488 120.914 60.848 121.746 61.328L120.282 64.856C119.482 64.424 118.69 64.104 117.906 63.896C117.122 63.672 116.362 63.56 115.626 63.56C114.97 63.56 114.442 63.632 114.042 63.776C113.642 63.904 113.354 64.08 113.178 64.304C113.002 64.528 112.914 64.784 112.914 65.072C112.914 65.44 113.082 65.736 113.418 65.96C113.77 66.168 114.226 66.344 114.786 66.488C115.362 66.616 115.986 66.752 116.658 66.896C117.346 67.04 118.026 67.224 118.698 67.448C119.386 67.656 120.01 67.944 120.57 68.312C121.13 68.664 121.578 69.136 121.914 69.728C122.266 70.304 122.442 71.032 122.442 71.912C122.442 72.888 122.162 73.792 121.602 74.624C121.058 75.44 120.234 76.096 119.13 76.592C118.042 77.088 116.666 77.336 115.002 77.336ZM133.109 77.336C131.765 77.336 130.525 77.12 129.389 76.688C128.253 76.256 127.261 75.648 126.413 74.864C125.581 74.064 124.933 73.136 124.469 72.08C124.005 71.024 123.773 69.864 123.773 68.6C123.773 67.336 124.005 66.176 124.469 65.12C124.933 64.064 125.581 63.144 126.413 62.36C127.261 61.56 128.253 60.944 129.389 60.512C130.525 60.08 131.765 59.864 133.109 59.864C134.469 59.864 135.709 60.08 136.829 60.512C137.965 60.944 138.949 61.552 139.781 62.336C140.613 63.12 141.261 64.048 141.725 65.12C142.205 66.176 142.445 67.336 142.445 68.6C142.445 69.864 142.205 71.032 141.725 72.104C141.261 73.16 140.613 74.08 139.781 74.864C138.949 75.648 137.965 76.256 136.829 76.688C135.709 77.12 134.469 77.336 133.109 77.336ZM138.605 81.056C137.885 81.056 137.213 80.976 136.589 80.816C135.965 80.672 135.349 80.432 134.741 80.096C134.149 79.76 133.525 79.304 132.869 78.728C132.229 78.152 131.509 77.44 130.709 76.592L135.677 75.344C136.077 75.936 136.437 76.4 136.757 76.736C137.077 77.072 137.389 77.312 137.693 77.456C138.013 77.6 138.349 77.672 138.701 77.672C139.629 77.672 140.477 77.28 141.245 76.496L143.309 78.944C142.141 80.352 140.573 81.056 138.605 81.056ZM133.109 73.4C133.749 73.4 134.341 73.288 134.885 73.064C135.445 72.84 135.925 72.52 136.325 72.104C136.741 71.672 137.061 71.16 137.285 70.568C137.525 69.976 137.645 69.32 137.645 68.6C137.645 67.864 137.525 67.208 137.285 66.632C137.061 66.04 136.741 65.536 136.325 65.12C135.925 64.688 135.445 64.36 134.885 64.136C134.341 63.912 133.749 63.8 133.109 63.8C132.469 63.8 131.869 63.912 131.309 64.136C130.765 64.36 130.285 64.688 129.869 65.12C129.469 65.536 129.149 66.04 128.909 66.632C128.685 67.208 128.573 67.864 128.573 68.6C128.573 69.32 128.685 69.976 128.909 70.568C129.149 71.16 129.469 71.672 129.869 72.104C130.285 72.52 130.765 72.84 131.309 73.064C131.869 73.288 132.469 73.4 133.109 73.4ZM144.934 77V60.2H149.686V73.232H157.702V77H144.934Z" fill="#2F2F2F"/>
<g clip-path="url(#clip1_87_646)">
<path d="M113.61 465.927H120.673C120.837 465.927 120.994 465.862 121.111 465.746C121.227 465.631 121.293 465.474 121.293 465.31V459.02C121.293 458.856 121.228 458.698 121.112 458.582C120.996 458.465 120.838 458.4 120.673 458.4H113.61C113.447 458.4 113.29 458.465 113.174 458.581C113.058 458.696 112.993 458.853 112.993 459.017V465.31C112.993 465.65 113.27 465.927 113.61 465.927ZM103.763 447.827H110.823C110.988 447.827 111.146 447.761 111.262 447.645C111.378 447.529 111.443 447.371 111.443 447.207V440.913C111.443 440.749 111.377 440.593 111.261 440.477C111.144 440.361 110.987 440.297 110.823 440.297H103.763C103.6 440.297 103.443 440.362 103.327 440.477C103.212 440.593 103.147 440.75 103.147 440.913V447.207C103.147 447.547 103.42 447.827 103.763 447.827ZM103.763 456.877H110.823C110.988 456.876 111.145 456.81 111.261 456.694C111.377 456.578 111.443 456.421 111.443 456.257V449.967C111.443 449.803 111.377 449.646 111.261 449.53C111.144 449.415 110.987 449.35 110.823 449.35H103.763C103.6 449.35 103.443 449.415 103.327 449.531C103.212 449.646 103.147 449.803 103.147 449.967V456.257C103.147 456.597 103.42 456.873 103.763 456.877ZM93.9967 456.877H101.063C101.227 456.875 101.383 456.809 101.497 456.693C101.612 456.577 101.677 456.42 101.677 456.257V449.967C101.677 449.803 101.612 449.646 101.496 449.531C101.38 449.415 101.224 449.35 101.06 449.35H94.0001C93.8365 449.35 93.6797 449.415 93.564 449.531C93.4484 449.646 93.3834 449.803 93.3834 449.967V456.257C93.3834 456.597 93.6601 456.873 94.0001 456.877M84.1201 456.877H91.1834C91.3472 456.876 91.5041 456.81 91.6196 456.694C91.7352 456.578 91.8001 456.42 91.8001 456.257V449.967C91.8001 449.803 91.7351 449.646 91.6194 449.531C91.5038 449.415 91.3469 449.35 91.1834 449.35H84.1201C83.9562 449.35 83.799 449.415 83.6828 449.53C83.5666 449.646 83.5009 449.803 83.5001 449.967V456.257C83.5001 456.597 83.7801 456.873 84.1201 456.877ZM103.763 465.927H110.823C110.987 465.927 111.144 465.862 111.261 465.746C111.377 465.631 111.443 465.474 111.443 465.31V459.02C111.443 458.856 111.378 458.698 111.262 458.582C111.146 458.465 110.988 458.4 110.823 458.4H103.763C103.6 458.4 103.443 458.465 103.327 458.581C103.212 458.696 103.147 458.853 103.147 459.017V465.31C103.147 465.65 103.42 465.927 103.763 465.927ZM93.9967 465.927H101.063C101.226 465.926 101.382 465.86 101.497 465.745C101.612 465.629 101.677 465.473 101.677 465.31V459.02C101.677 458.939 101.662 458.859 101.631 458.784C101.6 458.709 101.555 458.641 101.498 458.583C101.442 458.525 101.374 458.48 101.299 458.448C101.224 458.417 101.144 458.4 101.063 458.4H93.9967C93.8338 458.401 93.6778 458.466 93.5628 458.582C93.4479 458.697 93.3834 458.854 93.3834 459.017V465.31C93.3834 465.65 93.6601 465.927 94.0001 465.927M84.1201 465.927H91.1834C91.3469 465.927 91.5038 465.862 91.6194 465.746C91.7351 465.63 91.8001 465.474 91.8001 465.31V459.02C91.8005 458.939 91.785 458.859 91.7544 458.784C91.7238 458.709 91.6788 458.641 91.6218 458.583C91.5648 458.525 91.4971 458.48 91.4225 458.448C91.3478 458.417 91.2677 458.4 91.1867 458.4H84.1201C83.9556 458.4 83.7979 458.465 83.6817 458.582C83.5654 458.698 83.5001 458.856 83.5001 459.02V465.31C83.5001 465.65 83.7801 465.927 84.1201 465.927ZM74.3867 465.927H81.4534C81.6164 465.926 81.7724 465.86 81.8873 465.745C82.0022 465.629 82.0667 465.473 82.0667 465.31V459.02C82.0672 458.939 82.0516 458.859 82.0211 458.784C81.9905 458.709 81.9454 458.641 81.8885 458.583C81.8315 458.525 81.7638 458.48 81.6891 458.448C81.6145 458.417 81.5344 458.4 81.4534 458.4H74.3867C74.2238 458.401 74.0678 458.466 73.9528 458.582C73.8379 458.697 73.7734 458.854 73.7734 459.017V465.31C73.7734 465.65 74.0434 465.927 74.3867 465.927ZM146.21 461.967C145.993 461.797 143.97 460.267 139.697 460.267C138.57 460.27 137.443 460.367 136.33 460.557C135.503 454.89 130.82 452.123 130.61 452.003L129.463 451.34L128.71 452.43C127.763 453.89 127.077 455.503 126.67 457.197C125.903 460.43 126.37 463.47 128.013 466.067C126.03 467.173 122.847 467.443 122.2 467.467H69.5034C68.8418 467.468 68.2074 467.73 67.7389 468.197C67.2705 468.665 67.006 469.298 67.0034 469.96C66.9417 474.576 67.7234 479.165 69.3101 483.5C71.1267 488.26 73.8267 491.767 77.3434 493.913C81.2767 496.323 87.6767 497.703 94.9267 497.703C98.2034 497.713 101.47 497.417 104.693 496.817C109.17 495.994 113.477 494.429 117.437 492.187C120.703 490.297 123.637 487.893 126.137 485.067C130.31 480.34 132.797 475.077 134.647 470.4H135.383C139.957 470.4 142.767 468.57 144.317 467.037C145.347 466.06 146.15 464.87 146.673 463.55L147 462.59L146.21 461.967Z" fill="#2F2F2F"/>
</g>
<defs>
<clipPath id="clip0_87_646">
<rect width="89" height="60" fill="white" transform="translate(481 29)"/>
</clipPath>
<clipPath id="clip1_87_646">
<rect width="80" height="80" fill="white" transform="translate(67 429)"/>
</clipPath>
</defs>
</svg>
