<svg width="1296" height="270" viewBox="0 0 1296 270" fill="none" xmlns="http://www.w3.org/2000/svg">
<path d="M405.6 201.2C395.867 201.2 386.867 199.467 378.6 196C370.333 192.4 363.2 187.4 357.2 181C351.2 174.6 346.533 167.067 343.2 158.4C339.867 149.6 338.2 140.067 338.2 129.8C338.2 119.533 339.867 110.067 343.2 101.4C346.533 92.7333 351.2 85.2667 357.2 79C363.2 72.6 370.333 67.6667 378.6 64.2C386.867 60.6 395.867 58.8 405.6 58.8C415.333 58.8 424.267 60.6 432.4 64.2C440.667 67.6667 447.8 72.6 453.8 79C459.933 85.2667 464.667 92.7333 468 101.4C471.333 110.067 473 119.533 473 129.8C473 140.067 471.333 149.6 468 158.4C464.667 167.067 459.933 174.6 453.8 181C447.8 187.4 440.667 192.4 432.4 196C424.267 199.467 415.333 201.2 405.6 201.2ZM405.6 168.8C412.133 168.8 417.733 167.2 422.4 164C427.067 160.667 430.667 156.067 433.2 150.2C435.867 144.333 437.2 137.533 437.2 129.8C437.2 122.067 435.867 115.333 433.2 109.6C430.667 103.867 427.067 99.4 422.4 96.2C417.733 92.8667 412.133 91.2 405.6 91.2C399.2 91.2 393.6 92.8 388.8 96C384.133 99.2 380.467 103.733 377.8 109.6C375.267 115.333 374 122.067 374 129.8C374 137.533 375.267 144.333 377.8 150.2C380.467 156.067 384.133 160.667 388.8 164C393.6 167.2 399.2 168.8 405.6 168.8ZM560.689 157C560.689 167.133 558.022 175.4 552.689 181.8C547.489 188.067 540.422 192.6 531.489 195.4C522.689 198.2 512.822 199.4 501.889 199C490.956 198.733 479.822 197.067 468.489 194C468.489 188.267 468.489 182.533 468.489 176.8C468.489 171.067 468.489 165.333 468.489 159.6C478.889 163.333 488.356 165.667 496.889 166.6C505.422 167.533 512.222 167.2 517.289 165.6C522.356 163.867 524.889 161 524.889 157C524.889 154.2 523.489 151.933 520.689 150.2C517.889 148.333 514.222 146.667 509.689 145.2C505.289 143.733 500.622 142.067 495.689 140.2C490.756 138.2 486.022 135.733 481.489 132.8C477.089 129.733 473.489 125.8 470.689 121C467.889 116.067 466.489 109.933 466.489 102.6C466.489 93.5333 468.889 85.8667 473.689 79.6C478.489 73.3333 484.956 68.6 493.089 65.4C501.356 62.2 510.689 60.6 521.089 60.6C531.622 60.6 542.489 62.2 553.689 65.4C553.689 71.1333 553.689 76.8667 553.689 82.6C553.689 88.3333 553.689 94.0667 553.689 99.8C544.356 95.8 535.756 93.4 527.889 92.6C520.156 91.6667 513.956 92.0667 509.289 93.8C504.622 95.4 502.289 98.0667 502.289 101.8C502.289 104.467 503.689 106.667 506.489 108.4C509.289 110.133 512.889 111.733 517.289 113.2C521.822 114.533 526.556 116.2 531.489 118.2C536.422 120.067 541.089 122.6 545.489 125.8C550.022 128.867 553.689 132.933 556.489 138C559.289 142.933 560.689 149.267 560.689 157ZM582.53 62C585.596 75.7333 588.663 89.6667 591.73 103.8C594.796 117.933 597.796 131.933 600.73 145.8C603.796 131.933 606.863 117.933 609.93 103.8C613.13 89.6667 616.196 75.7333 619.13 62C624.33 62 629.596 62 634.93 62C640.263 62 645.53 62 650.73 62C653.93 75.7333 657.13 89.6 660.33 103.6C663.53 117.6 666.73 131.533 669.93 145.4C672.996 131.533 675.996 117.6 678.93 103.6C681.996 89.6 684.996 75.7333 687.93 62C693.263 62 698.596 62 703.93 62C709.396 62 714.796 62 720.13 62C715.196 84.4 710.263 107.067 705.33 130C700.396 152.933 695.463 175.6 690.53 198C683.996 198 677.33 198 670.53 198C663.863 198 657.196 198 650.53 198C647.73 185.6 644.863 173.133 641.93 160.6C638.996 147.933 636.13 135.4 633.33 123C630.663 135.4 627.93 147.933 625.13 160.6C622.33 173.133 619.596 185.6 616.93 198C610.396 198 603.796 198 597.13 198C590.596 198 584.063 198 577.53 198C572.596 175.6 567.663 152.933 562.73 130C557.796 107.067 552.863 84.4 547.93 62C553.663 62 559.396 62 565.13 62C570.996 62 576.796 62 582.53 62ZM699.148 198C706.082 175.6 713.015 152.933 719.948 130C727.015 107.067 734.015 84.4 740.948 62C748.815 62 756.748 62 764.748 62C772.882 62 780.882 62 788.748 62C795.682 84.4 802.615 107.067 809.548 130C816.615 152.933 823.615 175.6 830.548 198C824.815 198 818.948 198 812.948 198C807.082 198 801.215 198 795.348 198C794.015 193.733 792.748 189.467 791.548 185.2C790.348 180.8 789.082 176.467 787.748 172.2C780.148 172.2 772.482 172.2 764.748 172.2C757.148 172.2 749.548 172.2 741.948 172.2C740.615 176.467 739.348 180.8 738.148 185.2C736.948 189.467 735.682 193.733 734.348 198C728.615 198 722.748 198 716.748 198C710.882 198 705.015 198 699.148 198ZM750.748 142.4C755.415 142.4 760.082 142.4 764.748 142.4C769.548 142.4 774.282 142.4 778.948 142.4C776.682 134.533 774.348 126.6 771.948 118.6C769.548 110.6 767.215 102.667 764.948 94.8C762.682 102.667 760.282 110.6 757.748 118.6C755.348 126.6 753.015 134.533 750.748 142.4ZM823.594 198C823.594 175.6 823.594 152.933 823.594 130C823.594 107.067 823.594 84.4 823.594 62C829.46 62 835.327 62 841.194 62C847.06 62 852.86 62 858.594 62C858.594 79.2 858.594 96.6 858.594 114.2C858.594 131.667 858.594 149 858.594 166.2C865.66 166.2 872.794 166.2 879.994 166.2C887.194 166.2 894.26 166.2 901.194 166.2C901.194 171.4 901.194 176.733 901.194 182.2C901.194 187.533 901.194 192.8 901.194 198C888.394 198 875.46 198 862.394 198C849.327 198 836.394 198 823.594 198Z" fill="#FF9E15"/>
<rect x="905.379" y="23.0913" width="390.621" height="206.817" rx="30" fill="#FF9E15"/>
<path d="M923.4 198C923.4 175.6 923.4 152.933 923.4 130C923.4 107.067 923.4 84.4 923.4 62C931.4 62 939.467 62 947.6 62C955.733 62 963.8 62 971.8 62C981.667 62 990.733 63.7333 999 67.2C1007.27 70.5333 1014.47 75.2667 1020.6 81.4C1026.73 87.5333 1031.47 94.7333 1034.8 103C1038.27 111.133 1040 120.067 1040 129.8C1040 139.533 1038.27 148.533 1034.8 156.8C1031.47 165.067 1026.73 172.333 1020.6 178.6C1014.47 184.733 1007.27 189.533 999 193C990.733 196.333 981.667 198 971.8 198C963.8 198 955.733 198 947.6 198C939.467 198 931.4 198 923.4 198ZM971.8 93.6C969.667 93.6 967.467 93.6 965.2 93.6C962.933 93.6 960.667 93.6 958.4 93.6C958.4 105.6 958.4 117.733 958.4 130C958.4 142.267 958.4 154.4 958.4 166.4C960.667 166.4 962.933 166.4 965.2 166.4C967.467 166.4 969.667 166.4 971.8 166.4C978.467 166.4 984.267 164.8 989.2 161.6C994.133 158.4 997.933 154.067 1000.6 148.6C1003.27 143 1004.6 136.733 1004.6 129.8C1004.6 122.867 1003.27 116.667 1000.6 111.2C997.933 105.733 994.133 101.467 989.2 98.4C984.267 95.2 978.467 93.6 971.8 93.6ZM1059.14 198C1059.14 175.6 1059.14 152.933 1059.14 130C1059.14 107.067 1059.14 84.4 1059.14 62C1072.61 62 1086.21 62 1099.94 62C1113.68 62 1127.28 62 1140.74 62C1140.74 67.0667 1140.74 72.2667 1140.74 77.6C1140.74 82.9333 1140.74 88.1333 1140.74 93.2C1133.01 93.2 1125.21 93.2 1117.34 93.2C1109.61 93.2 1101.88 93.2 1094.14 93.2C1094.14 96.5333 1094.14 99.8667 1094.14 103.2C1094.14 106.4 1094.14 109.667 1094.14 113C1101.21 113 1108.34 113 1115.54 113C1122.74 113 1129.81 113 1136.74 113C1136.74 117.933 1136.74 122.933 1136.74 128C1136.74 133.067 1136.74 138.133 1136.74 143.2C1129.81 143.2 1122.74 143.2 1115.54 143.2C1108.34 143.2 1101.21 143.2 1094.14 143.2C1094.14 147.067 1094.14 151 1094.14 155C1094.14 159 1094.14 162.933 1094.14 166.8C1101.88 166.8 1109.61 166.8 1117.34 166.8C1125.21 166.8 1133.01 166.8 1140.74 166.8C1140.74 171.867 1140.74 177.067 1140.74 182.4C1140.74 187.733 1140.74 192.933 1140.74 198C1127.28 198 1113.68 198 1099.94 198C1086.21 198 1072.61 198 1059.14 198ZM1187.41 62C1192.34 77.2 1197.21 92.5333 1202.01 108C1206.94 123.467 1211.87 138.8 1216.81 154C1221.74 138.8 1226.67 123.467 1231.61 108C1236.54 92.5333 1241.47 77.2 1246.41 62C1252.14 62 1257.94 62 1263.81 62C1269.67 62 1275.47 62 1281.21 62C1274.01 84.4 1266.67 107.067 1259.21 130C1251.87 152.933 1244.61 175.6 1237.41 198C1230.47 198 1223.47 198 1216.41 198C1209.47 198 1202.54 198 1195.61 198C1188.41 175.6 1181.07 152.933 1173.61 130C1166.27 107.067 1159.01 84.4 1151.81 62C1157.67 62 1163.61 62 1169.61 62C1175.61 62 1181.54 62 1187.41 62Z" fill="white"/>
<rect x="15" y="15" width="217" height="210" rx="105" stroke="#FF9E15" stroke-width="30"/>
<rect x="97" y="75" width="201" height="195" rx="97.5" fill="#FF9E15"/>
<rect x="123" y="99" width="149" height="146" rx="73" fill="white"/>
</svg>
