<svg width="774" height="649" viewBox="0 0 774 649" fill="none" xmlns="http://www.w3.org/2000/svg">
<path d="M61 188H605C643.66 188 675 219.34 675 258V305C675 343.66 643.66 375 605 375H61V188Z" fill="#2F2F2F"/>
<path d="M61 366H605C643.66 366 675 397.34 675 436V553H61V366Z" fill="#2F2F2F"/>
<path d="M51.0386 81C48.2754 81 46.1623 83.1157 46.1623 85.8824C46.1623 88.649 48.2754 90.7647 51.0386 90.7647C53.8018 90.7647 55.9149 88.649 55.9149 85.8824C55.9149 83.1157 53.8018 81 51.0386 81ZM51.0386 128.847C48.2754 128.847 46.1623 130.963 46.1623 133.729C46.1623 136.496 48.2754 138.612 51.0386 138.612C53.8018 138.612 55.9149 136.496 55.9149 133.729C55.9149 130.963 53.8018 128.847 51.0386 128.847ZM51.0386 176.694C48.2754 176.694 46.1623 178.81 46.1623 181.576C46.1623 184.343 48.2754 186.459 51.0386 186.459C53.8018 186.459 55.9149 184.343 55.9149 181.576C55.9149 178.81 53.8018 176.694 51.0386 176.694ZM51.0386 224.541C48.2754 224.541 46.1623 226.657 46.1623 229.424C46.1623 232.19 48.2754 234.306 51.0386 234.306C53.8018 234.306 55.9149 232.19 55.9149 229.424C55.9149 226.657 53.8018 224.541 51.0386 224.541ZM97.3635 320.235C94.6002 320.235 92.4872 322.351 92.4872 325.118C92.4872 327.884 94.6002 330 97.3635 330C100.127 330 102.24 327.884 102.24 325.118C102.24 322.351 99.9642 320.235 97.3635 320.235ZM97.3635 176.694C94.6002 176.694 92.4872 178.81 92.4872 181.576C92.4872 184.343 94.6002 186.459 97.3635 186.459C100.127 186.459 102.24 184.343 102.24 181.576C102.24 178.81 99.9642 176.694 97.3635 176.694ZM97.3635 128.847C94.6002 128.847 92.4872 130.963 92.4872 133.729C92.4872 136.496 94.6002 138.612 97.3635 138.612C100.127 138.612 102.24 136.496 102.24 133.729C102.24 130.963 99.9642 128.847 97.3635 128.847ZM97.3635 272.388C94.6002 272.388 92.4872 274.504 92.4872 277.271C92.4872 280.037 94.6002 282.153 97.3635 282.153C100.127 282.153 102.24 280.037 102.24 277.271C102.24 274.504 99.9642 272.388 97.3635 272.388ZM97.3635 224.541C94.6002 224.541 92.4872 226.657 92.4872 229.424C92.4872 232.19 94.6002 234.306 97.3635 234.306C100.127 234.306 102.24 232.19 102.24 229.424C102.24 226.657 99.9642 224.541 97.3635 224.541ZM236.013 90.7647C238.776 90.7647 240.889 88.649 240.889 85.8824C240.889 83.1157 238.776 81 236.013 81C233.25 81 231.137 83.1157 231.137 85.8824C231.137 88.649 233.25 90.7647 236.013 90.7647ZM4.8763 176.694C2.11306 176.694 0 178.81 0 181.576C0 184.343 2.11306 186.459 4.8763 186.459C7.63954 186.459 9.7526 184.343 9.7526 181.576C9.7526 178.81 7.63954 176.694 4.8763 176.694ZM4.8763 272.388C2.11306 272.388 0 274.504 0 277.271C0 280.037 2.11306 282.153 4.8763 282.153C7.63954 282.153 9.7526 280.037 9.7526 277.271C9.7526 274.504 7.63954 272.388 4.8763 272.388ZM4.8763 224.541C2.11306 224.541 0 226.657 0 229.424C0 232.19 2.11306 234.306 4.8763 234.306C7.63954 234.306 9.7526 232.19 9.7526 229.424C9.7526 226.657 7.63954 224.541 4.8763 224.541ZM4.8763 320.235C2.11306 320.235 0 322.351 0 325.118C0 327.884 2.11306 330 4.8763 330C7.63954 330 9.7526 327.884 9.7526 325.118C9.7526 322.351 7.63954 320.235 4.8763 320.235ZM51.0386 272.388C48.2754 272.388 46.1623 274.504 46.1623 277.271C46.1623 280.037 48.2754 282.153 51.0386 282.153C53.8018 282.153 55.9149 280.037 55.9149 277.271C55.9149 274.504 53.8018 272.388 51.0386 272.388ZM51.0386 320.235C48.2754 320.235 46.1623 322.351 46.1623 325.118C46.1623 327.884 48.2754 330 51.0386 330C53.8018 330 55.9149 327.884 55.9149 325.118C55.9149 322.351 53.8018 320.235 51.0386 320.235ZM4.8763 128.847C2.11306 128.847 0 130.963 0 133.729C0 136.496 2.11306 138.612 4.8763 138.612C7.63954 138.612 9.7526 136.496 9.7526 133.729C9.7526 130.963 7.63954 128.847 4.8763 128.847ZM4.8763 81C2.11306 81 0 83.1157 0 85.8824C0 88.649 2.11306 90.7647 4.8763 90.7647C7.63954 90.7647 9.7526 88.649 9.7526 85.8824C9.7526 83.1157 7.63954 81 4.8763 81ZM97.3635 81C94.6002 81 92.4872 83.1157 92.4872 85.8824C92.4872 88.649 94.6002 90.7647 97.3635 90.7647C100.127 90.7647 102.24 88.649 102.24 85.8824C102.24 83.1157 99.9642 81 97.3635 81ZM236.013 272.388C233.25 272.388 231.137 274.504 231.137 277.271C231.137 280.037 233.25 282.153 236.013 282.153C238.776 282.153 240.889 280.037 240.889 277.271C240.889 274.504 238.614 272.388 236.013 272.388ZM189.688 81C186.925 81 184.812 83.1157 184.812 85.8824C184.812 88.649 186.925 90.7647 189.688 90.7647C192.451 90.7647 194.564 88.649 194.564 85.8824C194.564 83.1157 192.451 81 189.688 81ZM236.013 320.235C233.25 320.235 231.137 322.351 231.137 325.118C231.137 327.884 233.25 330 236.013 330C238.776 330 240.889 327.884 240.889 325.118C240.889 322.351 238.614 320.235 236.013 320.235ZM189.688 128.847C186.925 128.847 184.812 130.963 184.812 133.729C184.812 136.496 186.925 138.612 189.688 138.612C192.451 138.612 194.564 136.496 194.564 133.729C194.564 130.963 192.451 128.847 189.688 128.847ZM236.013 224.541C233.25 224.541 231.137 226.657 231.137 229.424C231.137 232.19 233.25 234.306 236.013 234.306C238.776 234.306 240.889 232.19 240.889 229.424C240.889 226.657 238.614 224.541 236.013 224.541ZM236.013 128.847C233.25 128.847 231.137 130.963 231.137 133.729C231.137 136.496 233.25 138.612 236.013 138.612C238.776 138.612 240.889 136.496 240.889 133.729C240.889 130.963 238.614 128.847 236.013 128.847ZM189.688 176.694C186.925 176.694 184.812 178.81 184.812 181.576C184.812 184.343 186.925 186.459 189.688 186.459C192.451 186.459 194.564 184.343 194.564 181.576C194.564 178.81 192.451 176.694 189.688 176.694ZM236.013 176.694C233.25 176.694 231.137 178.81 231.137 181.576C231.137 184.343 233.25 186.459 236.013 186.459C238.776 186.459 240.889 184.343 240.889 181.576C240.889 178.81 238.614 176.694 236.013 176.694ZM143.526 176.694C140.763 176.694 138.649 178.81 138.649 181.576C138.649 184.343 140.763 186.459 143.526 186.459C146.289 186.459 148.402 184.343 148.402 181.576C148.402 178.81 146.289 176.694 143.526 176.694ZM143.526 224.541C140.763 224.541 138.649 226.657 138.649 229.424C138.649 232.19 140.763 234.306 143.526 234.306C146.289 234.306 148.402 232.19 148.402 229.424C148.402 226.657 146.289 224.541 143.526 224.541ZM143.526 320.235C140.763 320.235 138.649 322.351 138.649 325.118C138.649 327.884 140.763 330 143.526 330C146.289 330 148.402 327.884 148.402 325.118C148.402 322.351 146.289 320.235 143.526 320.235ZM143.526 128.847C140.763 128.847 138.649 130.963 138.649 133.729C138.649 136.496 140.763 138.612 143.526 138.612C146.289 138.612 148.402 136.496 148.402 133.729C148.402 130.963 146.289 128.847 143.526 128.847ZM143.526 272.388C140.763 272.388 138.649 274.504 138.649 277.271C138.649 280.037 140.763 282.153 143.526 282.153C146.289 282.153 148.402 280.037 148.402 277.271C148.402 274.504 146.289 272.388 143.526 272.388ZM189.688 272.388C186.925 272.388 184.812 274.504 184.812 277.271C184.812 280.037 186.925 282.153 189.688 282.153C192.451 282.153 194.564 280.037 194.564 277.271C194.564 274.504 192.451 272.388 189.688 272.388ZM189.688 224.541C186.925 224.541 184.812 226.657 184.812 229.424C184.812 232.19 186.925 234.306 189.688 234.306C192.451 234.306 194.564 232.19 194.564 229.424C194.564 226.657 192.451 224.541 189.688 224.541ZM189.688 320.235C186.925 320.235 184.812 322.351 184.812 325.118C184.812 327.884 186.925 330 189.688 330C192.451 330 194.564 327.884 194.564 325.118C194.564 322.351 192.451 320.235 189.688 320.235ZM143.526 81C140.763 81 138.649 83.1157 138.649 85.8824C138.649 88.649 140.763 90.7647 143.526 90.7647C146.289 90.7647 148.402 88.649 148.402 85.8824C148.402 83.1157 146.289 81 143.526 81Z" fill="white"/>
<path d="M273 441C273 402.34 304.34 371 343 371H713C751.66 371 783 402.34 783 441V649H273V441Z" fill="white"/>
<circle cx="168" cy="469" r="55" fill="white"/>
<circle cx="383" cy="469" r="55" fill="#D9D9D9"/>
<circle cx="585" cy="469" r="55" fill="#D9D9D9"/>
<path d="M385.512 299V265.4H391.752V293.72H409.32V299H385.512ZM423.084 299.336C420.236 299.336 417.74 298.776 415.596 297.656C413.484 296.504 411.836 294.936 410.652 292.952C409.5 290.968 408.924 288.712 408.924 286.184C408.924 283.624 409.484 281.368 410.604 279.416C411.756 277.432 413.324 275.88 415.308 274.76C417.324 273.64 419.612 273.08 422.172 273.08C424.668 273.08 426.892 273.624 428.844 274.712C430.796 275.8 432.332 277.336 433.452 279.32C434.572 281.304 435.132 283.64 435.132 286.328C435.132 286.584 435.116 286.872 435.084 287.192C435.084 287.512 435.068 287.816 435.036 288.104H413.676V284.12H431.868L429.516 285.368C429.548 283.896 429.244 282.6 428.604 281.48C427.964 280.36 427.084 279.48 425.964 278.84C424.876 278.2 423.612 277.88 422.172 277.88C420.7 277.88 419.404 278.2 418.284 278.84C417.196 279.48 416.332 280.376 415.692 281.528C415.084 282.648 414.78 283.976 414.78 285.512V286.472C414.78 288.008 415.132 289.368 415.836 290.552C416.54 291.736 417.532 292.648 418.812 293.288C420.092 293.928 421.564 294.248 423.228 294.248C424.668 294.248 425.964 294.024 427.116 293.576C428.268 293.128 429.292 292.424 430.188 291.464L433.404 295.16C432.252 296.504 430.796 297.544 429.036 298.28C427.308 298.984 425.324 299.336 423.084 299.336ZM453.039 273.08C455.087 273.08 456.911 273.48 458.511 274.28C460.143 275.08 461.423 276.312 462.351 277.976C463.279 279.608 463.743 281.72 463.743 284.312V299H457.743V285.08C457.743 282.808 457.199 281.112 456.111 279.992C455.055 278.872 453.567 278.312 451.647 278.312C450.239 278.312 448.991 278.6 447.903 279.176C446.815 279.752 445.967 280.616 445.359 281.768C444.783 282.888 444.495 284.312 444.495 286.04V299H438.495V273.368H444.207V280.28L443.199 278.168C444.095 276.536 445.391 275.288 447.087 274.424C448.815 273.528 450.799 273.08 453.039 273.08ZM480.618 308.648C478.25 308.648 475.93 308.328 473.658 307.688C471.418 307.08 469.578 306.184 468.138 305L470.826 300.488C471.946 301.416 473.354 302.152 475.05 302.696C476.778 303.272 478.522 303.56 480.282 303.56C483.098 303.56 485.162 302.904 486.474 301.592C487.786 300.312 488.442 298.376 488.442 295.784V291.224L488.922 285.416L488.73 279.608V273.368H494.442V295.112C494.442 299.752 493.258 303.16 490.89 305.336C488.522 307.544 485.098 308.648 480.618 308.648ZM479.85 297.848C477.418 297.848 475.21 297.336 473.226 296.312C471.274 295.256 469.722 293.8 468.57 291.944C467.45 290.088 466.89 287.912 466.89 285.416C466.89 282.952 467.45 280.792 468.57 278.936C469.722 277.08 471.274 275.64 473.226 274.616C475.21 273.592 477.418 273.08 479.85 273.08C482.026 273.08 483.978 273.512 485.706 274.376C487.434 275.24 488.81 276.584 489.834 278.408C490.89 280.232 491.418 282.568 491.418 285.416C491.418 288.264 490.89 290.616 489.834 292.472C488.81 294.296 487.434 295.656 485.706 296.552C483.978 297.416 482.026 297.848 479.85 297.848ZM480.762 292.76C482.266 292.76 483.61 292.456 484.794 291.848C485.978 291.208 486.89 290.344 487.53 289.256C488.202 288.136 488.538 286.856 488.538 285.416C488.538 283.976 488.202 282.712 487.53 281.624C486.89 280.504 485.978 279.656 484.794 279.08C483.61 278.472 482.266 278.168 480.762 278.168C479.258 278.168 477.898 278.472 476.682 279.08C475.498 279.656 474.57 280.504 473.898 281.624C473.258 282.712 472.938 283.976 472.938 285.416C472.938 286.856 473.258 288.136 473.898 289.256C474.57 290.344 475.498 291.208 476.682 291.848C477.898 292.456 479.258 292.76 480.762 292.76ZM510.778 299.336C508.602 299.336 506.682 298.936 505.018 298.136C503.354 297.304 502.058 296.056 501.13 294.392C500.202 292.696 499.738 290.568 499.738 288.008V273.368H505.738V287.192C505.738 289.496 506.25 291.224 507.274 292.376C508.33 293.496 509.818 294.056 511.738 294.056C513.146 294.056 514.362 293.768 515.386 293.192C516.442 292.616 517.258 291.752 517.834 290.6C518.442 289.448 518.746 288.024 518.746 286.328V273.368H524.746V299H519.034V292.088L520.042 294.2C519.178 295.864 517.914 297.144 516.25 298.04C514.586 298.904 512.762 299.336 510.778 299.336ZM545.994 299V293.816L545.658 292.712V283.64C545.658 281.88 545.13 280.52 544.074 279.56C543.018 278.568 541.418 278.072 539.274 278.072C537.834 278.072 536.41 278.296 535.002 278.744C533.626 279.192 532.458 279.816 531.498 280.616L529.146 276.248C530.522 275.192 532.154 274.408 534.042 273.896C535.962 273.352 537.946 273.08 539.994 273.08C543.706 273.08 546.57 273.976 548.586 275.768C550.634 277.528 551.658 280.264 551.658 283.976V299H545.994ZM537.93 299.336C536.01 299.336 534.33 299.016 532.89 298.376C531.45 297.704 530.33 296.792 529.53 295.64C528.762 294.456 528.378 293.128 528.378 291.656C528.378 290.216 528.714 288.92 529.386 287.768C530.09 286.616 531.226 285.704 532.794 285.032C534.362 284.36 536.442 284.024 539.034 284.024H546.474V288.008H539.466C537.418 288.008 536.042 288.344 535.338 289.016C534.634 289.656 534.282 290.456 534.282 291.416C534.282 292.504 534.714 293.368 535.578 294.008C536.442 294.648 537.642 294.968 539.178 294.968C540.65 294.968 541.962 294.632 543.114 293.96C544.298 293.288 545.146 292.296 545.658 290.984L546.666 294.584C546.09 296.088 545.05 297.256 543.546 298.088C542.074 298.92 540.202 299.336 537.93 299.336ZM554.318 308.648C553.198 308.648 552.142 308.52 551.15 308.264C550.126 308.04 549.262 307.672 548.558 307.16L550.286 302.696C551.214 303.368 552.382 303.704 553.79 303.704C554.878 303.704 555.726 303.352 556.334 302.648C556.942 301.976 557.246 300.968 557.246 299.624V273.368H563.246V299.48C563.246 302.296 562.462 304.52 560.894 306.152C559.358 307.816 557.166 308.648 554.318 308.648ZM560.222 269.144C559.102 269.144 558.174 268.792 557.438 268.088C556.734 267.384 556.382 266.536 556.382 265.544C556.382 264.52 556.734 263.672 557.438 263C558.174 262.296 559.102 261.944 560.222 261.944C561.342 261.944 562.254 262.28 562.958 262.952C563.694 263.592 564.062 264.408 564.062 265.4C564.062 266.456 563.71 267.352 563.006 268.088C562.302 268.792 561.374 269.144 560.222 269.144ZM580.762 299.336C577.914 299.336 575.418 298.776 573.274 297.656C571.162 296.504 569.514 294.936 568.33 292.952C567.178 290.968 566.602 288.712 566.602 286.184C566.602 283.624 567.162 281.368 568.282 279.416C569.434 277.432 571.002 275.88 572.986 274.76C575.002 273.64 577.29 273.08 579.85 273.08C582.346 273.08 584.57 273.624 586.522 274.712C588.474 275.8 590.01 277.336 591.13 279.32C592.25 281.304 592.81 283.64 592.81 286.328C592.81 286.584 592.794 286.872 592.762 287.192C592.762 287.512 592.746 287.816 592.714 288.104H571.354V284.12H589.546L587.194 285.368C587.226 283.896 586.922 282.6 586.282 281.48C585.642 280.36 584.762 279.48 583.642 278.84C582.554 278.2 581.29 277.88 579.85 277.88C578.378 277.88 577.082 278.2 575.962 278.84C574.874 279.48 574.01 280.376 573.37 281.528C572.762 282.648 572.458 283.976 572.458 285.512V286.472C572.458 288.008 572.81 289.368 573.514 290.552C574.218 291.736 575.21 292.648 576.49 293.288C577.77 293.928 579.242 294.248 580.906 294.248C582.346 294.248 583.642 294.024 584.794 293.576C585.946 293.128 586.97 292.424 587.866 291.464L591.082 295.16C589.93 296.504 588.474 297.544 586.714 298.28C584.986 298.984 583.002 299.336 580.762 299.336ZM604.094 299.336C601.95 299.336 599.886 299.064 597.902 298.52C595.95 297.944 594.398 297.256 593.246 296.456L595.55 291.896C596.702 292.632 598.078 293.24 599.678 293.72C601.278 294.2 602.878 294.44 604.478 294.44C606.366 294.44 607.726 294.184 608.558 293.672C609.422 293.16 609.854 292.472 609.854 291.608C609.854 290.904 609.566 290.376 608.99 290.024C608.414 289.64 607.662 289.352 606.734 289.16C605.806 288.968 604.766 288.792 603.614 288.632C602.494 288.472 601.358 288.264 600.206 288.008C599.086 287.72 598.062 287.32 597.134 286.808C596.206 286.264 595.454 285.544 594.878 284.648C594.302 283.752 594.014 282.568 594.014 281.096C594.014 279.464 594.478 278.056 595.406 276.872C596.334 275.656 597.63 274.728 599.294 274.088C600.99 273.416 602.99 273.08 605.294 273.08C607.022 273.08 608.766 273.272 610.526 273.656C612.286 274.04 613.742 274.584 614.894 275.288L612.59 279.848C611.374 279.112 610.142 278.616 608.894 278.36C607.678 278.072 606.462 277.928 605.246 277.928C603.422 277.928 602.062 278.2 601.166 278.744C600.302 279.288 599.87 279.976 599.87 280.808C599.87 281.576 600.158 282.152 600.734 282.536C601.31 282.92 602.062 283.224 602.99 283.448C603.918 283.672 604.942 283.864 606.062 284.024C607.214 284.152 608.35 284.36 609.47 284.648C610.59 284.936 611.614 285.336 612.542 285.848C613.502 286.328 614.27 287.016 614.846 287.912C615.422 288.808 615.71 289.976 615.71 291.416C615.71 293.016 615.23 294.408 614.27 295.592C613.342 296.776 612.014 297.704 610.286 298.376C608.558 299.016 606.494 299.336 604.094 299.336Z" fill="white"/>
<path d="M385.59 433C389.55 442.163 371.392 447.822 369.705 455.455C368.158 462.469 380.494 470.62 380.505 470.62C378.632 467.717 377.254 465.327 375.375 460.81C372.197 453.171 394.731 446.258 385.59 433ZM397.65 445.69C397.65 445.69 381.72 446.714 380.91 456.895C380.55 461.429 385.101 463.814 385.23 467.11C385.337 469.804 382.53 472.06 382.53 472.06C382.53 472.06 387.637 471.087 389.235 466.975C391.007 462.413 385.781 459.331 386.31 455.68C386.816 452.187 397.65 445.69 397.65 445.69ZM372.63 469.225C372.63 469.225 358.05 469.017 358.05 473.14C358.05 477.449 377.136 477.769 390.765 475.12C390.765 475.12 394.387 472.628 395.355 471.7C386.422 473.522 366.06 473.725 366.06 472.15C366.06 470.699 372.63 469.225 372.63 469.225ZM400.665 469.225C399.236 469.337 397.695 469.889 396.3 470.89C399.585 470.181 402.375 472.217 402.375 474.535C402.375 479.755 394.815 484.66 394.815 484.66C394.815 484.66 406.515 483.332 406.515 474.76C406.515 470.867 403.809 468.977 400.665 469.225ZM369.12 477.235C366.881 477.235 363.54 478.99 363.54 480.655C363.54 484.002 380.37 486.578 392.835 481.69L388.515 479.035C380.066 481.741 364.507 480.857 369.12 477.235ZM371.19 484.75C368.124 484.75 366.105 486.601 366.105 487.99C366.105 492.287 384.414 492.721 391.665 488.35L387.075 485.425C381.658 487.714 368.062 488.063 371.19 484.75ZM360.975 488.62C355.98 488.519 352.74 490.763 352.74 492.625C352.74 502.525 403.86 502.069 403.86 491.95C403.86 490.268 401.919 489.452 401.205 489.07C405.384 498.745 359.355 497.974 359.355 492.265C359.355 490.966 362.741 489.722 365.88 490.33L363.225 488.8C362.443 488.682 361.689 488.637 360.975 488.62ZM409.26 495.28C401.486 502.649 381.787 505.321 361.965 500.77C381.782 508.881 409.164 504.331 409.26 495.28Z" fill="#2F2F2F"/>
<path d="M607.8 441.133H562.2C559.401 441.133 557.133 443.401 557.133 446.2V491.8C557.133 494.599 559.401 496.867 562.2 496.867H607.8C610.599 496.867 612.867 494.599 612.867 491.8V446.2C612.867 443.401 610.599 441.133 607.8 441.133ZM585 482.629C585 487.131 582.239 489.654 577.653 489.654C573.124 489.654 570.238 487.007 570.238 482.726H575.145C575.158 484.314 576.105 485.317 577.57 485.317C579.075 485.317 579.883 484.37 579.883 482.586V468.995H585V482.629ZM598.885 489.654C593.796 489.654 590.594 487.258 590.507 483.382H595.387C595.511 484.846 596.972 485.778 599.093 485.778C601.003 485.778 602.315 484.859 602.315 483.534C602.315 482.419 601.436 481.819 599.136 481.36L596.489 480.831C592.808 480.134 590.913 478.128 590.913 474.963C590.913 471.032 594.064 468.453 598.913 468.453C603.625 468.453 606.885 471.004 606.969 474.725H602.244C602.133 473.304 600.78 472.314 598.979 472.314C597.183 472.314 596 473.165 596 474.502C596 475.604 596.891 476.245 599.009 476.663L601.598 477.165C605.573 477.932 607.357 479.729 607.357 482.921C607.359 487.118 604.155 489.654 598.885 489.654Z" fill="#2F2F2F"/>
<path d="M414.303 53.8841C414.418 46.6936 412.818 38.1431 409.485 28.1109L406.872 20.2438L403.322 27.7245C403.132 28.1244 402.915 28.5159 402.688 28.9023C396.857 23.8331 389.29 20.75 381 20.75C362.59 20.75 347.667 35.8599 347.667 54.5C347.667 73.1401 362.59 88.25 381 88.25C399.41 88.25 414.333 73.1401 414.333 54.5C414.333 54.2925 414.307 54.0916 414.303 53.8841Z" fill="#2F2F2F"/>
<path d="M406.642 68.9416C401.437 76.2012 392.223 76.5911 383.552 76.4375H372.25H369.02C376.4 73.7493 380.792 73.1097 385.277 70.7C393.723 66.2028 402.073 56.363 403.812 46.1266C400.595 55.9749 390.847 64.436 381.963 67.8768C375.877 70.2275 364.883 72.509 364.883 72.509L364.438 72.2643C356.955 68.4523 356.728 51.4861 370.333 46.0085C376.29 43.6072 381.988 44.9268 388.423 43.3203C395.293 41.6126 403.24 36.2193 406.473 29.1875C410.093 40.4381 414.45 58.0539 406.642 68.9416ZM367.113 78.8759C366.643 79.4666 365.925 79.8125 365.175 79.8125C363.803 79.8125 362.683 78.6701 362.683 77.2812C362.683 75.8924 363.812 74.75 365.175 74.75C365.743 74.75 366.303 74.9491 366.743 75.317C367.81 76.1928 367.977 77.7959 367.113 78.8759Z" fill="#D9D9D9"/>
<circle cx="585" cy="55" r="55" fill="#D9D9D9"/>
<g clip-path="url(#clip0_74_383)">
<path d="M585.989 89.0002C585.696 89.0002 585.404 88.9154 585.146 88.7522L582.463 87.0035C582.062 86.7568 582.258 86.6696 582.39 86.6193C582.924 86.4133 583.033 86.3668 583.603 86.0103C583.663 85.9726 583.742 85.9859 583.803 86.0258L585.864 87.3722C585.939 87.4165 586.045 87.4165 586.114 87.3722L594.151 82.2654C594.225 82.2189 594.274 82.1236 594.274 82.0262V71.8169C594.274 71.715 594.225 71.6242 594.149 71.5733L586.115 66.4708C586.041 66.4221 585.942 66.4221 585.868 66.4708L577.835 71.5733C577.757 71.622 577.708 71.7172 577.708 71.8147V82.024C577.708 82.1214 577.756 82.2144 577.832 82.2609L580.033 83.6606C581.228 84.3183 581.959 83.5432 581.959 82.7637V72.6872C581.959 72.5433 582.061 72.4325 582.192 72.4325H583.21C583.337 72.4325 583.442 72.5433 583.442 72.6872V82.7681C583.442 84.5221 582.572 85.5297 581.061 85.5297C580.597 85.5297 580.231 85.5297 579.209 84.976L577.1 83.6384C576.579 83.3062 576.257 82.6861 576.257 82.024V71.8147C576.257 71.1503 576.579 70.5302 577.1 70.2024L585.146 65.0934C585.655 64.7767 586.331 64.7767 586.836 65.0934L594.871 70.2047C595.39 70.5346 595.714 71.1525 595.714 71.8169V82.0262C595.714 82.6884 595.39 83.3062 594.871 83.6384L586.836 88.7475C586.578 88.9114 586.286 88.9956 585.989 88.9956" fill="#2F2F2F"/>
<path d="M588.472 81.9653C584.955 81.9653 584.218 80.1883 584.218 78.6979C584.218 78.5561 584.322 78.4432 584.451 78.4432H585.489C585.604 78.4432 585.7 78.5351 585.718 78.6598C585.875 79.8242 586.342 80.4115 588.469 80.4115C590.163 80.4115 590.883 79.9903 590.883 79.0015C590.883 78.4324 590.678 78.0094 588.046 77.7259C585.845 77.4867 584.485 76.953 584.485 75.0152C584.485 73.2302 585.853 72.1672 588.145 72.1672C590.718 72.1672 591.993 73.1505 592.154 75.2633C592.16 75.3363 592.136 75.4072 592.092 75.4604C592.048 75.5113 591.985 75.5423 591.921 75.5423H590.877C590.768 75.5423 590.674 75.4581 590.651 75.343C590.4 74.1183 589.792 73.7263 588.141 73.7263C586.292 73.7263 586.076 74.435 586.076 74.9665C586.076 75.6109 586.33 75.7992 588.825 76.1624C591.295 76.5234 592.468 77.0327 592.468 78.9439C592.468 80.8706 591.008 81.9757 588.46 81.9757M598.25 71.1485H598.52C598.741 71.1485 598.783 70.978 598.783 70.8783C598.783 70.617 598.621 70.617 598.53 70.617H598.252L598.25 71.1485ZM597.922 70.3114H598.52C598.725 70.3114 599.127 70.3114 599.127 70.8163C599.127 71.1685 598.922 71.2415 598.8 71.2858C599.039 71.3035 599.055 71.4763 599.087 71.7199C599.103 71.8727 599.13 72.1362 599.178 72.2248H598.81C598.8 72.1362 598.743 71.649 598.743 71.6224C598.719 71.5139 598.685 71.4608 598.562 71.4608H598.258V72.227H597.922V70.3114ZM597.204 71.2637C597.204 72.0565 597.786 72.6987 598.5 72.6987C599.22 72.6987 599.801 72.0432 599.801 71.2637C599.801 70.4686 599.212 69.8375 598.498 69.8375C597.794 69.8375 597.202 70.4598 597.202 71.2615M600.051 71.2681C600.051 72.2071 599.353 72.9734 598.502 72.9734C597.657 72.9734 596.953 72.216 596.953 71.2681C596.953 70.3025 597.673 69.5629 598.502 69.5629C599.337 69.5629 600.049 70.3048 600.049 71.2681" fill="#2F2F2F"/>
<path fill-rule="evenodd" clip-rule="evenodd" d="M561.1 49.0532C561.1 48.6457 560.905 48.2714 560.586 48.0688L552.064 42.6718C551.92 42.5788 551.759 42.5301 551.596 42.5234H551.508C551.344 42.5301 551.183 42.5788 551.037 42.6718L542.516 48.0688C542.198 48.2725 542 48.6468 542 49.0543L542.019 63.5909C542.019 63.7925 542.114 63.9807 542.274 64.0804C542.431 64.1867 542.629 64.1867 542.785 64.0804L547.851 60.8869C548.171 60.6774 548.366 60.3071 548.366 59.9036V53.1125C548.366 52.7073 548.562 52.333 548.88 52.1315L551.037 50.7642C551.197 50.6623 551.373 50.6118 551.552 50.6118C551.729 50.6118 551.908 50.6619 552.064 50.764L554.22 52.1308C554.539 52.3323 554.735 52.7066 554.735 53.1119V59.9025C554.735 60.3056 554.933 60.6776 555.251 60.8858L560.314 64.077C560.473 64.1811 560.67 64.1811 560.829 64.077C560.985 63.9774 561.084 63.7891 561.084 63.5876L561.1 49.0532ZM601.311 56.6218C601.311 56.723 601.263 56.8167 601.183 56.8667L598.256 58.7239C598.176 58.7742 598.078 58.7742 597.999 58.7239L595.072 56.8667C594.991 56.8165 594.943 56.7228 594.943 56.6218V52.9022C594.943 52.8007 594.991 52.7073 595.07 52.6563L597.995 50.7961C598.075 50.7451 598.174 50.7451 598.254 50.7961L601.182 52.6563C601.262 52.7073 601.31 52.8007 601.31 52.9022L601.311 56.6218ZM602.102 29.0717C601.942 28.9738 601.748 28.9765 601.59 29.0777C601.433 29.1796 601.336 29.3656 601.336 29.5671V43.962C601.336 44.1038 601.268 44.2344 601.157 44.3053C601.046 44.3762 600.908 44.3762 600.796 44.3053L598.662 42.9519C598.344 42.7495 597.952 42.7495 597.633 42.9519L589.109 48.3673C588.79 48.5688 588.594 48.9431 588.594 49.3462V60.18C588.594 60.5853 588.79 60.9573 589.109 61.1611L597.633 66.5802C597.952 66.7817 598.344 66.7817 598.663 66.5802L607.187 61.1589C607.505 60.9551 607.702 60.5831 607.702 60.1778V33.1774C607.702 32.7663 607.499 32.3883 607.173 32.1874L602.102 29.0717ZM630.488 52.8043C630.805 52.6019 631 52.228 631 51.825V49.1993C631 48.7954 630.805 48.4227 630.488 48.2194L622.018 42.8069C621.698 42.6031 621.305 42.6031 620.985 42.8069L612.463 48.2216C612.143 48.4253 611.948 48.7974 611.948 49.2027V60.0321C611.948 60.4396 612.147 60.816 612.467 61.0176L620.935 66.3304C621.247 66.5275 621.629 66.5297 621.945 66.337L627.067 63.2034C627.228 63.1037 627.331 62.9155 627.331 62.7117C627.331 62.508 627.232 62.3175 627.071 62.2179L618.497 56.801C618.336 56.7013 618.237 56.5131 618.237 56.3115V52.9143C618.237 52.7115 618.334 52.5246 618.495 52.4236L621.163 50.7294C621.321 50.6275 621.517 50.6275 621.676 50.7294L624.345 52.4236C624.504 52.5232 624.603 52.7115 624.603 52.913V55.5838C624.603 55.7854 624.701 55.9736 624.86 56.0755C625.019 56.1751 625.216 56.1751 625.375 56.0732L630.488 52.8043Z" fill="#333333"/>
<path fill-rule="evenodd" clip-rule="evenodd" d="M621.377 52.2976C621.437 52.2584 621.513 52.2584 621.574 52.2976L623.209 53.3363C623.271 53.3753 623.308 53.447 623.308 53.5245V55.604C623.308 55.6816 623.271 55.7533 623.209 55.7923L621.574 56.8309C621.513 56.8701 621.437 56.8701 621.377 56.8309L619.742 55.7923C619.68 55.7533 619.641 55.6816 619.641 55.604V53.5245C619.641 53.447 619.678 53.3753 619.74 53.3363L621.377 52.2976Z" fill="#2F2F2F"/>
<mask id="mask0_74_383" style="mask-type:luminance" maskUnits="userSpaceOnUse" x="565" y="42" width="20" height="25">
<path d="M574.336 42.861L565.86 48.2462C565.542 48.4478 565.348 48.8198 565.348 49.222V60C565.348 60.4024 565.542 60.7742 565.86 60.9758L574.337 66.3652C574.653 66.5661 575.044 66.5661 575.361 66.3652L583.836 60.9758C584.152 60.7742 584.347 60.4022 584.347 60V49.222C584.347 48.8198 584.152 48.4478 583.834 48.2462L575.36 42.861C575.201 42.7607 575.024 42.7104 574.847 42.7104C574.67 42.7104 574.493 42.7607 574.334 42.861" fill="white"/>
</mask>
<g mask="url(#mask0_74_383)">
<path d="M592.912 47.3318L569.028 34.4451L556.782 61.9447L580.665 74.8321L592.912 47.3318Z" fill="#2F2F2F"/>
</g>
<mask id="mask1_74_383" style="mask-type:luminance" maskUnits="userSpaceOnUse" x="565" y="42" width="20" height="25">
<path d="M565.558 60.6843C565.639 60.8001 565.74 60.9004 565.859 60.9757L573.13 65.5987L574.342 66.365C574.523 66.4801 574.729 66.5289 574.932 66.5122C574.999 66.5063 575.067 66.4923 575.133 66.4717L584.073 48.4537C584.004 48.3718 583.924 48.3031 583.834 48.2455L578.284 44.7177L575.351 42.8596C575.267 42.8065 575.177 42.7688 575.085 42.7422L565.558 60.6843Z" fill="white"/>
</mask>
<g mask="url(#mask1_74_383)">
<path d="M555.231 51.1433L572.096 76.2686L594.399 58.1297L577.534 33.0051L555.231 51.1433Z" fill="#2F2F2F"/>
</g>
<mask id="mask2_74_383" style="mask-type:luminance" maskUnits="userSpaceOnUse" x="565" y="42" width="20" height="25">
<path d="M574.746 42.7166C574.603 42.7321 574.464 42.7808 574.336 42.861L565.884 48.2307L574.998 66.5034C575.125 66.4835 575.25 66.437 575.362 66.3652L583.838 60.9758C584.1 60.8088 584.279 60.5262 584.333 60.206L575.042 42.735C574.974 42.7202 574.906 42.7124 574.835 42.7124C574.807 42.7124 574.779 42.714 574.751 42.7168" fill="white"/>
</mask>
<g mask="url(#mask2_74_383)">
<path d="M565.884 42.7124V66.5039H584.329V42.7124H565.884Z" fill="#2F2F2F"/>
</g>
</g>
<path d="M153.197 48.336C151.821 48.336 150.493 48.168 149.213 47.832C147.949 47.48 146.917 47.032 146.117 46.488L147.677 42.984C148.429 43.464 149.293 43.864 150.269 44.184C151.261 44.488 152.245 44.64 153.221 44.64C153.877 44.64 154.405 44.584 154.805 44.472C155.205 44.344 155.493 44.184 155.669 43.992C155.861 43.784 155.957 43.544 155.957 43.272C155.957 42.888 155.781 42.584 155.429 42.36C155.077 42.136 154.621 41.952 154.061 41.808C153.501 41.664 152.877 41.52 152.189 41.376C151.517 41.232 150.837 41.048 150.149 40.824C149.477 40.6 148.861 40.312 148.301 39.96C147.741 39.592 147.285 39.12 146.933 38.544C146.581 37.952 146.405 37.208 146.405 36.312C146.405 35.304 146.677 34.392 147.221 33.576C147.781 32.76 148.613 32.104 149.717 31.608C150.821 31.112 152.197 30.864 153.845 30.864C154.949 30.864 156.029 30.992 157.085 31.248C158.157 31.488 159.109 31.848 159.941 32.328L158.477 35.856C157.677 35.424 156.885 35.104 156.101 34.896C155.317 34.672 154.557 34.56 153.821 34.56C153.165 34.56 152.637 34.632 152.237 34.776C151.837 34.904 151.549 35.08 151.373 35.304C151.197 35.528 151.109 35.784 151.109 36.072C151.109 36.44 151.277 36.736 151.613 36.96C151.965 37.168 152.421 37.344 152.981 37.488C153.557 37.616 154.181 37.752 154.853 37.896C155.541 38.04 156.221 38.224 156.893 38.448C157.581 38.656 158.205 38.944 158.765 39.312C159.325 39.664 159.773 40.136 160.109 40.728C160.461 41.304 160.637 42.032 160.637 42.912C160.637 43.888 160.357 44.792 159.797 45.624C159.253 46.44 158.429 47.096 157.325 47.592C156.237 48.088 154.861 48.336 153.197 48.336ZM171.304 48.336C169.96 48.336 168.72 48.12 167.584 47.688C166.448 47.256 165.456 46.648 164.608 45.864C163.776 45.064 163.128 44.136 162.664 43.08C162.2 42.024 161.968 40.864 161.968 39.6C161.968 38.336 162.2 37.176 162.664 36.12C163.128 35.064 163.776 34.144 164.608 33.36C165.456 32.56 166.448 31.944 167.584 31.512C168.72 31.08 169.96 30.864 171.304 30.864C172.664 30.864 173.904 31.08 175.024 31.512C176.16 31.944 177.144 32.552 177.976 33.336C178.808 34.12 179.456 35.048 179.92 36.12C180.4 37.176 180.64 38.336 180.64 39.6C180.64 40.864 180.4 42.032 179.92 43.104C179.456 44.16 178.808 45.08 177.976 45.864C177.144 46.648 176.16 47.256 175.024 47.688C173.904 48.12 172.664 48.336 171.304 48.336ZM176.8 52.056C176.08 52.056 175.408 51.976 174.784 51.816C174.16 51.672 173.544 51.432 172.936 51.096C172.344 50.76 171.72 50.304 171.064 49.728C170.424 49.152 169.704 48.44 168.904 47.592L173.872 46.344C174.272 46.936 174.632 47.4 174.952 47.736C175.272 48.072 175.584 48.312 175.888 48.456C176.208 48.6 176.544 48.672 176.896 48.672C177.824 48.672 178.672 48.28 179.44 47.496L181.504 49.944C180.336 51.352 178.768 52.056 176.8 52.056ZM171.304 44.4C171.944 44.4 172.536 44.288 173.08 44.064C173.64 43.84 174.12 43.52 174.52 43.104C174.936 42.672 175.256 42.16 175.48 41.568C175.72 40.976 175.84 40.32 175.84 39.6C175.84 38.864 175.72 38.208 175.48 37.632C175.256 37.04 174.936 36.536 174.52 36.12C174.12 35.688 173.64 35.36 173.08 35.136C172.536 34.912 171.944 34.8 171.304 34.8C170.664 34.8 170.064 34.912 169.504 35.136C168.96 35.36 168.48 35.688 168.064 36.12C167.664 36.536 167.344 37.04 167.104 37.632C166.88 38.208 166.768 38.864 166.768 39.6C166.768 40.32 166.88 40.976 167.104 41.568C167.344 42.16 167.664 42.672 168.064 43.104C168.48 43.52 168.96 43.84 169.504 44.064C170.064 44.288 170.664 44.4 171.304 44.4ZM183.129 48V31.2H187.881V44.232H195.897V48H183.129ZM195.538 50.4L203.458 27.792H207.514L199.594 50.4H195.538ZM134.778 77V60.2H138.69L147.954 71.384H146.106V60.2H150.762V77H146.85L137.586 65.816H139.434V77H134.778ZM160.426 77.216C159.002 77.216 157.738 76.928 156.634 76.352C155.53 75.776 154.658 74.984 154.018 73.976C153.394 72.952 153.082 71.784 153.082 70.472C153.082 69.16 153.394 68 154.018 66.992C154.658 65.984 155.53 65.2 156.634 64.64C157.738 64.064 159.002 63.776 160.426 63.776C161.85 63.776 163.114 64.064 164.218 64.64C165.338 65.2 166.21 65.984 166.834 66.992C167.458 68 167.77 69.16 167.77 70.472C167.77 71.784 167.458 72.952 166.834 73.976C166.21 74.984 165.338 75.776 164.218 76.352C163.114 76.928 161.85 77.216 160.426 77.216ZM160.426 73.592C160.954 73.592 161.418 73.472 161.818 73.232C162.234 72.992 162.562 72.64 162.802 72.176C163.042 71.696 163.162 71.128 163.162 70.472C163.162 69.816 163.042 69.264 162.802 68.816C162.562 68.352 162.234 68 161.818 67.76C161.418 67.52 160.954 67.4 160.426 67.4C159.914 67.4 159.45 67.52 159.034 67.76C158.634 68 158.306 68.352 158.05 68.816C157.81 69.264 157.69 69.816 157.69 70.472C157.69 71.128 157.81 71.696 158.05 72.176C158.306 72.64 158.634 72.992 159.034 73.232C159.45 73.472 159.914 73.592 160.426 73.592ZM176.002 77.336C174.626 77.336 173.298 77.168 172.018 76.832C170.754 76.48 169.722 76.032 168.922 75.488L170.482 71.984C171.234 72.464 172.098 72.864 173.074 73.184C174.066 73.488 175.05 73.64 176.026 73.64C176.682 73.64 177.21 73.584 177.61 73.472C178.01 73.344 178.298 73.184 178.474 72.992C178.666 72.784 178.762 72.544 178.762 72.272C178.762 71.888 178.586 71.584 178.234 71.36C177.882 71.136 177.426 70.952 176.866 70.808C176.306 70.664 175.682 70.52 174.994 70.376C174.322 70.232 173.642 70.048 172.954 69.824C172.282 69.6 171.666 69.312 171.106 68.96C170.546 68.592 170.09 68.12 169.738 67.544C169.386 66.952 169.21 66.208 169.21 65.312C169.21 64.304 169.482 63.392 170.026 62.576C170.586 61.76 171.418 61.104 172.522 60.608C173.626 60.112 175.002 59.864 176.65 59.864C177.754 59.864 178.834 59.992 179.89 60.248C180.962 60.488 181.914 60.848 182.746 61.328L181.282 64.856C180.482 64.424 179.69 64.104 178.906 63.896C178.122 63.672 177.362 63.56 176.626 63.56C175.97 63.56 175.442 63.632 175.042 63.776C174.642 63.904 174.354 64.08 174.178 64.304C174.002 64.528 173.914 64.784 173.914 65.072C173.914 65.44 174.082 65.736 174.418 65.96C174.77 66.168 175.226 66.344 175.786 66.488C176.362 66.616 176.986 66.752 177.658 66.896C178.346 67.04 179.026 67.224 179.698 67.448C180.386 67.656 181.01 67.944 181.57 68.312C182.13 68.664 182.578 69.136 182.914 69.728C183.266 70.304 183.442 71.032 183.442 71.912C183.442 72.888 183.162 73.792 182.602 74.624C182.058 75.44 181.234 76.096 180.13 76.592C179.042 77.088 177.666 77.336 176.002 77.336ZM194.109 77.336C192.765 77.336 191.525 77.12 190.389 76.688C189.253 76.256 188.261 75.648 187.413 74.864C186.581 74.064 185.933 73.136 185.469 72.08C185.005 71.024 184.773 69.864 184.773 68.6C184.773 67.336 185.005 66.176 185.469 65.12C185.933 64.064 186.581 63.144 187.413 62.36C188.261 61.56 189.253 60.944 190.389 60.512C191.525 60.08 192.765 59.864 194.109 59.864C195.469 59.864 196.709 60.08 197.829 60.512C198.965 60.944 199.949 61.552 200.781 62.336C201.613 63.12 202.261 64.048 202.725 65.12C203.205 66.176 203.445 67.336 203.445 68.6C203.445 69.864 203.205 71.032 202.725 72.104C202.261 73.16 201.613 74.08 200.781 74.864C199.949 75.648 198.965 76.256 197.829 76.688C196.709 77.12 195.469 77.336 194.109 77.336ZM199.605 81.056C198.885 81.056 198.213 80.976 197.589 80.816C196.965 80.672 196.349 80.432 195.741 80.096C195.149 79.76 194.525 79.304 193.869 78.728C193.229 78.152 192.509 77.44 191.709 76.592L196.677 75.344C197.077 75.936 197.437 76.4 197.757 76.736C198.077 77.072 198.389 77.312 198.693 77.456C199.013 77.6 199.349 77.672 199.701 77.672C200.629 77.672 201.477 77.28 202.245 76.496L204.309 78.944C203.141 80.352 201.573 81.056 199.605 81.056ZM194.109 73.4C194.749 73.4 195.341 73.288 195.885 73.064C196.445 72.84 196.925 72.52 197.325 72.104C197.741 71.672 198.061 71.16 198.285 70.568C198.525 69.976 198.645 69.32 198.645 68.6C198.645 67.864 198.525 67.208 198.285 66.632C198.061 66.04 197.741 65.536 197.325 65.12C196.925 64.688 196.445 64.36 195.885 64.136C195.341 63.912 194.749 63.8 194.109 63.8C193.469 63.8 192.869 63.912 192.309 64.136C191.765 64.36 191.285 64.688 190.869 65.12C190.469 65.536 190.149 66.04 189.909 66.632C189.685 67.208 189.573 67.864 189.573 68.6C189.573 69.32 189.685 69.976 189.909 70.568C190.149 71.16 190.469 71.672 190.869 72.104C191.285 72.52 191.765 72.84 192.309 73.064C192.869 73.288 193.469 73.4 194.109 73.4ZM205.934 77V60.2H210.686V73.232H218.702V77H205.934Z" fill="#2F2F2F"/>
<g clip-path="url(#clip1_74_383)">
<path d="M174.61 465.927H181.673C181.837 465.927 181.994 465.862 182.111 465.746C182.227 465.631 182.293 465.474 182.293 465.31V459.02C182.293 458.856 182.228 458.698 182.112 458.582C181.996 458.465 181.838 458.4 181.673 458.4H174.61C174.447 458.4 174.29 458.465 174.174 458.581C174.058 458.696 173.993 458.853 173.993 459.017V465.31C173.993 465.65 174.27 465.927 174.61 465.927ZM164.763 447.827H171.823C171.988 447.827 172.146 447.761 172.262 447.645C172.378 447.529 172.443 447.371 172.443 447.207V440.913C172.443 440.749 172.377 440.593 172.261 440.477C172.144 440.361 171.987 440.297 171.823 440.297H164.763C164.6 440.297 164.443 440.362 164.327 440.477C164.212 440.593 164.147 440.75 164.147 440.913V447.207C164.147 447.547 164.42 447.827 164.763 447.827ZM164.763 456.877H171.823C171.988 456.876 172.145 456.81 172.261 456.694C172.377 456.578 172.443 456.421 172.443 456.257V449.967C172.443 449.803 172.377 449.646 172.261 449.53C172.144 449.415 171.987 449.35 171.823 449.35H164.763C164.6 449.35 164.443 449.415 164.327 449.531C164.212 449.646 164.147 449.803 164.147 449.967V456.257C164.147 456.597 164.42 456.873 164.763 456.877ZM154.997 456.877H162.063C162.227 456.875 162.383 456.809 162.497 456.693C162.612 456.577 162.677 456.42 162.677 456.257V449.967C162.677 449.803 162.612 449.646 162.496 449.531C162.38 449.415 162.224 449.35 162.06 449.35H155C154.837 449.35 154.68 449.415 154.564 449.531C154.448 449.646 154.383 449.803 154.383 449.967V456.257C154.383 456.597 154.66 456.873 155 456.877M145.12 456.877H152.183C152.347 456.876 152.504 456.81 152.62 456.694C152.735 456.578 152.8 456.42 152.8 456.257V449.967C152.8 449.803 152.735 449.646 152.619 449.531C152.504 449.415 152.347 449.35 152.183 449.35H145.12C144.956 449.35 144.799 449.415 144.683 449.53C144.567 449.646 144.501 449.803 144.5 449.967V456.257C144.5 456.597 144.78 456.873 145.12 456.877ZM164.763 465.927H171.823C171.987 465.927 172.144 465.862 172.261 465.746C172.377 465.631 172.443 465.474 172.443 465.31V459.02C172.443 458.856 172.378 458.698 172.262 458.582C172.146 458.465 171.988 458.4 171.823 458.4H164.763C164.6 458.4 164.443 458.465 164.327 458.581C164.212 458.696 164.147 458.853 164.147 459.017V465.31C164.147 465.65 164.42 465.927 164.763 465.927ZM154.997 465.927H162.063C162.226 465.926 162.382 465.86 162.497 465.745C162.612 465.629 162.677 465.473 162.677 465.31V459.02C162.677 458.939 162.662 458.859 162.631 458.784C162.6 458.709 162.555 458.641 162.498 458.583C162.442 458.525 162.374 458.48 162.299 458.448C162.224 458.417 162.144 458.4 162.063 458.4H154.997C154.834 458.401 154.678 458.466 154.563 458.582C154.448 458.697 154.383 458.854 154.383 459.017V465.31C154.383 465.65 154.66 465.927 155 465.927M145.12 465.927H152.183C152.347 465.927 152.504 465.862 152.619 465.746C152.735 465.63 152.8 465.474 152.8 465.31V459.02C152.8 458.939 152.785 458.859 152.754 458.784C152.724 458.709 152.679 458.641 152.622 458.583C152.565 458.525 152.497 458.48 152.422 458.448C152.348 458.417 152.268 458.4 152.187 458.4H145.12C144.956 458.4 144.798 458.465 144.682 458.582C144.565 458.698 144.5 458.856 144.5 459.02V465.31C144.5 465.65 144.78 465.927 145.12 465.927ZM135.387 465.927H142.453C142.616 465.926 142.772 465.86 142.887 465.745C143.002 465.629 143.067 465.473 143.067 465.31V459.02C143.067 458.939 143.052 458.859 143.021 458.784C142.99 458.709 142.945 458.641 142.888 458.583C142.832 458.525 142.764 458.48 142.689 458.448C142.614 458.417 142.534 458.4 142.453 458.4H135.387C135.224 458.401 135.068 458.466 134.953 458.582C134.838 458.697 134.773 458.854 134.773 459.017V465.31C134.773 465.65 135.043 465.927 135.387 465.927ZM207.21 461.967C206.993 461.797 204.97 460.267 200.697 460.267C199.57 460.27 198.443 460.367 197.33 460.557C196.503 454.89 191.82 452.123 191.61 452.003L190.463 451.34L189.71 452.43C188.763 453.89 188.077 455.503 187.67 457.197C186.903 460.43 187.37 463.47 189.013 466.067C187.03 467.173 183.847 467.443 183.2 467.467H130.503C129.842 467.468 129.207 467.73 128.739 468.197C128.27 468.665 128.006 469.298 128.003 469.96C127.942 474.576 128.723 479.165 130.31 483.5C132.127 488.26 134.827 491.767 138.343 493.913C142.277 496.323 148.677 497.703 155.927 497.703C159.203 497.713 162.47 497.417 165.693 496.817C170.17 495.994 174.477 494.429 178.437 492.187C181.703 490.297 184.637 487.893 187.137 485.067C191.31 480.34 193.797 475.077 195.647 470.4H196.383C200.957 470.4 203.767 468.57 205.317 467.037C206.347 466.06 207.15 464.87 207.673 463.55L208 462.59L207.21 461.967Z" fill="#2F2F2F"/>
</g>
<defs>
<clipPath id="clip0_74_383">
<rect width="89" height="60" fill="white" transform="translate(542 29)"/>
</clipPath>
<clipPath id="clip1_74_383">
<rect width="80" height="80" fill="white" transform="translate(128 429)"/>
</clipPath>
</defs>
</svg>
