<svg width="512" height="766" viewBox="0 0 512 766" fill="none" xmlns="http://www.w3.org/2000/svg">
<path d="M0 142H442C480.66 142 512 173.34 512 212V766H0V142Z" fill="#FF9E15"/>
<circle cx="78" cy="58" r="55" fill="#2F2F2F"/>
<circle cx="425" cy="55" r="55" fill="#2F2F2F"/>
<g clip-path="url(#clip0_74_382)">
<path d="M408.748 51.4176C408.748 52.3324 408.844 53.0742 409.012 53.6181C409.204 54.1621 409.444 54.7555 409.78 55.3983C409.9 55.5961 409.948 55.794 409.948 55.967C409.948 56.2143 409.804 56.4615 409.492 56.7088L407.979 57.7472C407.763 57.8956 407.547 57.9698 407.355 57.9698C407.115 57.9698 406.874 57.8461 406.634 57.6236C406.298 57.2527 406.01 56.8571 405.77 56.4615C405.53 56.0412 405.29 55.5714 405.025 55.0027C403.152 57.2775 400.799 58.4148 397.966 58.4148C395.948 58.4148 394.34 57.8214 393.163 56.6346C391.986 55.4478 391.386 53.8654 391.386 51.8874C391.386 49.7857 392.106 48.0797 393.571 46.794C395.036 45.5082 396.981 44.8654 399.454 44.8654C400.271 44.8654 401.111 44.9396 402 45.0632C402.888 45.1868 403.801 45.3846 404.761 45.6071V43.8022C404.761 41.9231 404.377 40.6126 403.633 39.8461C402.864 39.0797 401.568 38.7088 399.719 38.7088C398.878 38.7088 398.014 38.8077 397.125 39.0302C396.237 39.2527 395.372 39.5247 394.532 39.8709C394.147 40.044 393.859 40.1429 393.691 40.1923C393.523 40.2418 393.403 40.2665 393.307 40.2665C392.971 40.2665 392.803 40.0192 392.803 39.5V38.2885C392.803 37.8929 392.851 37.5961 392.971 37.4231C393.091 37.25 393.307 37.0769 393.643 36.9038C394.484 36.4588 395.492 36.0879 396.669 35.7912C397.846 35.4698 399.094 35.3214 400.415 35.3214C403.273 35.3214 405.362 35.989 406.706 37.3242C408.027 38.6593 408.699 40.6868 408.699 43.4066V51.4176H408.748ZM398.998 55.1758C399.791 55.1758 400.607 55.0275 401.472 54.7308C402.336 54.4341 403.104 53.8901 403.753 53.1483C404.137 52.6786 404.425 52.1593 404.569 51.5659C404.713 50.9725 404.809 50.2555 404.809 49.4148V48.3764C404.113 48.2033 403.369 48.0549 402.6 47.956C401.832 47.8571 401.087 47.8077 400.343 47.8077C398.734 47.8077 397.557 48.1291 396.765 48.7967C395.972 49.4643 395.588 50.4038 395.588 51.6401C395.588 52.8022 395.876 53.6676 396.477 54.261C397.053 54.8791 397.894 55.1758 398.998 55.1758ZM418.281 57.8461C417.848 57.8461 417.56 57.772 417.368 57.5989C417.176 57.4505 417.008 57.1044 416.864 56.6346L411.221 37.522C411.077 37.0275 411.005 36.706 411.005 36.533C411.005 36.1374 411.197 35.9148 411.581 35.9148H413.934C414.391 35.9148 414.703 35.989 414.871 36.1621C415.063 36.3104 415.207 36.6566 415.351 37.1264L419.385 53.4945L423.131 37.1264C423.251 36.6319 423.396 36.3104 423.588 36.1621C423.78 36.0137 424.116 35.9148 424.548 35.9148H426.469C426.925 35.9148 427.238 35.989 427.43 36.1621C427.622 36.3104 427.79 36.6566 427.886 37.1264L431.68 53.6923L435.834 37.1264C435.978 36.6319 436.147 36.3104 436.315 36.1621C436.507 36.0137 436.819 35.9148 437.251 35.9148H439.484C439.869 35.9148 440.085 36.1126 440.085 36.533C440.085 36.6566 440.061 36.7802 440.037 36.9286C440.013 37.0769 439.965 37.2747 439.869 37.5467L434.081 56.6593C433.937 57.1538 433.769 57.4753 433.577 57.6236C433.385 57.772 433.073 57.8709 432.665 57.8709H430.599C430.143 57.8709 429.831 57.7967 429.639 57.6236C429.447 57.4505 429.279 57.1291 429.183 56.6346L425.461 40.6868L421.763 56.6099C421.643 57.1044 421.498 57.4258 421.306 57.5989C421.114 57.772 420.778 57.8461 420.346 57.8461H418.281ZM449.138 58.5137C447.889 58.5137 446.64 58.3654 445.44 58.0687C444.239 57.772 443.302 57.4505 442.678 57.0797C442.294 56.8571 442.03 56.6099 441.934 56.3874C441.838 56.1648 441.79 55.9176 441.79 55.695V54.4341C441.79 53.9148 441.982 53.6676 442.342 53.6676C442.486 53.6676 442.63 53.6923 442.774 53.7418C442.918 53.7912 443.134 53.8901 443.374 53.989C444.191 54.3599 445.079 54.6566 446.016 54.8544C446.976 55.0522 447.913 55.1511 448.873 55.1511C450.386 55.1511 451.563 54.8791 452.379 54.3352C453.196 53.7912 453.628 53 453.628 51.9863C453.628 51.294 453.412 50.7253 452.98 50.2555C452.548 49.7857 451.731 49.3654 450.554 48.9698L447.073 47.8571C445.32 47.2885 444.023 46.4478 443.23 45.3352C442.438 44.2472 442.03 43.0357 442.03 41.75C442.03 40.7115 442.246 39.7967 442.678 39.0055C443.11 38.2143 443.687 37.522 444.407 36.978C445.127 36.4093 445.944 35.989 446.904 35.6923C447.865 35.3956 448.873 35.272 449.93 35.272C450.458 35.272 451.011 35.2967 451.539 35.3709C452.091 35.445 452.596 35.544 453.1 35.6429C453.58 35.7665 454.036 35.8901 454.469 36.0385C454.901 36.1868 455.237 36.3352 455.477 36.4835C455.813 36.6813 456.053 36.8791 456.198 37.1016C456.342 37.2994 456.414 37.5714 456.414 37.9176V39.0797C456.414 39.5989 456.222 39.8709 455.861 39.8709C455.669 39.8709 455.357 39.772 454.949 39.5742C453.58 38.9313 452.043 38.6099 450.338 38.6099C448.97 38.6099 447.889 38.8324 447.145 39.3022C446.4 39.772 446.016 40.489 446.016 41.5027C446.016 42.195 446.256 42.7885 446.736 43.2582C447.217 43.728 448.105 44.1978 449.378 44.6181L452.788 45.7308C454.517 46.2994 455.765 47.0907 456.51 48.1044C457.254 49.1181 457.614 50.2802 457.614 51.5659C457.614 52.6291 457.398 53.5934 456.99 54.4341C456.558 55.2747 455.981 56.0165 455.237 56.6099C454.493 57.228 453.604 57.6731 452.572 57.9945C451.491 58.3407 450.362 58.5137 449.138 58.5137Z" fill="white"/>
<path fill-rule="evenodd" clip-rule="evenodd" d="M453.676 70.5302C445.776 76.5385 434.297 79.728 424.428 79.728C410.596 79.728 398.134 74.4616 388.72 65.7088C387.976 65.0165 388.648 64.0769 389.537 64.6209C399.719 70.7033 412.277 74.3874 425.269 74.3874C434.033 74.3874 443.663 72.5083 452.523 68.6511C453.844 68.033 454.973 69.5412 453.676 70.5302Z" fill="white"/>
<path fill-rule="evenodd" clip-rule="evenodd" d="M456.966 66.6731C455.957 65.3379 450.29 66.0302 447.721 66.3517C446.952 66.4506 446.832 65.7583 447.529 65.239C452.043 61.9753 459.463 62.9149 460.328 64.0028C461.192 65.1154 460.088 72.7555 455.861 76.4149C455.213 76.9835 454.589 76.6868 454.877 75.9451C455.837 73.4973 457.975 67.9835 456.966 66.6731Z" fill="white"/>
</g>
<g clip-path="url(#clip1_74_382)">
<path d="M55.3958 24H100.604C107.458 24 113 29.5214 113 36.3504V79.6496C113 86.4786 107.458 92 100.604 92H55.3958C48.5417 92 43 86.4786 43 79.6496V36.3504C43 29.5214 48.5417 24 55.3958 24Z" fill="white"/>
<path d="M58.75 71.6872V41.7846C58.75 41.5812 58.8375 41.4649 59.0417 41.4649C59.5375 41.4649 60.0042 41.4649 60.675 41.4359C61.375 41.4068 62.1042 41.4068 62.8917 41.3778C63.6792 41.3487 64.525 41.3487 65.4292 41.3196C66.3333 41.2906 67.2083 41.2906 68.0833 41.2906C70.475 41.2906 72.4583 41.5812 74.0917 42.1914C75.55 42.6855 76.8917 43.4991 78 44.5743C78.9333 45.5043 79.6625 46.6376 80.1292 47.8872C80.5667 49.1077 80.8 50.3573 80.8 51.6649C80.8 54.1641 80.2167 56.2273 79.05 57.8547C77.8833 59.482 76.25 60.7026 74.3542 61.4C72.3708 62.1265 70.1833 62.388 67.7917 62.388C67.0917 62.388 66.625 62.388 66.3333 62.359C66.0417 62.3299 65.6333 62.3299 65.0792 62.3299V71.6581C65.1083 71.8615 64.9625 72.0359 64.7583 72.0649C64.7292 72.0649 64.7 72.0649 64.6417 72.0649H59.1C58.8667 72.0649 58.75 71.9487 58.75 71.6872ZM65.1083 47.0735V56.8376C65.5167 56.8667 65.8958 56.8957 66.2458 56.8957H67.7917C68.9292 56.8957 70.0667 56.7214 71.1458 56.3726C72.0792 56.1111 72.8958 55.559 73.5375 54.8325C74.15 54.106 74.4417 53.1179 74.4417 51.8393C74.4708 50.9385 74.2375 50.0376 73.7708 49.253C73.275 48.4974 72.575 47.9162 71.7292 47.5966C70.65 47.1607 69.4833 46.9863 68.2875 47.0154C67.5292 47.0154 66.8583 47.0154 66.3042 47.0444C65.7208 47.0154 65.3125 47.0444 65.1083 47.0735Z" fill="#2F2F2F"/>
<path d="M99 55.065C98.125 54.6 97.1917 54.2803 96.2 54.0769C95.1208 53.8444 94.0417 53.6991 92.9333 53.6991C92.35 53.6701 91.7375 53.7573 91.1833 53.9026C90.8042 53.9897 90.4833 54.1932 90.2792 54.4838C90.1333 54.7162 90.0458 55.0068 90.0458 55.2684C90.0458 55.5299 90.1625 55.7915 90.3375 56.0239C90.6 56.3436 90.95 56.6051 91.3292 56.8085C92 57.1573 92.7 57.4769 93.4 57.7675C94.975 58.2906 96.4917 59.0171 97.8917 59.8889C98.8542 60.4991 99.6417 61.3128 100.196 62.3009C100.662 63.2308 100.896 64.2479 100.867 65.294C100.896 66.6598 100.487 68.0256 99.7292 69.159C98.9125 70.3214 97.775 71.2222 96.4625 71.7453C95.0333 72.3556 93.2833 72.6752 91.1833 72.6752C89.8417 72.6752 88.5292 72.559 87.2167 72.2974C86.1958 72.1231 85.175 71.8034 84.2417 71.3675C84.0375 71.2513 83.8917 71.0479 83.9208 70.8154V65.759C83.9208 65.6718 83.95 65.5556 84.0375 65.4974C84.125 65.4393 84.2125 65.4684 84.3 65.5265C85.4375 66.1949 86.6333 66.6598 87.9167 66.9504C89.025 67.241 90.1917 67.3863 91.3583 67.3863C92.4667 67.3863 93.2542 67.241 93.7792 66.9795C94.2458 66.7761 94.5667 66.282 94.5667 65.759C94.5667 65.3521 94.3333 64.9744 93.8667 64.5966C93.4 64.2188 92.4375 63.7829 91.0083 63.2308C89.5208 62.7077 88.15 62.0103 86.8667 61.1385C85.9625 60.4991 85.2042 59.6564 84.65 58.6684C84.1833 57.7385 83.95 56.7214 83.9792 55.7043C83.9792 54.4547 84.3292 53.2632 84.9708 52.188C85.7 51.0256 86.7792 50.0957 88.0333 49.5145C89.4042 48.8171 91.125 48.4974 93.1958 48.4974C94.3917 48.4974 95.6167 48.5846 96.8125 48.759C97.6875 48.8752 98.5333 49.1077 99.3208 49.4274C99.4375 49.4564 99.5542 49.5726 99.6125 49.6889C99.6417 49.8051 99.6708 49.9214 99.6708 50.0376V54.7744C99.6708 54.8906 99.6125 55.0068 99.525 55.065C99.2625 55.1231 99.1167 55.1231 99 55.065Z" fill="#2F2F2F"/>
</g>
<defs>
<clipPath id="clip0_74_382">
<rect width="73" height="45" fill="white" transform="translate(388 35)"/>
</clipPath>
<clipPath id="clip1_74_382">
<rect width="70" height="68" fill="white" transform="translate(43 24)"/>
</clipPath>
</defs>
</svg>
