<svg width="1063" height="632" viewBox="0 0 1063 632" fill="none" xmlns="http://www.w3.org/2000/svg">
<path d="M0 279H978C1015.5 279 1034.25 279 1047.39 288.549C1051.63 291.633 1055.37 295.366 1058.45 299.611C1068 312.754 1068 331.503 1068 369V644H0V279Z" fill="#FF9E15"/>
<path d="M51.0386 0C48.2754 0 46.1623 2.11569 46.1623 4.88235C46.1623 7.64902 48.2754 9.76471 51.0386 9.76471C53.8019 9.76471 55.9149 7.64902 55.9149 4.88235C55.9149 2.11569 53.8019 0 51.0386 0ZM51.0386 47.8471C48.2754 47.8471 46.1623 49.9627 46.1623 52.7294C46.1623 55.4961 48.2754 57.6118 51.0386 57.6118C53.8019 57.6118 55.9149 55.4961 55.9149 52.7294C55.9149 49.9627 53.8019 47.8471 51.0386 47.8471ZM51.0386 95.6941C48.2754 95.6941 46.1623 97.8098 46.1623 100.576C46.1623 103.343 48.2754 105.459 51.0386 105.459C53.8019 105.459 55.9149 103.343 55.9149 100.576C55.9149 97.8098 53.8019 95.6941 51.0386 95.6941ZM51.0386 143.541C48.2754 143.541 46.1623 145.657 46.1623 148.424C46.1623 151.19 48.2754 153.306 51.0386 153.306C53.8019 153.306 55.9149 151.19 55.9149 148.424C55.9149 145.657 53.8019 143.541 51.0386 143.541ZM97.3635 239.235C94.6002 239.235 92.4872 241.351 92.4872 244.118C92.4872 246.884 94.6002 249 97.3635 249C100.127 249 102.24 246.884 102.24 244.118C102.24 241.351 99.9642 239.235 97.3635 239.235ZM97.3635 95.6941C94.6002 95.6941 92.4872 97.8098 92.4872 100.576C92.4872 103.343 94.6002 105.459 97.3635 105.459C100.127 105.459 102.24 103.343 102.24 100.576C102.24 97.8098 99.9642 95.6941 97.3635 95.6941ZM97.3635 47.8471C94.6002 47.8471 92.4872 49.9627 92.4872 52.7294C92.4872 55.4961 94.6002 57.6118 97.3635 57.6118C100.127 57.6118 102.24 55.4961 102.24 52.7294C102.24 49.9627 99.9642 47.8471 97.3635 47.8471ZM97.3635 191.388C94.6002 191.388 92.4872 193.504 92.4872 196.271C92.4872 199.037 94.6002 201.153 97.3635 201.153C100.127 201.153 102.24 199.037 102.24 196.271C102.24 193.504 99.9642 191.388 97.3635 191.388ZM97.3635 143.541C94.6002 143.541 92.4872 145.657 92.4872 148.424C92.4872 151.19 94.6002 153.306 97.3635 153.306C100.127 153.306 102.24 151.19 102.24 148.424C102.24 145.657 99.9642 143.541 97.3635 143.541ZM236.013 9.76471C238.776 9.76471 240.889 7.64902 240.889 4.88235C240.889 2.11569 238.776 0 236.013 0C233.25 0 231.137 2.11569 231.137 4.88235C231.137 7.64902 233.25 9.76471 236.013 9.76471ZM4.8763 95.6941C2.11306 95.6941 0 97.8098 0 100.576C0 103.343 2.11306 105.459 4.8763 105.459C7.63954 105.459 9.7526 103.343 9.7526 100.576C9.7526 97.8098 7.63954 95.6941 4.8763 95.6941ZM4.8763 191.388C2.11306 191.388 0 193.504 0 196.271C0 199.037 2.11306 201.153 4.8763 201.153C7.63954 201.153 9.7526 199.037 9.7526 196.271C9.7526 193.504 7.63954 191.388 4.8763 191.388ZM4.8763 143.541C2.11306 143.541 0 145.657 0 148.424C0 151.19 2.11306 153.306 4.8763 153.306C7.63954 153.306 9.7526 151.19 9.7526 148.424C9.7526 145.657 7.63954 143.541 4.8763 143.541ZM4.8763 239.235C2.11306 239.235 0 241.351 0 244.118C0 246.884 2.11306 249 4.8763 249C7.63954 249 9.7526 246.884 9.7526 244.118C9.7526 241.351 7.63954 239.235 4.8763 239.235ZM51.0386 191.388C48.2754 191.388 46.1623 193.504 46.1623 196.271C46.1623 199.037 48.2754 201.153 51.0386 201.153C53.8019 201.153 55.9149 199.037 55.9149 196.271C55.9149 193.504 53.8019 191.388 51.0386 191.388ZM51.0386 239.235C48.2754 239.235 46.1623 241.351 46.1623 244.118C46.1623 246.884 48.2754 249 51.0386 249C53.8019 249 55.9149 246.884 55.9149 244.118C55.9149 241.351 53.8019 239.235 51.0386 239.235ZM4.8763 47.8471C2.11306 47.8471 0 49.9627 0 52.7294C0 55.4961 2.11306 57.6118 4.8763 57.6118C7.63954 57.6118 9.7526 55.4961 9.7526 52.7294C9.7526 49.9627 7.63954 47.8471 4.8763 47.8471ZM4.8763 0C2.11306 0 0 2.11569 0 4.88235C0 7.64902 2.11306 9.76471 4.8763 9.76471C7.63954 9.76471 9.7526 7.64902 9.7526 4.88235C9.7526 2.11569 7.63954 0 4.8763 0ZM97.3635 0C94.6002 0 92.4872 2.11569 92.4872 4.88235C92.4872 7.64902 94.6002 9.76471 97.3635 9.76471C100.127 9.76471 102.24 7.64902 102.24 4.88235C102.24 2.11569 99.9642 0 97.3635 0ZM236.013 191.388C233.25 191.388 231.137 193.504 231.137 196.271C231.137 199.037 233.25 201.153 236.013 201.153C238.776 201.153 240.889 199.037 240.889 196.271C240.889 193.504 238.614 191.388 236.013 191.388ZM189.688 0C186.925 0 184.812 2.11569 184.812 4.88235C184.812 7.64902 186.925 9.76471 189.688 9.76471C192.451 9.76471 194.564 7.64902 194.564 4.88235C194.564 2.11569 192.451 0 189.688 0ZM236.013 239.235C233.25 239.235 231.137 241.351 231.137 244.118C231.137 246.884 233.25 249 236.013 249C238.776 249 240.889 246.884 240.889 244.118C240.889 241.351 238.614 239.235 236.013 239.235ZM189.688 47.8471C186.925 47.8471 184.812 49.9627 184.812 52.7294C184.812 55.4961 186.925 57.6118 189.688 57.6118C192.451 57.6118 194.564 55.4961 194.564 52.7294C194.564 49.9627 192.451 47.8471 189.688 47.8471ZM236.013 143.541C233.25 143.541 231.137 145.657 231.137 148.424C231.137 151.19 233.25 153.306 236.013 153.306C238.776 153.306 240.889 151.19 240.889 148.424C240.889 145.657 238.614 143.541 236.013 143.541ZM236.013 47.8471C233.25 47.8471 231.137 49.9627 231.137 52.7294C231.137 55.4961 233.25 57.6118 236.013 57.6118C238.776 57.6118 240.889 55.4961 240.889 52.7294C240.889 49.9627 238.614 47.8471 236.013 47.8471ZM189.688 95.6941C186.925 95.6941 184.812 97.8098 184.812 100.576C184.812 103.343 186.925 105.459 189.688 105.459C192.451 105.459 194.564 103.343 194.564 100.576C194.564 97.8098 192.451 95.6941 189.688 95.6941ZM236.013 95.6941C233.25 95.6941 231.137 97.8098 231.137 100.576C231.137 103.343 233.25 105.459 236.013 105.459C238.776 105.459 240.889 103.343 240.889 100.576C240.889 97.8098 238.614 95.6941 236.013 95.6941ZM143.526 95.6941C140.763 95.6941 138.649 97.8098 138.649 100.576C138.649 103.343 140.763 105.459 143.526 105.459C146.289 105.459 148.402 103.343 148.402 100.576C148.402 97.8098 146.289 95.6941 143.526 95.6941ZM143.526 143.541C140.763 143.541 138.649 145.657 138.649 148.424C138.649 151.19 140.763 153.306 143.526 153.306C146.289 153.306 148.402 151.19 148.402 148.424C148.402 145.657 146.289 143.541 143.526 143.541ZM143.526 239.235C140.763 239.235 138.649 241.351 138.649 244.118C138.649 246.884 140.763 249 143.526 249C146.289 249 148.402 246.884 148.402 244.118C148.402 241.351 146.289 239.235 143.526 239.235ZM143.526 47.8471C140.763 47.8471 138.649 49.9627 138.649 52.7294C138.649 55.4961 140.763 57.6118 143.526 57.6118C146.289 57.6118 148.402 55.4961 148.402 52.7294C148.402 49.9627 146.289 47.8471 143.526 47.8471ZM143.526 191.388C140.763 191.388 138.649 193.504 138.649 196.271C138.649 199.037 140.763 201.153 143.526 201.153C146.289 201.153 148.402 199.037 148.402 196.271C148.402 193.504 146.289 191.388 143.526 191.388ZM189.688 191.388C186.925 191.388 184.812 193.504 184.812 196.271C184.812 199.037 186.925 201.153 189.688 201.153C192.451 201.153 194.564 199.037 194.564 196.271C194.564 193.504 192.451 191.388 189.688 191.388ZM189.688 143.541C186.925 143.541 184.812 145.657 184.812 148.424C184.812 151.19 186.925 153.306 189.688 153.306C192.451 153.306 194.564 151.19 194.564 148.424C194.564 145.657 192.451 143.541 189.688 143.541ZM189.688 239.235C186.925 239.235 184.812 241.351 184.812 244.118C184.812 246.884 186.925 249 189.688 249C192.451 249 194.564 246.884 194.564 244.118C194.564 241.351 192.451 239.235 189.688 239.235ZM143.526 0C140.763 0 138.649 2.11569 138.649 4.88235C138.649 7.64902 140.763 9.76471 143.526 9.76471C146.289 9.76471 148.402 7.64902 148.402 4.88235C148.402 2.11569 146.289 0 143.526 0Z" fill="#FF9E15"/>
<path d="M330.039 0C327.275 0 325.162 2.11569 325.162 4.88235C325.162 7.64902 327.275 9.76471 330.039 9.76471C332.802 9.76471 334.915 7.64902 334.915 4.88235C334.915 2.11569 332.802 0 330.039 0ZM330.039 47.8471C327.275 47.8471 325.162 49.9627 325.162 52.7294C325.162 55.4961 327.275 57.6118 330.039 57.6118C332.802 57.6118 334.915 55.4961 334.915 52.7294C334.915 49.9627 332.802 47.8471 330.039 47.8471ZM330.039 95.6941C327.275 95.6941 325.162 97.8098 325.162 100.576C325.162 103.343 327.275 105.459 330.039 105.459C332.802 105.459 334.915 103.343 334.915 100.576C334.915 97.8098 332.802 95.6941 330.039 95.6941ZM330.039 143.541C327.275 143.541 325.162 145.657 325.162 148.424C325.162 151.19 327.275 153.306 330.039 153.306C332.802 153.306 334.915 151.19 334.915 148.424C334.915 145.657 332.802 143.541 330.039 143.541ZM376.363 239.235C373.6 239.235 371.487 241.351 371.487 244.118C371.487 246.884 373.6 249 376.363 249C379.127 249 381.24 246.884 381.24 244.118C381.24 241.351 378.964 239.235 376.363 239.235ZM376.363 95.6941C373.6 95.6941 371.487 97.8098 371.487 100.576C371.487 103.343 373.6 105.459 376.363 105.459C379.127 105.459 381.24 103.343 381.24 100.576C381.24 97.8098 378.964 95.6941 376.363 95.6941ZM376.363 47.8471C373.6 47.8471 371.487 49.9627 371.487 52.7294C371.487 55.4961 373.6 57.6118 376.363 57.6118C379.127 57.6118 381.24 55.4961 381.24 52.7294C381.24 49.9627 378.964 47.8471 376.363 47.8471ZM376.363 191.388C373.6 191.388 371.487 193.504 371.487 196.271C371.487 199.037 373.6 201.153 376.363 201.153C379.127 201.153 381.24 199.037 381.24 196.271C381.24 193.504 378.964 191.388 376.363 191.388ZM376.363 143.541C373.6 143.541 371.487 145.657 371.487 148.424C371.487 151.19 373.6 153.306 376.363 153.306C379.127 153.306 381.24 151.19 381.24 148.424C381.24 145.657 378.964 143.541 376.363 143.541ZM515.013 9.76471C517.776 9.76471 519.889 7.64902 519.889 4.88235C519.889 2.11569 517.776 0 515.013 0C512.25 0 510.137 2.11569 510.137 4.88235C510.137 7.64902 512.25 9.76471 515.013 9.76471ZM283.876 95.6941C281.113 95.6941 279 97.8098 279 100.576C279 103.343 281.113 105.459 283.876 105.459C286.64 105.459 288.753 103.343 288.753 100.576C288.753 97.8098 286.64 95.6941 283.876 95.6941ZM283.876 191.388C281.113 191.388 279 193.504 279 196.271C279 199.037 281.113 201.153 283.876 201.153C286.64 201.153 288.753 199.037 288.753 196.271C288.753 193.504 286.64 191.388 283.876 191.388ZM283.876 143.541C281.113 143.541 279 145.657 279 148.424C279 151.19 281.113 153.306 283.876 153.306C286.64 153.306 288.753 151.19 288.753 148.424C288.753 145.657 286.64 143.541 283.876 143.541ZM283.876 239.235C281.113 239.235 279 241.351 279 244.118C279 246.884 281.113 249 283.876 249C286.64 249 288.753 246.884 288.753 244.118C288.753 241.351 286.64 239.235 283.876 239.235ZM330.039 191.388C327.275 191.388 325.162 193.504 325.162 196.271C325.162 199.037 327.275 201.153 330.039 201.153C332.802 201.153 334.915 199.037 334.915 196.271C334.915 193.504 332.802 191.388 330.039 191.388ZM330.039 239.235C327.275 239.235 325.162 241.351 325.162 244.118C325.162 246.884 327.275 249 330.039 249C332.802 249 334.915 246.884 334.915 244.118C334.915 241.351 332.802 239.235 330.039 239.235ZM283.876 47.8471C281.113 47.8471 279 49.9627 279 52.7294C279 55.4961 281.113 57.6118 283.876 57.6118C286.64 57.6118 288.753 55.4961 288.753 52.7294C288.753 49.9627 286.64 47.8471 283.876 47.8471ZM283.876 0C281.113 0 279 2.11569 279 4.88235C279 7.64902 281.113 9.76471 283.876 9.76471C286.64 9.76471 288.753 7.64902 288.753 4.88235C288.753 2.11569 286.64 0 283.876 0ZM376.363 0C373.6 0 371.487 2.11569 371.487 4.88235C371.487 7.64902 373.6 9.76471 376.363 9.76471C379.127 9.76471 381.24 7.64902 381.24 4.88235C381.24 2.11569 378.964 0 376.363 0ZM515.013 191.388C512.25 191.388 510.137 193.504 510.137 196.271C510.137 199.037 512.25 201.153 515.013 201.153C517.776 201.153 519.889 199.037 519.889 196.271C519.889 193.504 517.614 191.388 515.013 191.388ZM468.688 0C465.925 0 463.812 2.11569 463.812 4.88235C463.812 7.64902 465.925 9.76471 468.688 9.76471C471.451 9.76471 473.564 7.64902 473.564 4.88235C473.564 2.11569 471.451 0 468.688 0ZM515.013 239.235C512.25 239.235 510.137 241.351 510.137 244.118C510.137 246.884 512.25 249 515.013 249C517.776 249 519.889 246.884 519.889 244.118C519.889 241.351 517.614 239.235 515.013 239.235ZM468.688 47.8471C465.925 47.8471 463.812 49.9627 463.812 52.7294C463.812 55.4961 465.925 57.6118 468.688 57.6118C471.451 57.6118 473.564 55.4961 473.564 52.7294C473.564 49.9627 471.451 47.8471 468.688 47.8471ZM515.013 143.541C512.25 143.541 510.137 145.657 510.137 148.424C510.137 151.19 512.25 153.306 515.013 153.306C517.776 153.306 519.889 151.19 519.889 148.424C519.889 145.657 517.614 143.541 515.013 143.541ZM515.013 47.8471C512.25 47.8471 510.137 49.9627 510.137 52.7294C510.137 55.4961 512.25 57.6118 515.013 57.6118C517.776 57.6118 519.889 55.4961 519.889 52.7294C519.889 49.9627 517.614 47.8471 515.013 47.8471ZM468.688 95.6941C465.925 95.6941 463.812 97.8098 463.812 100.576C463.812 103.343 465.925 105.459 468.688 105.459C471.451 105.459 473.564 103.343 473.564 100.576C473.564 97.8098 471.451 95.6941 468.688 95.6941ZM515.013 95.6941C512.25 95.6941 510.137 97.8098 510.137 100.576C510.137 103.343 512.25 105.459 515.013 105.459C517.776 105.459 519.889 103.343 519.889 100.576C519.889 97.8098 517.614 95.6941 515.013 95.6941ZM422.526 95.6941C419.763 95.6941 417.649 97.8098 417.649 100.576C417.649 103.343 419.763 105.459 422.526 105.459C425.289 105.459 427.402 103.343 427.402 100.576C427.402 97.8098 425.289 95.6941 422.526 95.6941ZM422.526 143.541C419.763 143.541 417.649 145.657 417.649 148.424C417.649 151.19 419.763 153.306 422.526 153.306C425.289 153.306 427.402 151.19 427.402 148.424C427.402 145.657 425.289 143.541 422.526 143.541ZM422.526 239.235C419.763 239.235 417.649 241.351 417.649 244.118C417.649 246.884 419.763 249 422.526 249C425.289 249 427.402 246.884 427.402 244.118C427.402 241.351 425.289 239.235 422.526 239.235ZM422.526 47.8471C419.763 47.8471 417.649 49.9627 417.649 52.7294C417.649 55.4961 419.763 57.6118 422.526 57.6118C425.289 57.6118 427.402 55.4961 427.402 52.7294C427.402 49.9627 425.289 47.8471 422.526 47.8471ZM422.526 191.388C419.763 191.388 417.649 193.504 417.649 196.271C417.649 199.037 419.763 201.153 422.526 201.153C425.289 201.153 427.402 199.037 427.402 196.271C427.402 193.504 425.289 191.388 422.526 191.388ZM468.688 191.388C465.925 191.388 463.812 193.504 463.812 196.271C463.812 199.037 465.925 201.153 468.688 201.153C471.451 201.153 473.564 199.037 473.564 196.271C473.564 193.504 471.451 191.388 468.688 191.388ZM468.688 143.541C465.925 143.541 463.812 145.657 463.812 148.424C463.812 151.19 465.925 153.306 468.688 153.306C471.451 153.306 473.564 151.19 473.564 148.424C473.564 145.657 471.451 143.541 468.688 143.541ZM468.688 239.235C465.925 239.235 463.812 241.351 463.812 244.118C463.812 246.884 465.925 249 468.688 249C471.451 249 473.564 246.884 473.564 244.118C473.564 241.351 471.451 239.235 468.688 239.235ZM422.526 0C419.763 0 417.649 2.11569 417.649 4.88235C417.649 7.64902 419.763 9.76471 422.526 9.76471C425.289 9.76471 427.402 7.64902 427.402 4.88235C427.402 2.11569 425.289 0 422.526 0Z" fill="#FF9E15"/>
</svg>
