<svg width="775" height="859" viewBox="0 0 775 859" fill="none" xmlns="http://www.w3.org/2000/svg">
<circle cx="84" cy="265" r="55" fill="#D9D9D9"/>
<circle cx="288" cy="265" r="55" fill="#D9D9D9"/>
<circle cx="492" cy="265" r="55" fill="#D9D9D9"/>
<path d="M2 468C2 429.34 33.3401 398 72 398H613V585H72C33.3401 585 2 553.66 2 515V468Z" fill="#2F2F2F"/>
<path d="M2 646C2 607.34 33.3401 576 72 576H613V763H72C33.3401 763 2 731.66 2 693V646Z" fill="#2F2F2F"/>
<path d="M585.039 456C582.275 456 580.162 458.116 580.162 460.882C580.162 463.649 582.275 465.765 585.039 465.765C587.802 465.765 589.915 463.649 589.915 460.882C589.915 458.116 587.802 456 585.039 456ZM585.039 503.847C582.275 503.847 580.162 505.963 580.162 508.729C580.162 511.496 582.275 513.612 585.039 513.612C587.802 513.612 589.915 511.496 589.915 508.729C589.915 505.963 587.802 503.847 585.039 503.847ZM585.039 551.694C582.275 551.694 580.162 553.81 580.162 556.576C580.162 559.343 582.275 561.459 585.039 561.459C587.802 561.459 589.915 559.343 589.915 556.576C589.915 553.81 587.802 551.694 585.039 551.694ZM585.039 599.541C582.275 599.541 580.162 601.657 580.162 604.424C580.162 607.19 582.275 609.306 585.039 609.306C587.802 609.306 589.915 607.19 589.915 604.424C589.915 601.657 587.802 599.541 585.039 599.541ZM631.363 695.235C628.6 695.235 626.487 697.351 626.487 700.118C626.487 702.884 628.6 705 631.363 705C634.127 705 636.24 702.884 636.24 700.118C636.24 697.351 633.964 695.235 631.363 695.235ZM631.363 551.694C628.6 551.694 626.487 553.81 626.487 556.576C626.487 559.343 628.6 561.459 631.363 561.459C634.127 561.459 636.24 559.343 636.24 556.576C636.24 553.81 633.964 551.694 631.363 551.694ZM631.363 503.847C628.6 503.847 626.487 505.963 626.487 508.729C626.487 511.496 628.6 513.612 631.363 513.612C634.127 513.612 636.24 511.496 636.24 508.729C636.24 505.963 633.964 503.847 631.363 503.847ZM631.363 647.388C628.6 647.388 626.487 649.504 626.487 652.271C626.487 655.037 628.6 657.153 631.363 657.153C634.127 657.153 636.24 655.037 636.24 652.271C636.24 649.504 633.964 647.388 631.363 647.388ZM631.363 599.541C628.6 599.541 626.487 601.657 626.487 604.424C626.487 607.19 628.6 609.306 631.363 609.306C634.127 609.306 636.24 607.19 636.24 604.424C636.24 601.657 633.964 599.541 631.363 599.541ZM770.013 465.765C772.776 465.765 774.889 463.649 774.889 460.882C774.889 458.116 772.776 456 770.013 456C767.25 456 765.137 458.116 765.137 460.882C765.137 463.649 767.25 465.765 770.013 465.765ZM538.876 551.694C536.113 551.694 534 553.81 534 556.576C534 559.343 536.113 561.459 538.876 561.459C541.64 561.459 543.753 559.343 543.753 556.576C543.753 553.81 541.64 551.694 538.876 551.694ZM538.876 647.388C536.113 647.388 534 649.504 534 652.271C534 655.037 536.113 657.153 538.876 657.153C541.64 657.153 543.753 655.037 543.753 652.271C543.753 649.504 541.64 647.388 538.876 647.388ZM538.876 599.541C536.113 599.541 534 601.657 534 604.424C534 607.19 536.113 609.306 538.876 609.306C541.64 609.306 543.753 607.19 543.753 604.424C543.753 601.657 541.64 599.541 538.876 599.541ZM538.876 695.235C536.113 695.235 534 697.351 534 700.118C534 702.884 536.113 705 538.876 705C541.64 705 543.753 702.884 543.753 700.118C543.753 697.351 541.64 695.235 538.876 695.235ZM585.039 647.388C582.275 647.388 580.162 649.504 580.162 652.271C580.162 655.037 582.275 657.153 585.039 657.153C587.802 657.153 589.915 655.037 589.915 652.271C589.915 649.504 587.802 647.388 585.039 647.388ZM585.039 695.235C582.275 695.235 580.162 697.351 580.162 700.118C580.162 702.884 582.275 705 585.039 705C587.802 705 589.915 702.884 589.915 700.118C589.915 697.351 587.802 695.235 585.039 695.235ZM538.876 503.847C536.113 503.847 534 505.963 534 508.729C534 511.496 536.113 513.612 538.876 513.612C541.64 513.612 543.753 511.496 543.753 508.729C543.753 505.963 541.64 503.847 538.876 503.847ZM538.876 456C536.113 456 534 458.116 534 460.882C534 463.649 536.113 465.765 538.876 465.765C541.64 465.765 543.753 463.649 543.753 460.882C543.753 458.116 541.64 456 538.876 456ZM631.363 456C628.6 456 626.487 458.116 626.487 460.882C626.487 463.649 628.6 465.765 631.363 465.765C634.127 465.765 636.24 463.649 636.24 460.882C636.24 458.116 633.964 456 631.363 456ZM770.013 647.388C767.25 647.388 765.137 649.504 765.137 652.271C765.137 655.037 767.25 657.153 770.013 657.153C772.776 657.153 774.889 655.037 774.889 652.271C774.889 649.504 772.614 647.388 770.013 647.388ZM723.688 456C720.925 456 718.812 458.116 718.812 460.882C718.812 463.649 720.925 465.765 723.688 465.765C726.451 465.765 728.564 463.649 728.564 460.882C728.564 458.116 726.451 456 723.688 456ZM770.013 695.235C767.25 695.235 765.137 697.351 765.137 700.118C765.137 702.884 767.25 705 770.013 705C772.776 705 774.889 702.884 774.889 700.118C774.889 697.351 772.614 695.235 770.013 695.235ZM723.688 503.847C720.925 503.847 718.812 505.963 718.812 508.729C718.812 511.496 720.925 513.612 723.688 513.612C726.451 513.612 728.564 511.496 728.564 508.729C728.564 505.963 726.451 503.847 723.688 503.847ZM770.013 599.541C767.25 599.541 765.137 601.657 765.137 604.424C765.137 607.19 767.25 609.306 770.013 609.306C772.776 609.306 774.889 607.19 774.889 604.424C774.889 601.657 772.614 599.541 770.013 599.541ZM770.013 503.847C767.25 503.847 765.137 505.963 765.137 508.729C765.137 511.496 767.25 513.612 770.013 513.612C772.776 513.612 774.889 511.496 774.889 508.729C774.889 505.963 772.614 503.847 770.013 503.847ZM723.688 551.694C720.925 551.694 718.812 553.81 718.812 556.576C718.812 559.343 720.925 561.459 723.688 561.459C726.451 561.459 728.564 559.343 728.564 556.576C728.564 553.81 726.451 551.694 723.688 551.694ZM770.013 551.694C767.25 551.694 765.137 553.81 765.137 556.576C765.137 559.343 767.25 561.459 770.013 561.459C772.776 561.459 774.889 559.343 774.889 556.576C774.889 553.81 772.614 551.694 770.013 551.694ZM677.526 551.694C674.763 551.694 672.649 553.81 672.649 556.576C672.649 559.343 674.763 561.459 677.526 561.459C680.289 561.459 682.402 559.343 682.402 556.576C682.402 553.81 680.289 551.694 677.526 551.694ZM677.526 599.541C674.763 599.541 672.649 601.657 672.649 604.424C672.649 607.19 674.763 609.306 677.526 609.306C680.289 609.306 682.402 607.19 682.402 604.424C682.402 601.657 680.289 599.541 677.526 599.541ZM677.526 695.235C674.763 695.235 672.649 697.351 672.649 700.118C672.649 702.884 674.763 705 677.526 705C680.289 705 682.402 702.884 682.402 700.118C682.402 697.351 680.289 695.235 677.526 695.235ZM677.526 503.847C674.763 503.847 672.649 505.963 672.649 508.729C672.649 511.496 674.763 513.612 677.526 513.612C680.289 513.612 682.402 511.496 682.402 508.729C682.402 505.963 680.289 503.847 677.526 503.847ZM677.526 647.388C674.763 647.388 672.649 649.504 672.649 652.271C672.649 655.037 674.763 657.153 677.526 657.153C680.289 657.153 682.402 655.037 682.402 652.271C682.402 649.504 680.289 647.388 677.526 647.388ZM723.688 647.388C720.925 647.388 718.812 649.504 718.812 652.271C718.812 655.037 720.925 657.153 723.688 657.153C726.451 657.153 728.564 655.037 728.564 652.271C728.564 649.504 726.451 647.388 723.688 647.388ZM723.688 599.541C720.925 599.541 718.812 601.657 718.812 604.424C718.812 607.19 720.925 609.306 723.688 609.306C726.451 609.306 728.564 607.19 728.564 604.424C728.564 601.657 726.451 599.541 723.688 599.541ZM723.688 695.235C720.925 695.235 718.812 697.351 718.812 700.118C718.812 702.884 720.925 705 723.688 705C726.451 705 728.564 702.884 728.564 700.118C728.564 697.351 726.451 695.235 723.688 695.235ZM677.526 456C674.763 456 672.649 458.116 672.649 460.882C672.649 463.649 674.763 465.765 677.526 465.765C680.289 465.765 682.402 463.649 682.402 460.882C682.402 458.116 680.289 456 677.526 456Z" fill="white"/>
<circle cx="83.4999" cy="265.5" r="3.5" fill="#33363F"/>
<path d="M94.9999 265.5C94.9999 275.124 93.513 283.747 91.1764 289.891C90.0055 292.971 88.6599 295.324 87.2674 296.873C85.8744 298.422 84.5976 299 83.4999 299C82.4022 299 81.1254 298.422 79.7323 296.873C78.3399 295.324 76.9943 292.971 75.8233 289.891C73.4868 283.747 71.9999 275.124 71.9999 265.5C71.9999 255.876 73.4868 247.253 75.8233 241.109C76.9943 238.029 78.3399 235.676 79.7323 234.127C81.1254 232.578 82.4022 232 83.4999 232C84.5976 232 85.8744 232.578 87.2674 234.127C88.6599 235.676 90.0055 238.029 91.1764 241.109C93.513 247.253 94.9999 255.876 94.9999 265.5Z" stroke="#33363F" stroke-width="4"/>
<path d="M89.7092 275.816C81.4278 280.597 73.2331 283.534 66.7296 284.471C63.4719 284.941 60.7437 284.893 58.6791 284.401C56.62 283.91 55.4066 283.032 54.795 281.972C54.1833 280.913 54.0291 279.423 54.6337 277.394C55.2401 275.36 56.5628 272.974 58.5981 270.387C62.6613 265.223 69.3019 259.595 77.5834 254.814C85.8648 250.032 94.0595 247.096 100.563 246.159C103.821 245.689 106.549 245.737 108.614 246.229C110.673 246.72 111.886 247.598 112.498 248.658C113.109 249.717 113.263 251.207 112.659 253.236C112.053 255.27 110.73 257.656 108.695 260.243C104.631 265.406 97.9906 271.035 89.7092 275.816Z" stroke="#33363F" stroke-width="4"/>
<path d="M89.7092 254.813C81.4278 250.032 73.2331 247.095 66.7296 246.158C63.4719 245.689 60.7437 245.736 58.6791 246.228C56.62 246.719 55.4066 247.598 54.795 248.657C54.1833 249.716 54.0291 251.206 54.6337 253.235C55.2401 255.269 56.5628 257.656 58.5981 260.242C62.6613 265.406 69.3019 271.034 77.5834 275.816C85.8648 280.597 94.0595 283.534 100.563 284.471C103.821 284.94 106.549 284.892 108.614 284.4C110.673 283.91 111.886 283.031 112.498 281.972C113.109 280.912 113.263 279.422 112.659 277.393C112.053 275.359 110.73 272.973 108.695 270.386C104.631 265.223 97.9906 259.594 89.7092 254.813Z" stroke="#33363F" stroke-width="4"/>
<path d="M2 581H329C367.66 581 399 612.34 399 651V763H2V581Z" fill="white"/>
<circle cx="84" cy="679" r="55" fill="#D9D9D9"/>
<circle cx="288" cy="679" r="55" fill="#D9D9D9"/>
<circle cx="506" cy="679" r="55" fill="white"/>
<path d="M72.064 509.48C69.504 509.48 67.12 509.064 64.912 508.232C62.736 507.368 60.832 506.168 59.2 504.632C57.6 503.064 56.352 501.224 55.456 499.112C54.56 497 54.112 494.696 54.112 492.2C54.112 489.704 54.56 487.4 55.456 485.288C56.352 483.176 57.616 481.352 59.248 479.816C60.88 478.248 62.784 477.048 64.96 476.216C67.136 475.352 69.52 474.92 72.112 474.92C74.864 474.92 77.376 475.4 79.648 476.36C81.92 477.288 83.84 478.68 85.408 480.536L81.376 484.328C80.16 483.016 78.8 482.04 77.296 481.4C75.792 480.728 74.16 480.392 72.4 480.392C70.64 480.392 69.024 480.68 67.552 481.256C66.112 481.832 64.848 482.648 63.76 483.704C62.704 484.76 61.872 486.008 61.264 487.448C60.688 488.888 60.4 490.472 60.4 492.2C60.4 493.928 60.688 495.512 61.264 496.952C61.872 498.392 62.704 499.64 63.76 500.696C64.848 501.752 66.112 502.568 67.552 503.144C69.024 503.72 70.64 504.008 72.4 504.008C74.16 504.008 75.792 503.688 77.296 503.048C78.8 502.376 80.16 501.368 81.376 500.024L85.408 503.864C83.84 505.688 81.92 507.08 79.648 508.04C77.376 509 74.848 509.48 72.064 509.48ZM99.3561 509.48C96.7321 509.48 94.2201 509.112 91.8201 508.376C89.4201 507.608 87.5161 506.632 86.1081 505.448L88.2681 500.6C89.6121 501.656 91.2761 502.536 93.2601 503.24C95.2441 503.944 97.2761 504.296 99.3561 504.296C101.116 504.296 102.54 504.104 103.628 503.72C104.716 503.336 105.516 502.824 106.028 502.184C106.54 501.512 106.796 500.76 106.796 499.928C106.796 498.904 106.428 498.088 105.692 497.48C104.956 496.84 103.996 496.344 102.812 495.992C101.66 495.608 100.364 495.256 98.9241 494.936C97.5161 494.616 96.0921 494.248 94.6521 493.832C93.2441 493.384 91.9481 492.824 90.7641 492.152C89.6121 491.448 88.6681 490.52 87.9321 489.368C87.1961 488.216 86.8281 486.744 86.8281 484.952C86.8281 483.128 87.3081 481.464 88.2681 479.96C89.2601 478.424 90.7481 477.208 92.7321 476.312C94.7481 475.384 97.2921 474.92 100.364 474.92C102.38 474.92 104.38 475.176 106.364 475.688C108.348 476.2 110.076 476.936 111.548 477.896L109.58 482.744C108.076 481.848 106.524 481.192 104.924 480.776C103.324 480.328 101.788 480.104 100.316 480.104C98.5881 480.104 97.1801 480.312 96.0921 480.728C95.0361 481.144 94.2521 481.688 93.7401 482.36C93.2601 483.032 93.0201 483.8 93.0201 484.664C93.0201 485.688 93.3721 486.52 94.0761 487.16C94.8121 487.768 95.7561 488.248 96.9081 488.6C98.0921 488.952 99.4041 489.304 100.844 489.656C102.284 489.976 103.708 490.344 105.116 490.76C106.556 491.176 107.852 491.72 109.004 492.392C110.188 493.064 111.132 493.976 111.836 495.128C112.572 496.28 112.94 497.736 112.94 499.496C112.94 501.288 112.444 502.952 111.452 504.488C110.492 505.992 109.004 507.208 106.988 508.136C104.972 509.032 102.428 509.48 99.3561 509.48ZM127.144 509.48C124.52 509.48 122.008 509.112 119.608 508.376C117.208 507.608 115.304 506.632 113.896 505.448L116.056 500.6C117.4 501.656 119.064 502.536 121.048 503.24C123.032 503.944 125.064 504.296 127.144 504.296C128.904 504.296 130.328 504.104 131.416 503.72C132.504 503.336 133.304 502.824 133.816 502.184C134.328 501.512 134.584 500.76 134.584 499.928C134.584 498.904 134.216 498.088 133.48 497.48C132.744 496.84 131.784 496.344 130.6 495.992C129.448 495.608 128.152 495.256 126.712 494.936C125.304 494.616 123.88 494.248 122.44 493.832C121.032 493.384 119.736 492.824 118.552 492.152C117.4 491.448 116.456 490.52 115.72 489.368C114.984 488.216 114.616 486.744 114.616 484.952C114.616 483.128 115.096 481.464 116.056 479.96C117.048 478.424 118.536 477.208 120.52 476.312C122.536 475.384 125.08 474.92 128.152 474.92C130.168 474.92 132.168 475.176 134.152 475.688C136.136 476.2 137.864 476.936 139.336 477.896L137.368 482.744C135.864 481.848 134.312 481.192 132.712 480.776C131.112 480.328 129.576 480.104 128.104 480.104C126.376 480.104 124.968 480.312 123.88 480.728C122.824 481.144 122.04 481.688 121.528 482.36C121.048 483.032 120.808 483.8 120.808 484.664C120.808 485.688 121.16 486.52 121.864 487.16C122.6 487.768 123.544 488.248 124.696 488.6C125.88 488.952 127.192 489.304 128.632 489.656C130.072 489.976 131.496 490.344 132.904 490.76C134.344 491.176 135.64 491.72 136.792 492.392C137.976 493.064 138.92 493.976 139.624 495.128C140.36 496.28 140.728 497.736 140.728 499.496C140.728 501.288 140.232 502.952 139.24 504.488C138.28 505.992 136.792 507.208 134.776 508.136C132.76 509.032 130.216 509.48 127.144 509.48ZM153.509 498.152V493.16H166.709V498.152H153.509ZM192.731 509.48C190.107 509.48 187.595 509.112 185.195 508.376C182.795 507.608 180.891 506.632 179.483 505.448L181.643 500.6C182.987 501.656 184.651 502.536 186.635 503.24C188.619 503.944 190.651 504.296 192.731 504.296C194.491 504.296 195.915 504.104 197.003 503.72C198.091 503.336 198.891 502.824 199.403 502.184C199.915 501.512 200.171 500.76 200.171 499.928C200.171 498.904 199.803 498.088 199.067 497.48C198.331 496.84 197.371 496.344 196.187 495.992C195.035 495.608 193.739 495.256 192.299 494.936C190.891 494.616 189.467 494.248 188.027 493.832C186.619 493.384 185.323 492.824 184.139 492.152C182.987 491.448 182.043 490.52 181.307 489.368C180.571 488.216 180.203 486.744 180.203 484.952C180.203 483.128 180.683 481.464 181.643 479.96C182.635 478.424 184.123 477.208 186.107 476.312C188.123 475.384 190.667 474.92 193.739 474.92C195.755 474.92 197.755 475.176 199.739 475.688C201.723 476.2 203.451 476.936 204.923 477.896L202.955 482.744C201.451 481.848 199.899 481.192 198.299 480.776C196.699 480.328 195.163 480.104 193.691 480.104C191.963 480.104 190.555 480.312 189.467 480.728C188.411 481.144 187.627 481.688 187.115 482.36C186.635 483.032 186.395 483.8 186.395 484.664C186.395 485.688 186.747 486.52 187.451 487.16C188.187 487.768 189.131 488.248 190.283 488.6C191.467 488.952 192.779 489.304 194.219 489.656C195.659 489.976 197.083 490.344 198.491 490.76C199.931 491.176 201.227 491.72 202.379 492.392C203.563 493.064 204.507 493.976 205.211 495.128C205.947 496.28 206.315 497.736 206.315 499.496C206.315 501.288 205.819 502.952 204.827 504.488C203.867 505.992 202.379 507.208 200.363 508.136C198.347 509.032 195.803 509.48 192.731 509.48ZM219.175 509.336C216.359 509.336 214.183 508.616 212.647 507.176C211.111 505.704 210.343 503.544 210.343 500.696V477.704H216.343V500.552C216.343 501.768 216.647 502.712 217.255 503.384C217.895 504.056 218.775 504.392 219.895 504.392C221.239 504.392 222.359 504.04 223.255 503.336L224.935 507.608C224.231 508.184 223.367 508.616 222.343 508.904C221.319 509.192 220.263 509.336 219.175 509.336ZM206.119 488.36V483.56H223.207V488.36H206.119ZM229.114 518.648C227.866 518.648 226.618 518.44 225.37 518.024C224.122 517.608 223.082 517.032 222.25 516.296L224.65 511.88C225.258 512.424 225.946 512.856 226.714 513.176C227.482 513.496 228.266 513.656 229.066 513.656C230.154 513.656 231.034 513.384 231.706 512.84C232.378 512.296 233.002 511.384 233.578 510.104L235.066 506.744L235.546 506.024L245.242 483.368H251.002L239.002 511.064C238.202 512.984 237.306 514.504 236.314 515.624C235.354 516.744 234.266 517.528 233.05 517.976C231.866 518.424 230.554 518.648 229.114 518.648ZM234.394 509.912L222.826 483.368H229.066L238.474 505.496L234.394 509.912ZM252.352 509V473.384H258.352V509H252.352ZM275.875 509.336C273.027 509.336 270.531 508.776 268.387 507.656C266.275 506.504 264.627 504.936 263.443 502.952C262.291 500.968 261.715 498.712 261.715 496.184C261.715 493.624 262.275 491.368 263.395 489.416C264.547 487.432 266.115 485.88 268.099 484.76C270.115 483.64 272.403 483.08 274.963 483.08C277.459 483.08 279.683 483.624 281.635 484.712C283.587 485.8 285.123 487.336 286.243 489.32C287.363 491.304 287.923 493.64 287.923 496.328C287.923 496.584 287.907 496.872 287.875 497.192C287.875 497.512 287.859 497.816 287.827 498.104H266.467V494.12H284.659L282.307 495.368C282.339 493.896 282.035 492.6 281.395 491.48C280.755 490.36 279.875 489.48 278.755 488.84C277.667 488.2 276.403 487.88 274.963 487.88C273.491 487.88 272.195 488.2 271.075 488.84C269.987 489.48 269.123 490.376 268.483 491.528C267.875 492.648 267.571 493.976 267.571 495.512V496.472C267.571 498.008 267.923 499.368 268.627 500.552C269.331 501.736 270.323 502.648 271.603 503.288C272.883 503.928 274.355 504.248 276.019 504.248C277.459 504.248 278.755 504.024 279.907 503.576C281.059 503.128 282.083 502.424 282.979 501.464L286.195 505.16C285.043 506.504 283.587 507.544 281.827 508.28C280.099 508.984 278.115 509.336 275.875 509.336ZM299.206 509.336C297.062 509.336 294.998 509.064 293.014 508.52C291.062 507.944 289.51 507.256 288.358 506.456L290.662 501.896C291.814 502.632 293.19 503.24 294.79 503.72C296.39 504.2 297.99 504.44 299.59 504.44C301.478 504.44 302.838 504.184 303.67 503.672C304.534 503.16 304.966 502.472 304.966 501.608C304.966 500.904 304.678 500.376 304.102 500.024C303.526 499.64 302.774 499.352 301.846 499.16C300.918 498.968 299.878 498.792 298.726 498.632C297.606 498.472 296.47 498.264 295.318 498.008C294.198 497.72 293.174 497.32 292.246 496.808C291.318 496.264 290.566 495.544 289.99 494.648C289.414 493.752 289.126 492.568 289.126 491.096C289.126 489.464 289.59 488.056 290.518 486.872C291.446 485.656 292.742 484.728 294.406 484.088C296.102 483.416 298.102 483.08 300.406 483.08C302.134 483.08 303.878 483.272 305.638 483.656C307.398 484.04 308.854 484.584 310.006 485.288L307.702 489.848C306.486 489.112 305.254 488.616 304.006 488.36C302.79 488.072 301.574 487.928 300.358 487.928C298.534 487.928 297.174 488.2 296.278 488.744C295.414 489.288 294.982 489.976 294.982 490.808C294.982 491.576 295.27 492.152 295.846 492.536C296.422 492.92 297.174 493.224 298.102 493.448C299.03 493.672 300.054 493.864 301.174 494.024C302.326 494.152 303.462 494.36 304.582 494.648C305.702 494.936 306.726 495.336 307.654 495.848C308.614 496.328 309.382 497.016 309.958 497.912C310.534 498.808 310.822 499.976 310.822 501.416C310.822 503.016 310.342 504.408 309.382 505.592C308.454 506.776 307.126 507.704 305.398 508.376C303.67 509.016 301.606 509.336 299.206 509.336Z" fill="white"/>
<g clip-path="url(#clip0_73_12)">
<path d="M281.305 675.937V667.303H288.091C291.8 667.303 293.97 668.902 293.97 671.632C293.97 674.439 291.667 675.937 287.245 675.937H281.305ZM281.305 689.104H288.541C293.055 689.104 295.441 687.424 295.441 684.285C295.441 681.187 292.963 679.567 288.251 679.567H281.305V689.104Z" fill="#2F2F2F"/>
<path d="M272.258 651C268.213 651 264.334 652.475 261.474 655.101C258.614 657.726 257.008 661.287 257.008 665V693C257.008 696.713 258.614 700.274 261.474 702.899C264.334 705.525 268.213 707 272.258 707H302.758C306.802 707 310.681 705.525 313.541 702.899C316.401 700.274 318.008 696.713 318.008 693V665C318.008 661.287 316.401 657.726 313.541 655.101C310.681 652.475 306.802 651 302.758 651H272.258ZM276.299 693V663.408H289.258C295.308 663.408 298.953 666.239 298.953 670.793C298.953 673.887 296.475 676.655 293.299 677.149V677.499C297.656 677.908 300.558 680.757 300.558 684.614C300.558 689.822 296.425 693 289.547 693H276.299Z" fill="#2F2F2F"/>
</g>
<path d="M505.5 642C486.439 642 471 657.439 471 676.5C471 691.766 480.876 704.661 494.589 709.232C496.314 709.534 496.961 708.499 496.961 707.593C496.961 706.774 496.918 704.057 496.918 701.168C488.25 702.763 486.007 699.054 485.317 697.114C484.929 696.122 483.248 693.06 481.781 692.241C480.574 691.594 478.849 689.998 481.738 689.955C484.455 689.912 486.396 692.456 487.043 693.491C490.148 698.709 495.107 697.243 497.091 696.338C497.393 694.095 498.298 692.586 499.29 691.723C491.614 690.861 483.593 687.885 483.593 674.689C483.593 670.937 484.929 667.832 487.129 665.417C486.784 664.554 485.576 661.018 487.474 656.274C487.474 656.274 490.363 655.369 496.961 659.811C499.721 659.034 502.654 658.646 505.586 658.646C508.519 658.646 511.451 659.034 514.211 659.811C520.809 655.326 523.699 656.274 523.699 656.274C525.596 661.018 524.389 664.554 524.044 665.417C526.243 667.832 527.58 670.894 527.58 674.689C527.58 687.928 519.516 690.861 511.839 691.723C513.09 692.801 514.168 694.871 514.168 698.106C514.168 702.72 514.125 706.429 514.125 707.593C514.125 708.499 514.772 709.577 516.497 709.232C523.347 706.921 529.299 702.52 533.516 696.648C537.732 690.776 540 683.729 540 676.5C540 657.439 524.561 642 505.5 642Z" fill="#2F2F2F"/>
<g clip-path="url(#clip1_73_12)">
<mask id="mask0_73_12" style="mask-type:luminance" maskUnits="userSpaceOnUse" x="44" y="654" width="80" height="49">
<path d="M44 654H124V702.109H44V654Z" fill="white"/>
</mask>
<g mask="url(#mask0_73_12)">
<path fill-rule="evenodd" clip-rule="evenodd" d="M84 654C73.3333 654 66.6667 659.345 64 670.036C68 664.691 72.6667 662.686 78 664.023C81.043 664.784 83.2178 666.998 85.6252 669.447C89.5467 673.437 94.0859 678.055 104 678.055C114.667 678.055 121.333 672.709 124 662.018C120 667.364 115.333 669.368 110 668.032C106.957 667.27 104.782 665.056 102.375 662.608C98.4533 658.618 93.9141 654 84 654ZM64 678.055C53.3333 678.055 46.6667 683.4 44 694.091C48 688.745 52.6667 686.741 58 688.077C61.043 688.84 63.2178 691.053 65.6252 693.501C69.5467 697.491 74.0859 702.109 84 702.109C94.6667 702.109 101.333 696.764 104 686.073C100 691.418 95.3333 693.423 90 692.086C86.957 691.325 84.7822 689.111 82.3748 686.662C78.4533 682.672 73.9141 678.055 64 678.055Z" fill="#2F2F2F"/>
</g>
</g>
<g opacity="0.61">
<path d="M281.333 307.856L280.31 310.219H279.769L278.75 307.856H279.341L280.06 309.544L280.789 307.856H281.333Z" fill="#D9D9D9"/>
<path d="M283.125 309.432H281.751C281.802 309.659 281.994 309.797 282.271 309.797C282.463 309.797 282.602 309.74 282.727 309.621L283.007 309.925C282.838 310.118 282.585 310.219 282.257 310.219C281.629 310.219 281.221 309.824 281.221 309.284C281.221 308.74 281.636 308.349 282.19 308.349C282.723 308.349 283.135 308.706 283.135 309.291C283.135 309.331 283.129 309.389 283.125 309.432ZM281.744 309.125H282.639C282.602 308.895 282.43 308.747 282.194 308.747C281.954 308.747 281.782 308.892 281.744 309.125Z" fill="#D9D9D9"/>
<path d="M283.351 309.284C283.351 308.737 283.773 308.349 284.364 308.349C284.746 308.349 285.046 308.514 285.178 308.811L284.77 309.031C284.672 308.858 284.527 308.781 284.361 308.781C284.094 308.781 283.885 308.966 283.885 309.284C283.885 309.601 284.094 309.787 284.361 309.787C284.526 309.787 284.672 309.713 284.77 309.537L285.178 309.76C285.046 310.05 284.746 310.219 284.364 310.219C283.773 310.219 283.351 309.831 283.351 309.284Z" fill="#D9D9D9"/>
<path d="M286.68 310.104C286.572 310.182 286.414 310.219 286.252 310.219C285.823 310.219 285.573 310 285.573 309.567V308.821H285.293V308.416H285.573V307.974H286.1V308.416H286.552V308.821H286.1V309.561C286.1 309.716 286.184 309.801 286.326 309.801C286.404 309.801 286.481 309.777 286.539 309.733L286.68 310.104Z" fill="#D9D9D9"/>
<path d="M290.295 308.375V308.862C290.251 308.858 290.218 308.855 290.177 308.855C289.887 308.855 289.694 309.014 289.694 309.362V310.219H289.167V308.403H289.671V308.642C289.799 308.467 290.015 308.375 290.295 308.375Z" fill="#D9D9D9"/>
<path d="M290.447 309.946L290.633 309.534C290.832 309.679 291.129 309.78 291.413 309.78C291.737 309.78 291.868 309.672 291.868 309.527C291.868 309.084 290.494 309.388 290.494 308.51C290.494 308.108 290.818 307.774 291.49 307.774C291.787 307.774 292.091 307.845 292.311 307.984L292.142 308.399C291.922 308.274 291.696 308.213 291.487 308.213C291.163 308.213 291.038 308.335 291.038 308.483C291.038 308.919 292.412 308.619 292.412 309.486C292.412 309.881 292.084 310.219 291.409 310.219C291.035 310.219 290.656 310.108 290.447 309.946Z" fill="#D9D9D9"/>
<path d="M294.519 309.432H293.145C293.195 309.659 293.388 309.797 293.665 309.797C293.857 309.797 293.995 309.74 294.12 309.622L294.401 309.925C294.232 310.118 293.978 310.219 293.651 310.219C293.023 310.219 292.614 309.824 292.614 309.284C292.614 308.74 293.03 308.349 293.583 308.349C294.117 308.349 294.529 308.707 294.529 309.291C294.529 309.331 294.522 309.389 294.519 309.432ZM293.138 309.125H294.033C293.996 308.895 293.823 308.747 293.587 308.747C293.347 308.747 293.175 308.892 293.138 309.125Z" fill="#D9D9D9"/>
<path d="M296.649 309.432H295.275C295.326 309.659 295.518 309.797 295.795 309.797C295.987 309.797 296.126 309.74 296.251 309.622L296.531 309.925C296.362 310.118 296.109 310.219 295.781 310.219C295.153 310.219 294.745 309.824 294.745 309.284C294.745 308.74 295.16 308.349 295.714 308.349C296.247 308.349 296.659 308.707 296.659 309.291C296.659 309.331 296.653 309.389 296.649 309.432ZM295.268 309.125H296.163C296.126 308.895 295.954 308.747 295.717 308.747C295.478 308.747 295.305 308.892 295.268 309.125Z" fill="#D9D9D9"/>
<path d="M297.79 309.507L297.537 309.757V310.219H297.01V307.714H297.537V309.132L298.307 308.403H298.935L298.179 309.172L299.003 310.219H298.364L297.79 309.507Z" fill="#D9D9D9"/>
<path d="M289.215 310.466L288.688 309.94C288.608 310.033 288.513 310.113 288.406 310.176C288.389 310.189 288.372 310.201 288.354 310.213L288.911 310.77C288.995 310.854 289.131 310.854 289.215 310.77C289.299 310.686 289.299 310.55 289.215 310.466Z" fill="#D9D9D9"/>
<path d="M287.997 308.237C288.038 308.205 288.088 308.185 288.144 308.185C288.152 308.185 288.159 308.186 288.167 308.186C288.127 308.158 288.079 308.14 288.026 308.14C287.953 308.14 287.889 308.174 287.846 308.225C287.836 308.225 287.827 308.226 287.818 308.226C287.825 308.212 287.83 308.196 287.83 308.179C287.83 308.136 287.803 308.099 287.766 308.084C287.782 308.107 287.791 308.135 287.791 308.166C287.791 308.188 287.786 308.209 287.776 308.228C287.259 308.265 286.851 308.696 286.851 309.222C286.851 309.773 287.297 310.219 287.848 310.219C288.399 310.219 288.845 309.773 288.845 309.222C288.846 308.722 288.477 308.309 287.997 308.237ZM287.629 308.497C287.709 308.497 287.784 308.517 287.85 308.554C287.918 308.508 288 308.482 288.089 308.482C288.219 308.482 288.337 308.54 288.417 308.631C288.337 308.561 288.232 308.518 288.117 308.518C288.035 308.518 287.957 308.54 287.89 308.579C287.876 308.587 287.862 308.597 287.848 308.607C287.836 308.598 287.824 308.589 287.811 308.582C287.743 308.542 287.664 308.519 287.579 308.519C287.524 308.519 287.471 308.529 287.422 308.547C287.484 308.515 287.554 308.497 287.629 308.497ZM288.326 309.314C288.347 309.37 288.359 309.431 288.359 309.494C288.359 309.776 288.131 310.005 287.848 310.005C287.566 310.005 287.337 309.776 287.337 309.494C287.337 309.431 287.349 309.37 287.371 309.314C287.257 309.244 287.18 309.118 287.18 308.974C287.18 308.754 287.359 308.575 287.579 308.575C287.683 308.575 287.777 308.616 287.848 308.681C287.919 308.616 288.014 308.575 288.118 308.575C288.338 308.575 288.517 308.754 288.517 308.974C288.517 309.118 288.44 309.244 288.326 309.314Z" fill="#D9D9D9"/>
<path d="M288.307 308.939C288.307 309.031 288.232 309.105 288.141 309.105C288.049 309.105 287.975 309.031 287.975 308.939C287.975 308.848 288.049 308.773 288.141 308.773C288.159 308.773 288.177 308.777 288.194 308.782C288.188 308.793 288.185 308.806 288.185 308.82C288.185 308.87 288.226 308.911 288.276 308.911C288.285 308.911 288.294 308.909 288.303 308.906C288.305 308.917 288.307 308.928 288.307 308.939Z" fill="#D9D9D9"/>
<path d="M287.679 308.939C287.679 309.008 287.623 309.065 287.554 309.065C287.484 309.065 287.428 309.008 287.428 308.939C287.428 308.87 287.484 308.814 287.554 308.814C287.568 308.814 287.581 308.816 287.594 308.82C287.589 308.829 287.587 308.839 287.587 308.849C287.587 308.887 287.618 308.918 287.656 308.918C287.663 308.918 287.67 308.917 287.676 308.915C287.678 308.923 287.679 308.931 287.679 308.939Z" fill="#D9D9D9"/>
<path d="M286.808 309.081H286.695V309.194H286.808V309.081Z" fill="#D9D9D9"/>
<path d="M289.002 309.081H288.888V309.194H289.002V309.081Z" fill="#D9D9D9"/>
<path d="M288.958 309.127H288.932C288.932 308.53 288.446 308.043 287.848 308.043C287.251 308.043 286.764 308.53 286.764 309.127H286.739C286.739 308.831 286.854 308.552 287.064 308.343C287.273 308.133 287.552 308.018 287.848 308.018C288.145 308.018 288.423 308.133 288.633 308.343C288.842 308.552 288.958 308.831 288.958 309.127Z" fill="#D9D9D9"/>
<path d="M287.905 307.974H287.792V308.087H287.905V307.974Z" fill="#D9D9D9"/>
<path d="M288.626 308.018H287.071V308.043H288.626V308.018Z" fill="#D9D9D9"/>
<path d="M287.113 308.036C287.113 308.056 287.097 308.073 287.076 308.073C287.056 308.073 287.04 308.056 287.04 308.036C287.04 308.016 287.056 308 287.076 308C287.097 308 287.113 308.016 287.113 308.036Z" fill="#D9D9D9"/>
<path d="M288.663 308.036C288.663 308.056 288.646 308.073 288.626 308.073C288.606 308.073 288.589 308.056 288.589 308.036C288.589 308.016 288.606 308 288.626 308C288.646 308 288.663 308.016 288.663 308.036Z" fill="#D9D9D9"/>
<path d="M299.841 310.107C299.841 310.394 299.406 310.394 299.406 310.107C299.407 309.821 299.841 309.821 299.841 310.107Z" fill="#D9D9D9"/>
<path d="M271.76 308.845L272.086 309.965L272.427 308.845H272.835L272.315 310.343H271.887L271.733 309.902L271.6 309.404L271.467 309.902L271.313 310.343H270.884L270.362 308.845H270.772L271.114 309.965L271.437 308.845H271.76Z" fill="#D9D9D9"/>
<path d="M274.515 308.845L274.841 309.965L275.183 308.845H275.59L275.071 310.343H274.642L274.488 309.902L274.355 309.404L274.222 309.902L274.068 310.343H273.64L273.117 308.845H273.528L273.869 309.965L274.192 308.845H274.515Z" fill="#D9D9D9"/>
<path d="M277.27 308.845L277.596 309.965L277.938 308.845H278.345L277.826 310.343H277.397L277.243 309.902L277.11 309.404L276.977 309.902L276.823 310.343H276.395L275.872 308.845H276.283L276.624 309.965L276.947 308.845H277.27Z" fill="#D9D9D9"/>
<path d="M278.967 310.128C278.967 310.415 278.532 310.415 278.532 310.128C278.532 309.841 278.967 309.841 278.967 310.128Z" fill="#D9D9D9"/>
<path d="M301.379 310.107C301.207 310.276 301.026 310.343 300.805 310.343C300.373 310.343 300.014 310.083 300.014 309.555C300.014 309.027 300.373 308.767 300.805 308.767C301.017 308.767 301.18 308.827 301.343 308.987L301.11 309.232C301.022 309.153 300.914 309.114 300.811 309.114C300.564 309.114 300.383 309.295 300.383 309.555C300.383 309.839 300.576 309.99 300.805 309.99C300.923 309.99 301.041 309.956 301.131 309.866L301.379 310.107Z" fill="#D9D9D9"/>
<path d="M303.052 309.567C303.052 309.996 302.759 310.343 302.276 310.343C301.793 310.343 301.503 309.996 301.503 309.567C301.503 309.141 301.799 308.791 302.273 308.791C302.747 308.791 303.052 309.141 303.052 309.567ZM301.872 309.567C301.872 309.793 302.008 310.005 302.276 310.005C302.545 310.005 302.681 309.793 302.681 309.567C302.681 309.343 302.524 309.126 302.276 309.126C302.01 309.126 301.872 309.344 301.872 309.567Z" fill="#D9D9D9"/>
<path d="M304.297 310.343V309.546C304.297 309.349 304.194 309.171 303.992 309.171C303.793 309.171 303.675 309.349 303.675 309.546V310.343H303.307V308.851H303.648L303.675 309.032C303.754 308.881 303.926 308.827 304.068 308.827C304.246 308.827 304.424 308.9 304.509 309.105C304.642 308.893 304.814 308.833 305.007 308.833C305.43 308.833 305.638 309.093 305.638 309.539V310.343H305.269V309.539C305.269 309.343 305.188 309.177 304.989 309.177C304.79 309.177 304.666 309.349 304.666 309.546V310.343H304.297V310.343Z" fill="#D9D9D9"/>
</g>
<g opacity="0.61">
<path d="M305.662 302.359C305.661 302.134 305.485 301.969 305.259 301.965C305.089 301.963 305.106 301.987 305.106 301.806C305.105 301.604 305.104 301.402 305.106 301.2C305.107 301.13 305.085 301.073 305.039 301.02C304.609 300.53 304.179 300.038 303.748 299.546C303.726 299.521 303.697 299.502 303.672 299.479C302.528 299.479 301.385 299.479 300.242 299.479C300.096 299.533 300.032 299.639 300.032 299.794C300.034 300.483 300.033 301.173 300.033 301.862C300.033 301.965 300.033 301.971 299.932 301.964C299.657 301.945 299.469 302.145 299.473 302.422C299.481 303.062 299.475 303.701 299.475 304.341C299.475 304.632 299.635 304.791 299.926 304.792C300.033 304.792 300.033 304.792 300.033 304.902C300.033 305.31 300.033 305.719 300.033 306.127C300.033 306.346 300.14 306.453 300.359 306.453C301.833 306.453 303.308 306.453 304.782 306.453C304.997 306.453 305.105 306.346 305.105 306.132C305.106 305.717 305.105 305.302 305.105 304.886C305.105 304.792 305.106 304.792 305.201 304.792C305.251 304.791 305.301 304.793 305.35 304.781C305.533 304.736 305.661 304.589 305.662 304.4C305.665 303.72 305.665 303.039 305.662 302.359ZM300.427 299.758C301.409 299.758 302.391 299.758 303.373 299.758C303.473 299.758 303.475 299.759 303.475 299.861C303.475 300.274 303.474 300.686 303.475 301.099C303.475 301.249 303.521 301.294 303.67 301.294C304.021 301.294 304.373 301.294 304.724 301.294C304.809 301.294 304.812 301.298 304.813 301.383C304.813 301.546 304.813 301.71 304.813 301.873C304.813 301.961 304.808 301.965 304.72 301.965C304.003 301.965 303.287 301.965 302.57 301.965C301.856 301.965 301.141 301.965 300.427 301.965C300.326 301.965 300.326 301.965 300.326 301.862C300.325 301.195 300.325 300.528 300.326 299.861C300.326 299.759 300.326 299.758 300.427 299.758ZM304.711 306.091C303.997 306.091 303.282 306.091 302.568 306.091C301.855 306.091 301.143 306.091 300.431 306.091C300.326 306.091 300.325 306.09 300.325 305.984C300.325 305.617 300.325 305.249 300.325 304.882C300.325 304.796 300.33 304.792 300.413 304.792C301.849 304.792 303.285 304.792 304.721 304.792C304.809 304.792 304.813 304.796 304.813 304.885C304.813 305.252 304.813 305.62 304.813 305.987C304.813 306.09 304.812 306.091 304.711 306.091Z" fill="#D9D9D9"/>
<path d="M302.568 299.738H302.245V299.932H302.568V299.738Z" fill="#D9D9D9"/>
<path d="M302.245 299.932H301.922V300.126H302.245V299.932Z" fill="#D9D9D9"/>
<path d="M302.568 300.126H302.245V300.32H302.568V300.126Z" fill="#D9D9D9"/>
<path d="M302.245 300.32H301.922V300.514H302.245V300.32Z" fill="#D9D9D9"/>
<path d="M302.568 300.514H302.245V300.707H302.568V300.514Z" fill="#D9D9D9"/>
<path d="M302.245 300.707H301.922V300.901H302.245V300.707Z" fill="#D9D9D9"/>
<path d="M302.568 300.902H302.245V301.096H302.568V300.902Z" fill="#D9D9D9"/>
<path d="M302.245 301.096H301.922V301.289H302.245V301.096Z" fill="#D9D9D9"/>
<path d="M302.568 301.289H302.245V301.483H302.568V301.289Z" fill="#D9D9D9"/>
<path d="M302.245 301.483H301.922V301.677H302.245V301.483Z" fill="#D9D9D9"/>
<path d="M302.568 301.677H302.245V301.871H302.568V301.677Z" fill="#D9D9D9"/>
<path d="M302.245 301.871H301.922V302.065H302.245V301.871Z" fill="#D9D9D9"/>
<path d="M276.525 302.359C276.524 302.134 276.349 301.969 276.122 301.965C275.952 301.963 275.969 301.987 275.969 301.806C275.968 301.604 275.968 301.402 275.97 301.2C275.97 301.13 275.949 301.073 275.903 301.02C275.472 300.53 275.042 300.038 274.611 299.546C274.589 299.521 274.561 299.502 274.535 299.479C273.392 299.479 272.249 299.479 271.105 299.479C270.959 299.533 270.896 299.639 270.896 299.794C270.898 300.483 270.897 301.173 270.897 301.862C270.897 301.965 270.896 301.971 270.795 301.964C270.52 301.945 270.332 302.145 270.336 302.422C270.344 303.062 270.338 303.701 270.339 304.341C270.339 304.632 270.498 304.791 270.789 304.792C270.896 304.792 270.896 304.792 270.896 304.902C270.896 305.31 270.896 305.719 270.897 306.127C270.897 306.346 271.003 306.453 271.222 306.453C272.696 306.453 274.171 306.453 275.645 306.453C275.86 306.453 275.968 306.346 275.969 306.132C275.969 305.717 275.969 305.302 275.969 304.886C275.969 304.792 275.969 304.792 276.064 304.792C276.114 304.791 276.164 304.793 276.213 304.781C276.397 304.736 276.524 304.589 276.525 304.4C276.528 303.72 276.529 303.039 276.525 302.359ZM271.29 299.758C272.272 299.758 273.254 299.758 274.236 299.758C274.337 299.758 274.338 299.759 274.338 299.861C274.338 300.274 274.338 300.686 274.338 301.099C274.339 301.249 274.384 301.294 274.533 301.294C274.885 301.294 275.236 301.294 275.588 301.294C275.672 301.294 275.676 301.298 275.676 301.383C275.677 301.546 275.677 301.71 275.676 301.873C275.676 301.961 275.672 301.965 275.584 301.965C274.867 301.965 274.15 301.965 273.434 301.965C272.72 301.965 272.005 301.965 271.291 301.965C271.19 301.965 271.189 301.965 271.189 301.862C271.189 301.195 271.189 300.528 271.189 299.861C271.189 299.759 271.19 299.758 271.29 299.758ZM275.575 306.091C274.86 306.091 274.146 306.091 273.431 306.091C272.719 306.091 272.007 306.091 271.294 306.091C271.189 306.091 271.189 306.09 271.189 305.984C271.189 305.617 271.189 305.249 271.189 304.882C271.189 304.796 271.193 304.792 271.277 304.792C272.713 304.792 274.149 304.792 275.584 304.792C275.672 304.792 275.676 304.796 275.676 304.885C275.677 305.252 275.676 305.62 275.676 305.987C275.676 306.09 275.675 306.091 275.575 306.091Z" fill="#D9D9D9"/>
<path d="M271.399 304.083V302.63H271.911C271.98 302.63 272.044 302.641 272.104 302.664C272.165 302.686 272.217 302.717 272.262 302.758C272.306 302.799 272.342 302.847 272.367 302.903C272.393 302.959 272.406 303.021 272.406 303.089C272.406 303.158 272.393 303.22 272.367 303.276C272.341 303.333 272.306 303.381 272.262 303.422C272.217 303.462 272.165 303.494 272.104 303.516C272.044 303.538 271.98 303.55 271.911 303.55H271.673V304.083H271.399V304.083ZM271.915 303.29C271.986 303.29 272.041 303.269 272.077 303.229C272.114 303.188 272.132 303.141 272.132 303.089C272.132 303.063 272.127 303.038 272.119 303.014C272.11 302.989 272.096 302.968 272.078 302.95C272.06 302.931 272.037 302.917 272.01 302.906C271.983 302.895 271.951 302.89 271.914 302.89H271.673V303.29H271.915Z" fill="#D9D9D9"/>
<path d="M272.601 302.63H272.919L273.504 303.604H273.52L273.504 303.324V302.63H273.776V304.083H273.487L272.871 303.054H272.854L272.871 303.334V304.083H272.601V302.63Z" fill="#D9D9D9"/>
<path d="M274.738 303.285H275.45C275.454 303.302 275.457 303.321 275.46 303.344C275.463 303.367 275.464 303.39 275.464 303.413C275.464 303.507 275.45 303.595 275.422 303.677C275.393 303.76 275.349 303.833 275.288 303.898C275.223 303.967 275.145 304.021 275.054 304.059C274.964 304.097 274.86 304.115 274.744 304.115C274.638 304.115 274.539 304.097 274.445 304.059C274.352 304.021 274.271 303.968 274.202 303.9C274.133 303.833 274.078 303.753 274.037 303.66C273.997 303.567 273.977 303.466 273.977 303.356C273.977 303.247 273.997 303.146 274.037 303.053C274.078 302.96 274.133 302.88 274.202 302.813C274.271 302.745 274.352 302.692 274.445 302.654C274.539 302.616 274.638 302.597 274.744 302.597C274.862 302.597 274.967 302.618 275.059 302.658C275.152 302.699 275.231 302.755 275.298 302.827L275.109 303.011C275.062 302.961 275.009 302.923 274.951 302.897C274.893 302.871 274.823 302.857 274.742 302.857C274.675 302.857 274.612 302.869 274.553 302.893C274.493 302.917 274.441 302.95 274.397 302.993C274.352 303.036 274.316 303.089 274.29 303.151C274.264 303.212 274.251 303.281 274.251 303.356C274.251 303.432 274.264 303.501 274.29 303.563C274.316 303.624 274.352 303.677 274.398 303.72C274.443 303.763 274.495 303.797 274.555 303.82C274.614 303.844 274.678 303.856 274.746 303.856C274.823 303.856 274.888 303.845 274.941 303.822C274.995 303.8 275.04 303.771 275.078 303.736C275.106 303.712 275.129 303.681 275.148 303.644C275.168 303.607 275.183 303.565 275.194 303.519H274.737L274.738 303.285Z" fill="#D9D9D9"/>
<path d="M283.22 302.359C283.218 302.134 283.043 301.969 282.817 301.965C282.647 301.963 282.664 301.987 282.663 301.806C282.663 301.604 282.662 301.402 282.664 301.2C282.664 301.13 282.643 301.073 282.597 301.02C282.166 300.53 281.736 300.038 281.306 299.546C281.284 299.521 281.255 299.502 281.23 299.479C280.086 299.479 278.943 299.479 277.8 299.479C277.654 299.533 277.59 299.639 277.59 299.794C277.592 300.483 277.591 301.173 277.591 301.862C277.591 301.965 277.59 301.971 277.49 301.964C277.214 301.945 277.027 302.145 277.03 302.422C277.038 303.062 277.033 303.701 277.033 304.341C277.033 304.632 277.192 304.791 277.484 304.792C277.591 304.792 277.591 304.792 277.591 304.902C277.591 305.31 277.591 305.719 277.591 306.127C277.591 306.346 277.698 306.453 277.916 306.453C279.391 306.453 280.865 306.453 282.34 306.453C282.555 306.453 282.663 306.346 282.663 306.132C282.663 305.717 282.663 305.302 282.663 304.886C282.663 304.792 282.663 304.792 282.759 304.792C282.809 304.791 282.858 304.793 282.908 304.781C283.091 304.736 283.219 304.589 283.219 304.4C283.222 303.72 283.223 303.039 283.22 302.359ZM277.985 299.758C278.967 299.758 279.949 299.758 280.93 299.758C281.031 299.758 281.032 299.759 281.032 299.861C281.033 300.274 281.032 300.686 281.033 301.099C281.033 301.249 281.078 301.294 281.228 301.294C281.579 301.294 281.931 301.294 282.282 301.294C282.366 301.294 282.37 301.298 282.371 301.383C282.371 301.546 282.371 301.71 282.371 301.873C282.37 301.961 282.366 301.965 282.278 301.965C281.561 301.965 280.844 301.965 280.128 301.965C279.414 301.965 278.699 301.965 277.985 301.965C277.884 301.965 277.883 301.965 277.883 301.862C277.883 301.195 277.883 300.528 277.883 299.861C277.883 299.759 277.884 299.758 277.985 299.758ZM282.269 306.091C281.555 306.091 280.84 306.091 280.126 306.091C279.413 306.091 278.701 306.091 277.989 306.091C277.884 306.091 277.883 306.09 277.883 305.984C277.883 305.617 277.883 305.249 277.883 304.882C277.883 304.796 277.888 304.792 277.971 304.792C279.407 304.792 280.843 304.792 282.279 304.792C282.367 304.792 282.371 304.796 282.371 304.885C282.371 305.252 282.371 305.62 282.371 305.987C282.371 306.09 282.37 306.091 282.269 306.091Z" fill="#D9D9D9"/>
<path d="M279.74 302.63H280.053L280.599 304.083H280.296L280.177 303.736H279.617L279.497 304.083H279.194L279.74 302.63ZM280.087 303.485L279.958 303.121L279.905 302.945H279.889L279.836 303.121L279.706 303.485H280.087Z" fill="#D9D9D9"/>
<path d="M280.885 302.955C280.862 302.955 280.84 302.95 280.819 302.941C280.798 302.933 280.78 302.92 280.764 302.905C280.749 302.889 280.736 302.871 280.728 302.851C280.719 302.831 280.714 302.808 280.714 302.784C280.714 302.76 280.719 302.737 280.728 302.717C280.736 302.697 280.749 302.679 280.764 302.663C280.779 302.648 280.798 302.636 280.819 302.627C280.84 302.618 280.862 302.614 280.885 302.614C280.932 302.614 280.973 302.63 281.007 302.663C281.041 302.697 281.058 302.737 281.058 302.784C281.058 302.831 281.041 302.872 281.007 302.905C280.973 302.938 280.932 302.955 280.885 302.955ZM280.753 304.083V303.089H281.019V304.083H280.753Z" fill="#D9D9D9"/>
<path d="M290.032 302.359C290.031 302.134 289.856 301.969 289.629 301.965C289.459 301.963 289.476 301.987 289.476 301.806C289.475 301.604 289.475 301.402 289.476 301.2C289.477 301.13 289.456 301.073 289.41 301.02C288.979 300.53 288.549 300.038 288.118 299.546C288.096 299.521 288.068 299.502 288.042 299.479C286.899 299.479 285.756 299.479 284.612 299.479C284.466 299.533 284.402 299.639 284.403 299.794C284.405 300.483 284.403 301.173 284.403 301.862C284.403 301.965 284.403 301.971 284.302 301.964C284.027 301.945 283.839 302.145 283.843 302.422C283.851 303.062 283.845 303.701 283.845 304.341C283.846 304.632 284.005 304.791 284.296 304.792C284.403 304.792 284.403 304.792 284.403 304.902C284.403 305.31 284.403 305.719 284.403 306.127C284.404 306.346 284.51 306.453 284.729 306.453C286.203 306.453 287.678 306.453 289.152 306.453C289.367 306.453 289.475 306.346 289.475 306.132C289.476 305.717 289.475 305.302 289.476 304.886C289.476 304.792 289.476 304.792 289.571 304.792C289.621 304.791 289.671 304.793 289.72 304.781C289.903 304.736 290.031 304.589 290.032 304.4C290.035 303.72 290.035 303.039 290.032 302.359ZM284.797 299.758C285.779 299.758 286.761 299.758 287.743 299.758C287.844 299.758 287.845 299.759 287.845 299.861C287.845 300.274 287.845 300.686 287.845 301.099C287.845 301.249 287.891 301.294 288.04 301.294C288.391 301.294 288.743 301.294 289.095 301.294C289.179 301.294 289.183 301.298 289.183 301.383C289.184 301.546 289.183 301.71 289.183 301.873C289.183 301.961 289.179 301.965 289.09 301.965C288.374 301.965 287.657 301.965 286.94 301.965C286.226 301.965 285.512 301.965 284.797 301.965C284.696 301.965 284.696 301.965 284.696 301.862C284.696 301.195 284.696 300.528 284.696 299.861C284.696 299.759 284.697 299.758 284.797 299.758ZM289.081 306.091C288.367 306.091 287.653 306.091 286.938 306.091C286.226 306.091 285.513 306.091 284.801 306.091C284.696 306.091 284.695 306.09 284.695 305.984C284.695 305.617 284.695 305.249 284.696 304.882C284.696 304.796 284.7 304.792 284.784 304.792C286.219 304.792 287.655 304.792 289.091 304.792C289.179 304.792 289.183 304.796 289.183 304.885C289.183 305.252 289.183 305.62 289.183 305.987C289.183 306.09 289.182 306.091 289.081 306.091Z" fill="#D9D9D9"/>
<path d="M285.49 304.116C285.428 304.116 285.369 304.107 285.312 304.089C285.255 304.072 285.203 304.045 285.155 304.01C285.108 303.975 285.067 303.932 285.032 303.881C284.997 303.831 284.969 303.771 284.948 303.704L285.206 303.602C285.225 303.675 285.258 303.736 285.306 303.784C285.353 303.832 285.415 303.856 285.492 303.856C285.521 303.856 285.548 303.852 285.575 303.845C285.601 303.838 285.625 303.827 285.646 303.812C285.667 303.798 285.683 303.78 285.695 303.759C285.707 303.737 285.714 303.712 285.714 303.684C285.714 303.657 285.709 303.632 285.699 303.611C285.69 303.589 285.674 303.569 285.652 303.55C285.629 303.531 285.6 303.513 285.564 303.495C285.528 303.477 285.484 303.459 285.431 303.44L285.342 303.408C285.303 303.394 285.263 303.376 285.224 303.353C285.184 303.33 285.148 303.302 285.115 303.27C285.082 303.237 285.056 303.199 285.035 303.155C285.014 303.111 285.003 303.061 285.003 303.006C285.003 302.949 285.014 302.896 285.037 302.847C285.059 302.797 285.091 302.754 285.132 302.717C285.173 302.68 285.223 302.651 285.28 302.63C285.338 302.609 285.402 302.598 285.472 302.598C285.545 302.598 285.608 302.608 285.662 302.628C285.715 302.647 285.76 302.672 285.798 302.703C285.835 302.733 285.865 302.767 285.888 302.803C285.911 302.84 285.928 302.874 285.939 302.907L285.697 303.008C285.684 302.967 285.659 302.931 285.623 302.898C285.588 302.866 285.538 302.85 285.476 302.85C285.417 302.85 285.367 302.863 285.328 302.891C285.289 302.919 285.269 302.955 285.269 303C285.269 303.043 285.288 303.08 285.326 303.11C285.364 303.141 285.424 303.17 285.507 303.199L285.598 303.229C285.656 303.249 285.71 303.273 285.758 303.299C285.806 303.325 285.847 303.357 285.881 303.394C285.916 303.43 285.942 303.472 285.96 303.518C285.979 303.565 285.988 303.619 285.988 303.68C285.988 303.755 285.973 303.821 285.942 303.875C285.912 303.93 285.873 303.975 285.826 304.01C285.778 304.046 285.725 304.072 285.665 304.09C285.605 304.107 285.547 304.116 285.49 304.116Z" fill="#D9D9D9"/>
<path d="M286.071 302.63H286.367L286.668 303.505L286.72 303.691H286.737L286.793 303.505L287.106 302.63H287.402L286.873 304.083H286.584L286.071 302.63Z" fill="#D9D9D9"/>
<path d="M288.202 303.285H288.914C288.918 303.302 288.921 303.321 288.924 303.344C288.927 303.367 288.928 303.39 288.928 303.413C288.928 303.507 288.914 303.595 288.886 303.677C288.857 303.76 288.813 303.833 288.752 303.898C288.687 303.967 288.609 304.021 288.518 304.059C288.428 304.097 288.324 304.115 288.208 304.115C288.102 304.115 288.003 304.097 287.91 304.059C287.816 304.021 287.735 303.968 287.666 303.9C287.597 303.833 287.542 303.753 287.501 303.66C287.461 303.567 287.441 303.466 287.441 303.356C287.441 303.247 287.461 303.146 287.501 303.053C287.542 302.96 287.597 302.88 287.666 302.813C287.735 302.745 287.816 302.692 287.91 302.654C288.003 302.616 288.102 302.597 288.208 302.597C288.326 302.597 288.431 302.618 288.523 302.658C288.616 302.699 288.696 302.755 288.762 302.827L288.573 303.011C288.526 302.961 288.473 302.923 288.415 302.897C288.357 302.871 288.287 302.857 288.206 302.857C288.139 302.857 288.076 302.869 288.017 302.893C287.957 302.917 287.905 302.95 287.861 302.993C287.816 303.036 287.78 303.089 287.754 303.151C287.728 303.212 287.715 303.281 287.715 303.356C287.715 303.432 287.728 303.501 287.754 303.563C287.78 303.624 287.816 303.677 287.862 303.72C287.907 303.763 287.959 303.797 288.019 303.82C288.078 303.844 288.142 303.856 288.21 303.856C288.287 303.856 288.352 303.845 288.405 303.822C288.459 303.8 288.505 303.771 288.543 303.736C288.57 303.712 288.593 303.681 288.612 303.644C288.632 303.607 288.647 303.565 288.658 303.519H288.201V303.285H288.202Z" fill="#D9D9D9"/>
<path d="M296.703 302.359C296.702 302.134 296.527 301.969 296.3 301.965C296.13 301.963 296.147 301.987 296.147 301.806C296.146 301.604 296.146 301.402 296.147 301.2C296.148 301.13 296.127 301.073 296.081 301.02C295.65 300.53 295.22 300.038 294.789 299.546C294.767 299.521 294.739 299.502 294.713 299.479C293.57 299.479 292.427 299.479 291.283 299.479C291.137 299.533 291.074 299.639 291.074 299.794C291.076 300.483 291.075 301.173 291.075 301.862C291.075 301.965 291.074 301.971 290.973 301.964C290.698 301.945 290.51 302.145 290.514 302.422C290.522 303.062 290.516 303.701 290.517 304.341C290.517 304.632 290.676 304.791 290.967 304.792C291.074 304.792 291.074 304.792 291.074 304.902C291.074 305.31 291.074 305.719 291.075 306.127C291.075 306.346 291.181 306.453 291.4 306.453C292.874 306.453 294.349 306.453 295.823 306.453C296.038 306.453 296.146 306.346 296.147 306.132C296.147 305.717 296.147 305.302 296.147 304.886C296.147 304.792 296.147 304.792 296.242 304.792C296.292 304.791 296.342 304.793 296.391 304.781C296.575 304.736 296.702 304.589 296.703 304.4C296.706 303.72 296.706 303.039 296.703 302.359ZM291.468 299.758C292.45 299.758 293.432 299.758 294.414 299.758C294.515 299.758 294.516 299.759 294.516 299.861C294.516 300.274 294.516 300.686 294.516 301.099C294.517 301.249 294.562 301.294 294.711 301.294C295.063 301.294 295.414 301.294 295.766 301.294C295.85 301.294 295.854 301.298 295.854 301.383C295.855 301.546 295.855 301.71 295.854 301.873C295.854 301.961 295.85 301.965 295.762 301.965C295.045 301.965 294.328 301.965 293.612 301.965C292.897 301.965 292.183 301.965 291.469 301.965C291.368 301.965 291.367 301.965 291.367 301.862C291.367 301.195 291.367 300.528 291.367 299.861C291.367 299.759 291.368 299.758 291.468 299.758ZM295.753 306.091C295.038 306.091 294.324 306.091 293.609 306.091C292.897 306.091 292.185 306.091 291.472 306.091C291.367 306.091 291.367 306.09 291.367 305.984C291.367 305.617 291.367 305.249 291.367 304.882C291.367 304.796 291.371 304.792 291.455 304.792C292.891 304.792 294.327 304.792 295.762 304.792C295.85 304.792 295.854 304.796 295.854 304.885C295.854 305.252 295.854 305.62 295.854 305.987C295.854 306.09 295.853 306.091 295.753 306.091Z" fill="#D9D9D9"/>
<path d="M292.226 302.89V303.227H292.808V303.486H292.226V303.823H292.873V304.083H291.952V302.63H292.873V302.89L292.226 302.89Z" fill="#D9D9D9"/>
<path d="M293.125 304.083V302.63H293.636C293.705 302.63 293.77 302.641 293.83 302.664C293.89 302.686 293.942 302.717 293.987 302.758C294.032 302.799 294.067 302.847 294.093 302.903C294.119 302.959 294.131 303.021 294.131 303.089C294.131 303.158 294.118 303.22 294.093 303.277C294.067 303.333 294.032 303.381 293.987 303.422C293.942 303.462 293.89 303.494 293.83 303.516C293.77 303.538 293.705 303.55 293.636 303.55H293.399V304.083H293.125V304.083ZM293.64 303.29C293.712 303.29 293.766 303.269 293.802 303.229C293.839 303.188 293.857 303.141 293.857 303.089C293.857 303.063 293.853 303.038 293.844 303.014C293.835 302.989 293.822 302.968 293.803 302.95C293.785 302.932 293.763 302.917 293.735 302.906C293.708 302.895 293.676 302.89 293.64 302.89H293.399V303.29H293.64Z" fill="#D9D9D9"/>
<path d="M294.771 304.116C294.708 304.116 294.649 304.107 294.592 304.089C294.535 304.072 294.483 304.045 294.436 304.01C294.388 303.975 294.347 303.932 294.312 303.881C294.277 303.831 294.249 303.771 294.229 303.704L294.487 303.602C294.505 303.675 294.539 303.736 294.586 303.784C294.633 303.832 294.696 303.856 294.773 303.856C294.801 303.856 294.829 303.852 294.855 303.845C294.881 303.838 294.905 303.827 294.926 303.812C294.947 303.798 294.964 303.78 294.976 303.759C294.988 303.737 294.994 303.712 294.994 303.684C294.994 303.657 294.989 303.632 294.98 303.611C294.971 303.589 294.955 303.569 294.932 303.55C294.91 303.531 294.881 303.513 294.845 303.495C294.809 303.477 294.765 303.459 294.712 303.44L294.623 303.408C294.584 303.394 294.544 303.376 294.504 303.353C294.464 303.33 294.428 303.302 294.396 303.27C294.363 303.237 294.336 303.199 294.315 303.155C294.294 303.111 294.284 303.061 294.284 303.006C294.284 302.949 294.295 302.896 294.317 302.847C294.34 302.797 294.372 302.754 294.413 302.717C294.454 302.68 294.503 302.651 294.561 302.63C294.618 302.609 294.682 302.598 294.753 302.598C294.826 302.598 294.889 302.608 294.942 302.628C294.996 302.647 295.041 302.672 295.078 302.703C295.115 302.733 295.145 302.767 295.169 302.803C295.192 302.84 295.209 302.874 295.219 302.907L294.978 303.008C294.964 302.967 294.94 302.931 294.904 302.898C294.868 302.866 294.819 302.85 294.757 302.85C294.697 302.85 294.648 302.863 294.609 302.891C294.57 302.919 294.55 302.955 294.55 303C294.55 303.043 294.569 303.08 294.607 303.11C294.645 303.141 294.705 303.17 294.787 303.199L294.879 303.229C294.937 303.249 294.99 303.273 295.038 303.299C295.086 303.325 295.127 303.357 295.162 303.394C295.196 303.43 295.223 303.472 295.241 303.518C295.259 303.565 295.268 303.619 295.268 303.68C295.268 303.755 295.253 303.821 295.223 303.875C295.192 303.93 295.153 303.975 295.106 304.01C295.059 304.046 295.005 304.072 294.946 304.09C294.886 304.107 294.827 304.116 294.771 304.116Z" fill="#D9D9D9"/>
<path d="M301.136 303.807L301.873 302.89H301.169V302.63H302.192V302.906L301.463 303.823H302.2V304.083H301.137L301.136 303.807Z" fill="#D9D9D9"/>
<path d="M302.427 302.63H302.701V304.083H302.427V302.63Z" fill="#D9D9D9"/>
<path d="M302.993 304.083V302.63H303.505C303.574 302.63 303.638 302.641 303.698 302.664C303.759 302.686 303.811 302.717 303.856 302.758C303.901 302.799 303.936 302.847 303.961 302.903C303.987 302.959 304 303.021 304 303.089C304 303.158 303.987 303.22 303.961 303.276C303.936 303.333 303.901 303.381 303.856 303.422C303.811 303.462 303.759 303.494 303.698 303.516C303.638 303.538 303.574 303.55 303.505 303.55H303.267V304.083H302.993V304.083ZM303.509 303.29C303.581 303.29 303.635 303.269 303.671 303.229C303.708 303.188 303.726 303.141 303.726 303.089C303.726 303.063 303.722 303.038 303.713 303.014C303.704 302.989 303.691 302.968 303.672 302.95C303.654 302.931 303.631 302.917 303.604 302.906C303.577 302.895 303.545 302.89 303.509 302.89H303.267V303.29H303.509Z" fill="#D9D9D9"/>
</g>
<g opacity="0.61">
<path d="M297.224 302.722H298.893V303.134H297.224V302.722ZM297.224 303.433H298.893V303.846H297.224V303.433Z" fill="#D9D9D9"/>
</g>
<g opacity="0.61">
<path d="M270.843 311.114H271.139C271.371 311.114 271.528 311.263 271.528 311.477C271.528 311.69 271.371 311.84 271.139 311.84H270.843V311.114ZM271.135 311.773C271.328 311.773 271.452 311.651 271.452 311.477C271.452 311.303 271.327 311.18 271.135 311.18H270.92V311.773H271.135Z" fill="#D9D9D9"/>
<path d="M272.386 311.477C272.386 311.265 272.547 311.107 272.767 311.107C272.985 311.107 273.148 311.264 273.148 311.477C273.148 311.689 272.985 311.846 272.767 311.846C272.548 311.846 272.386 311.688 272.386 311.477ZM273.071 311.477C273.071 311.303 272.942 311.176 272.767 311.176C272.592 311.176 272.461 311.303 272.461 311.477C272.461 311.65 272.592 311.777 272.767 311.777C272.942 311.777 273.071 311.65 273.071 311.477Z" fill="#D9D9D9"/>
<path d="M275.046 311.114L274.801 311.84H274.72L274.507 311.22L274.294 311.84H274.214L273.969 311.114H274.048L274.257 311.738L274.474 311.114H274.546L274.759 311.741L274.972 311.114H275.046Z" fill="#D9D9D9"/>
<path d="M276.543 311.114V311.84H276.479L276.012 311.251V311.84H275.936V311.114H275.999L276.467 311.703V311.114H276.543Z" fill="#D9D9D9"/>
<path d="M277.529 311.114H277.606V311.773H278.013V311.84H277.529V311.114Z" fill="#D9D9D9"/>
<path d="M278.811 311.477C278.811 311.265 278.973 311.107 279.193 311.107C279.411 311.107 279.574 311.264 279.574 311.477C279.574 311.689 279.411 311.846 279.193 311.846C278.973 311.846 278.811 311.688 278.811 311.477ZM279.497 311.477C279.497 311.303 279.367 311.176 279.193 311.176C279.018 311.176 278.887 311.303 278.887 311.477C278.887 311.65 279.018 311.777 279.193 311.777C279.367 311.777 279.497 311.65 279.497 311.477Z" fill="#D9D9D9"/>
<path d="M280.941 311.646H280.536L280.449 311.84H280.369L280.701 311.113H280.777L281.109 311.84H281.028L280.941 311.646ZM280.913 311.584L280.739 311.193L280.565 311.584H280.913Z" fill="#D9D9D9"/>
<path d="M281.98 311.114H282.275C282.508 311.114 282.664 311.263 282.664 311.477C282.664 311.69 282.508 311.84 282.275 311.84H281.98V311.114ZM282.271 311.773C282.464 311.773 282.588 311.651 282.588 311.477C282.588 311.302 282.464 311.18 282.271 311.18H282.056V311.773H282.271Z" fill="#D9D9D9"/>
<path d="M285.064 311.646H284.659L284.572 311.84H284.492L284.824 311.113H284.9L285.232 311.84H285.151L285.064 311.646ZM285.036 311.584L284.861 311.193L284.687 311.584H285.036Z" fill="#D9D9D9"/>
<path d="M286.102 311.114H286.179V311.773H286.585V311.84H286.102V311.114Z" fill="#D9D9D9"/>
<path d="M287.463 311.114H287.54V311.773H287.947V311.84H287.463V311.114Z" fill="#D9D9D9"/>
<path d="M289.923 311.18V311.465H290.298V311.532H289.923V311.84H289.846V311.114H290.344V311.18L289.923 311.18Z" fill="#D9D9D9"/>
<path d="M291.253 311.114H291.33V311.84H291.253V311.114Z" fill="#D9D9D9"/>
<path d="M292.316 311.114H292.393V311.773H292.799V311.84H292.316V311.114Z" fill="#D9D9D9"/>
<path d="M294.191 311.773V311.84H293.677V311.114H294.175V311.18H293.754V311.438H294.129V311.504H293.754V311.773H294.191Z" fill="#D9D9D9"/>
<path d="M296.22 311.18V311.465H296.595V311.532H296.22V311.84H296.143V311.114H296.641V311.18L296.22 311.18Z" fill="#D9D9D9"/>
<path d="M297.476 311.477C297.476 311.265 297.638 311.107 297.858 311.107C298.076 311.107 298.239 311.264 298.239 311.477C298.239 311.689 298.076 311.846 297.858 311.846C297.638 311.846 297.476 311.688 297.476 311.477ZM298.162 311.477C298.162 311.303 298.032 311.176 297.858 311.176C297.682 311.176 297.552 311.303 297.552 311.477C297.552 311.65 297.682 311.777 297.858 311.777C298.032 311.777 298.162 311.65 298.162 311.477Z" fill="#D9D9D9"/>
<path d="M299.657 311.84L299.491 311.606C299.472 311.608 299.453 311.609 299.433 311.609H299.237V311.84H299.161V311.114H299.433C299.617 311.114 299.729 311.207 299.729 311.362C299.729 311.477 299.669 311.556 299.563 311.591L299.741 311.84H299.657V311.84ZM299.652 311.362C299.652 311.246 299.576 311.18 299.43 311.18H299.237V311.544H299.43C299.576 311.544 299.652 311.477 299.652 311.362Z" fill="#D9D9D9"/>
<path d="M301.415 311.114V311.84H301.341V311.259L301.056 311.747H301.02L300.734 311.262V311.84H300.661V311.113H300.724L301.039 311.652L301.352 311.113L301.415 311.114Z" fill="#D9D9D9"/>
<path d="M302.857 311.646H302.452L302.365 311.84H302.285L302.617 311.113H302.693L303.025 311.84H302.944L302.857 311.646ZM302.829 311.584L302.655 311.193L302.48 311.584H302.829Z" fill="#D9D9D9"/>
<path d="M304 311.18H303.745V311.114H304.332V311.18H304.077V311.84H304V311.18H304Z" fill="#D9D9D9"/>
<path d="M305.124 311.752L305.154 311.693C305.206 311.743 305.298 311.781 305.393 311.781C305.529 311.781 305.588 311.724 305.588 311.652C305.588 311.453 305.141 311.575 305.141 311.307C305.141 311.2 305.224 311.107 305.409 311.107C305.491 311.107 305.576 311.131 305.634 311.172L305.608 311.233C305.546 311.193 305.473 311.173 305.409 311.173C305.276 311.173 305.217 311.232 305.217 311.305C305.217 311.504 305.664 311.384 305.664 311.648C305.664 311.755 305.579 311.846 305.393 311.846C305.284 311.846 305.178 311.808 305.124 311.752Z" fill="#D9D9D9"/>
</g>
<path d="M249.912 241.996L287.494 228.606L326.088 241.758L319.839 291.481L287.494 309.394L255.655 291.719L249.912 241.996Z" fill="#2F2F2F"/>
<path d="M326.088 241.758L287.494 228.606V309.394L319.839 291.51L326.088 241.758Z" fill="#2F2F2F"/>
<path d="M287.554 238.039L264.135 290.142L272.884 289.993L277.585 278.239H287.583H287.613H298.593L303.741 290.142L312.102 290.291L287.554 238.039ZM287.613 254.732L295.528 271.276H287.941H287.554H280.65L287.613 254.732Z" fill="#D9D9D9"/>
<path d="M502.895 257.569H489.323V231H502.895C510.22 231 516.178 236.958 516.178 244.283C516.178 251.608 510.22 257.569 502.895 257.569ZM493.674 253.217H502.895C507.821 253.217 511.827 249.209 511.827 244.286C511.827 239.363 507.818 235.355 502.895 235.355H493.674V253.217ZM493.674 257.569H480.104C472.78 257.569 466.822 251.611 466.822 244.286C466.822 236.961 472.78 231 480.104 231H493.677V257.569H493.674ZM480.104 235.352C475.179 235.352 471.173 239.36 471.173 244.283C471.173 249.206 475.179 253.217 480.104 253.217H489.326V235.352H480.104ZM493.674 279.783H480.104C472.78 279.783 466.822 273.825 466.822 266.5C466.822 259.175 472.78 253.217 480.104 253.217H493.677V279.783H493.674ZM480.104 257.569C475.179 257.569 471.173 261.577 471.173 266.5C471.173 271.423 475.182 275.431 480.104 275.431H489.326V257.569H480.104ZM480.175 302C472.812 302 466.819 296.042 466.819 288.717C466.819 281.392 472.777 275.434 480.102 275.434H493.674V288.572C493.674 295.977 487.619 302 480.175 302ZM480.104 279.783C477.737 279.786 475.467 280.728 473.793 282.402C472.118 284.077 471.176 286.346 471.173 288.714C471.173 293.64 475.211 297.645 480.178 297.645C485.222 297.645 489.329 293.575 489.329 288.569V279.783H480.104ZM502.895 279.783H502.606C495.281 279.783 489.323 273.825 489.323 266.5C489.323 259.175 495.281 253.217 502.606 253.217H502.895C510.22 253.217 516.178 259.175 516.178 266.5C516.178 273.825 510.22 279.783 502.895 279.783ZM502.609 257.569C497.683 257.569 493.677 261.577 493.677 266.5C493.677 271.423 497.686 275.431 502.609 275.431H502.898C507.824 275.431 511.83 271.423 511.83 266.5C511.83 261.577 507.818 257.569 502.895 257.569H502.609Z" fill="#2F2F2F"/>
<defs>
<clipPath id="clip0_73_12">
<rect width="61" height="56" fill="white" transform="translate(257 651)"/>
</clipPath>
<clipPath id="clip1_73_12">
<rect width="80" height="49" fill="white" transform="translate(44 654)"/>
</clipPath>
</defs>
</svg>
