<svg width="870" height="742" viewBox="0 0 870 742" fill="none" xmlns="http://www.w3.org/2000/svg">
<path d="M51.0386 65C48.2754 65 46.1623 67.1157 46.1623 69.8824C46.1623 72.649 48.2754 74.7647 51.0386 74.7647C53.8018 74.7647 55.9149 72.649 55.9149 69.8824C55.9149 67.1157 53.8018 65 51.0386 65ZM51.0386 112.847C48.2754 112.847 46.1623 114.963 46.1623 117.729C46.1623 120.496 48.2754 122.612 51.0386 122.612C53.8018 122.612 55.9149 120.496 55.9149 117.729C55.9149 114.963 53.8018 112.847 51.0386 112.847ZM51.0386 160.694C48.2754 160.694 46.1623 162.81 46.1623 165.576C46.1623 168.343 48.2754 170.459 51.0386 170.459C53.8018 170.459 55.9149 168.343 55.9149 165.576C55.9149 162.81 53.8018 160.694 51.0386 160.694ZM51.0386 208.541C48.2754 208.541 46.1623 210.657 46.1623 213.424C46.1623 216.19 48.2754 218.306 51.0386 218.306C53.8018 218.306 55.9149 216.19 55.9149 213.424C55.9149 210.657 53.8018 208.541 51.0386 208.541ZM97.3635 304.235C94.6002 304.235 92.4872 306.351 92.4872 309.118C92.4872 311.884 94.6002 314 97.3635 314C100.127 314 102.24 311.884 102.24 309.118C102.24 306.351 99.9642 304.235 97.3635 304.235ZM97.3635 160.694C94.6002 160.694 92.4872 162.81 92.4872 165.576C92.4872 168.343 94.6002 170.459 97.3635 170.459C100.127 170.459 102.24 168.343 102.24 165.576C102.24 162.81 99.9642 160.694 97.3635 160.694ZM97.3635 112.847C94.6002 112.847 92.4872 114.963 92.4872 117.729C92.4872 120.496 94.6002 122.612 97.3635 122.612C100.127 122.612 102.24 120.496 102.24 117.729C102.24 114.963 99.9642 112.847 97.3635 112.847ZM97.3635 256.388C94.6002 256.388 92.4872 258.504 92.4872 261.271C92.4872 264.037 94.6002 266.153 97.3635 266.153C100.127 266.153 102.24 264.037 102.24 261.271C102.24 258.504 99.9642 256.388 97.3635 256.388ZM97.3635 208.541C94.6002 208.541 92.4872 210.657 92.4872 213.424C92.4872 216.19 94.6002 218.306 97.3635 218.306C100.127 218.306 102.24 216.19 102.24 213.424C102.24 210.657 99.9642 208.541 97.3635 208.541ZM236.013 74.7647C238.776 74.7647 240.889 72.649 240.889 69.8824C240.889 67.1157 238.776 65 236.013 65C233.25 65 231.137 67.1157 231.137 69.8824C231.137 72.649 233.25 74.7647 236.013 74.7647ZM4.8763 160.694C2.11306 160.694 0 162.81 0 165.576C0 168.343 2.11306 170.459 4.8763 170.459C7.63954 170.459 9.7526 168.343 9.7526 165.576C9.7526 162.81 7.63954 160.694 4.8763 160.694ZM4.8763 256.388C2.11306 256.388 0 258.504 0 261.271C0 264.037 2.11306 266.153 4.8763 266.153C7.63954 266.153 9.7526 264.037 9.7526 261.271C9.7526 258.504 7.63954 256.388 4.8763 256.388ZM4.8763 208.541C2.11306 208.541 0 210.657 0 213.424C0 216.19 2.11306 218.306 4.8763 218.306C7.63954 218.306 9.7526 216.19 9.7526 213.424C9.7526 210.657 7.63954 208.541 4.8763 208.541ZM4.8763 304.235C2.11306 304.235 0 306.351 0 309.118C0 311.884 2.11306 314 4.8763 314C7.63954 314 9.7526 311.884 9.7526 309.118C9.7526 306.351 7.63954 304.235 4.8763 304.235ZM51.0386 256.388C48.2754 256.388 46.1623 258.504 46.1623 261.271C46.1623 264.037 48.2754 266.153 51.0386 266.153C53.8018 266.153 55.9149 264.037 55.9149 261.271C55.9149 258.504 53.8018 256.388 51.0386 256.388ZM51.0386 304.235C48.2754 304.235 46.1623 306.351 46.1623 309.118C46.1623 311.884 48.2754 314 51.0386 314C53.8018 314 55.9149 311.884 55.9149 309.118C55.9149 306.351 53.8018 304.235 51.0386 304.235ZM4.8763 112.847C2.11306 112.847 0 114.963 0 117.729C0 120.496 2.11306 122.612 4.8763 122.612C7.63954 122.612 9.7526 120.496 9.7526 117.729C9.7526 114.963 7.63954 112.847 4.8763 112.847ZM4.8763 65C2.11306 65 0 67.1157 0 69.8824C0 72.649 2.11306 74.7647 4.8763 74.7647C7.63954 74.7647 9.7526 72.649 9.7526 69.8824C9.7526 67.1157 7.63954 65 4.8763 65ZM97.3635 65C94.6002 65 92.4872 67.1157 92.4872 69.8824C92.4872 72.649 94.6002 74.7647 97.3635 74.7647C100.127 74.7647 102.24 72.649 102.24 69.8824C102.24 67.1157 99.9642 65 97.3635 65ZM236.013 256.388C233.25 256.388 231.137 258.504 231.137 261.271C231.137 264.037 233.25 266.153 236.013 266.153C238.776 266.153 240.889 264.037 240.889 261.271C240.889 258.504 238.614 256.388 236.013 256.388ZM189.688 65C186.925 65 184.812 67.1157 184.812 69.8824C184.812 72.649 186.925 74.7647 189.688 74.7647C192.451 74.7647 194.564 72.649 194.564 69.8824C194.564 67.1157 192.451 65 189.688 65ZM236.013 304.235C233.25 304.235 231.137 306.351 231.137 309.118C231.137 311.884 233.25 314 236.013 314C238.776 314 240.889 311.884 240.889 309.118C240.889 306.351 238.614 304.235 236.013 304.235ZM189.688 112.847C186.925 112.847 184.812 114.963 184.812 117.729C184.812 120.496 186.925 122.612 189.688 122.612C192.451 122.612 194.564 120.496 194.564 117.729C194.564 114.963 192.451 112.847 189.688 112.847ZM236.013 208.541C233.25 208.541 231.137 210.657 231.137 213.424C231.137 216.19 233.25 218.306 236.013 218.306C238.776 218.306 240.889 216.19 240.889 213.424C240.889 210.657 238.614 208.541 236.013 208.541ZM236.013 112.847C233.25 112.847 231.137 114.963 231.137 117.729C231.137 120.496 233.25 122.612 236.013 122.612C238.776 122.612 240.889 120.496 240.889 117.729C240.889 114.963 238.614 112.847 236.013 112.847ZM189.688 160.694C186.925 160.694 184.812 162.81 184.812 165.576C184.812 168.343 186.925 170.459 189.688 170.459C192.451 170.459 194.564 168.343 194.564 165.576C194.564 162.81 192.451 160.694 189.688 160.694ZM236.013 160.694C233.25 160.694 231.137 162.81 231.137 165.576C231.137 168.343 233.25 170.459 236.013 170.459C238.776 170.459 240.889 168.343 240.889 165.576C240.889 162.81 238.614 160.694 236.013 160.694ZM143.526 160.694C140.763 160.694 138.649 162.81 138.649 165.576C138.649 168.343 140.763 170.459 143.526 170.459C146.289 170.459 148.402 168.343 148.402 165.576C148.402 162.81 146.289 160.694 143.526 160.694ZM143.526 208.541C140.763 208.541 138.649 210.657 138.649 213.424C138.649 216.19 140.763 218.306 143.526 218.306C146.289 218.306 148.402 216.19 148.402 213.424C148.402 210.657 146.289 208.541 143.526 208.541ZM143.526 304.235C140.763 304.235 138.649 306.351 138.649 309.118C138.649 311.884 140.763 314 143.526 314C146.289 314 148.402 311.884 148.402 309.118C148.402 306.351 146.289 304.235 143.526 304.235ZM143.526 112.847C140.763 112.847 138.649 114.963 138.649 117.729C138.649 120.496 140.763 122.612 143.526 122.612C146.289 122.612 148.402 120.496 148.402 117.729C148.402 114.963 146.289 112.847 143.526 112.847ZM143.526 256.388C140.763 256.388 138.649 258.504 138.649 261.271C138.649 264.037 140.763 266.153 143.526 266.153C146.289 266.153 148.402 264.037 148.402 261.271C148.402 258.504 146.289 256.388 143.526 256.388ZM189.688 256.388C186.925 256.388 184.812 258.504 184.812 261.271C184.812 264.037 186.925 266.153 189.688 266.153C192.451 266.153 194.564 264.037 194.564 261.271C194.564 258.504 192.451 256.388 189.688 256.388ZM189.688 208.541C186.925 208.541 184.812 210.657 184.812 213.424C184.812 216.19 186.925 218.306 189.688 218.306C192.451 218.306 194.564 216.19 194.564 213.424C194.564 210.657 192.451 208.541 189.688 208.541ZM189.688 304.235C186.925 304.235 184.812 306.351 184.812 309.118C184.812 311.884 186.925 314 189.688 314C192.451 314 194.564 311.884 194.564 309.118C194.564 306.351 192.451 304.235 189.688 304.235ZM143.526 65C140.763 65 138.649 67.1157 138.649 69.8824C138.649 72.649 140.763 74.7647 143.526 74.7647C146.289 74.7647 148.402 72.649 148.402 69.8824C148.402 67.1157 146.289 65 143.526 65Z" fill="#FF9E15"/>
<path d="M79 70C79 31.3401 110.34 0 149 0H671C709.66 0 741 31.3401 741 70V434H149C110.34 434 79 402.66 79 364V70Z" fill="#FF9E15"/>
<path d="M241 161H800C838.66 161 870 192.34 870 231V672C870 710.66 838.66 742 800 742H311C272.34 742 241 710.66 241 672V161Z" fill="#FF9E15"/>
<path d="M241 231C241 192.34 272.34 161 311 161H615C653.66 161 685 192.34 685 231V742H311C272.34 742 241 710.66 241 672V231Z" fill="#2F2F2F"/>
<circle cx="815" cy="88" r="55" fill="#D9D9D9"/>
<circle cx="160" cy="507" r="55" fill="#D9D9D9"/>
<circle cx="160" cy="661" r="55" fill="#D9D9D9"/>
<path d="M141 675.24L118.92 664.424V659.176L140.616 648.616L143.176 654.568L130.76 660.136C130.12 660.477 129.437 660.797 128.712 661.096C128.029 661.352 127.411 661.587 126.856 661.8C127.411 662.013 128.029 662.269 128.712 662.568C129.437 662.824 130.141 663.123 130.824 663.464L143.56 669.288L141 675.24ZM165.837 634.344H173.453L153.101 689.064H145.485L165.837 634.344ZM175.373 669.288L188.109 663.464C188.749 663.165 189.41 662.867 190.093 662.568C190.818 662.269 191.479 662.013 192.077 661.8C191.479 661.587 190.839 661.352 190.157 661.096C189.474 660.797 188.813 660.477 188.173 660.136L175.757 654.568L178.317 648.616L200.013 659.176V664.424L177.933 675.24L175.373 669.288Z" fill="#2F2F2F"/>
<path d="M625.039 223C622.275 223 620.162 225.116 620.162 227.882C620.162 230.649 622.275 232.765 625.039 232.765C627.802 232.765 629.915 230.649 629.915 227.882C629.915 225.116 627.802 223 625.039 223ZM625.039 270.847C622.275 270.847 620.162 272.963 620.162 275.729C620.162 278.496 622.275 280.612 625.039 280.612C627.802 280.612 629.915 278.496 629.915 275.729C629.915 272.963 627.802 270.847 625.039 270.847ZM625.039 318.694C622.275 318.694 620.162 320.81 620.162 323.576C620.162 326.343 622.275 328.459 625.039 328.459C627.802 328.459 629.915 326.343 629.915 323.576C629.915 320.81 627.802 318.694 625.039 318.694ZM625.039 366.541C622.275 366.541 620.162 368.657 620.162 371.424C620.162 374.19 622.275 376.306 625.039 376.306C627.802 376.306 629.915 374.19 629.915 371.424C629.915 368.657 627.802 366.541 625.039 366.541ZM671.363 462.235C668.6 462.235 666.487 464.351 666.487 467.118C666.487 469.884 668.6 472 671.363 472C674.127 472 676.24 469.884 676.24 467.118C676.24 464.351 673.964 462.235 671.363 462.235ZM671.363 318.694C668.6 318.694 666.487 320.81 666.487 323.576C666.487 326.343 668.6 328.459 671.363 328.459C674.127 328.459 676.24 326.343 676.24 323.576C676.24 320.81 673.964 318.694 671.363 318.694ZM671.363 270.847C668.6 270.847 666.487 272.963 666.487 275.729C666.487 278.496 668.6 280.612 671.363 280.612C674.127 280.612 676.24 278.496 676.24 275.729C676.24 272.963 673.964 270.847 671.363 270.847ZM671.363 414.388C668.6 414.388 666.487 416.504 666.487 419.271C666.487 422.037 668.6 424.153 671.363 424.153C674.127 424.153 676.24 422.037 676.24 419.271C676.24 416.504 673.964 414.388 671.363 414.388ZM671.363 366.541C668.6 366.541 666.487 368.657 666.487 371.424C666.487 374.19 668.6 376.306 671.363 376.306C674.127 376.306 676.24 374.19 676.24 371.424C676.24 368.657 673.964 366.541 671.363 366.541ZM810.013 232.765C812.776 232.765 814.889 230.649 814.889 227.882C814.889 225.116 812.776 223 810.013 223C807.25 223 805.137 225.116 805.137 227.882C805.137 230.649 807.25 232.765 810.013 232.765ZM578.876 318.694C576.113 318.694 574 320.81 574 323.576C574 326.343 576.113 328.459 578.876 328.459C581.64 328.459 583.753 326.343 583.753 323.576C583.753 320.81 581.64 318.694 578.876 318.694ZM578.876 414.388C576.113 414.388 574 416.504 574 419.271C574 422.037 576.113 424.153 578.876 424.153C581.64 424.153 583.753 422.037 583.753 419.271C583.753 416.504 581.64 414.388 578.876 414.388ZM578.876 366.541C576.113 366.541 574 368.657 574 371.424C574 374.19 576.113 376.306 578.876 376.306C581.64 376.306 583.753 374.19 583.753 371.424C583.753 368.657 581.64 366.541 578.876 366.541ZM578.876 462.235C576.113 462.235 574 464.351 574 467.118C574 469.884 576.113 472 578.876 472C581.64 472 583.753 469.884 583.753 467.118C583.753 464.351 581.64 462.235 578.876 462.235ZM625.039 414.388C622.275 414.388 620.162 416.504 620.162 419.271C620.162 422.037 622.275 424.153 625.039 424.153C627.802 424.153 629.915 422.037 629.915 419.271C629.915 416.504 627.802 414.388 625.039 414.388ZM625.039 462.235C622.275 462.235 620.162 464.351 620.162 467.118C620.162 469.884 622.275 472 625.039 472C627.802 472 629.915 469.884 629.915 467.118C629.915 464.351 627.802 462.235 625.039 462.235ZM578.876 270.847C576.113 270.847 574 272.963 574 275.729C574 278.496 576.113 280.612 578.876 280.612C581.64 280.612 583.753 278.496 583.753 275.729C583.753 272.963 581.64 270.847 578.876 270.847ZM578.876 223C576.113 223 574 225.116 574 227.882C574 230.649 576.113 232.765 578.876 232.765C581.64 232.765 583.753 230.649 583.753 227.882C583.753 225.116 581.64 223 578.876 223ZM671.363 223C668.6 223 666.487 225.116 666.487 227.882C666.487 230.649 668.6 232.765 671.363 232.765C674.127 232.765 676.24 230.649 676.24 227.882C676.24 225.116 673.964 223 671.363 223ZM810.013 414.388C807.25 414.388 805.137 416.504 805.137 419.271C805.137 422.037 807.25 424.153 810.013 424.153C812.776 424.153 814.889 422.037 814.889 419.271C814.889 416.504 812.614 414.388 810.013 414.388ZM763.688 223C760.925 223 758.812 225.116 758.812 227.882C758.812 230.649 760.925 232.765 763.688 232.765C766.451 232.765 768.564 230.649 768.564 227.882C768.564 225.116 766.451 223 763.688 223ZM810.013 462.235C807.25 462.235 805.137 464.351 805.137 467.118C805.137 469.884 807.25 472 810.013 472C812.776 472 814.889 469.884 814.889 467.118C814.889 464.351 812.614 462.235 810.013 462.235ZM763.688 270.847C760.925 270.847 758.812 272.963 758.812 275.729C758.812 278.496 760.925 280.612 763.688 280.612C766.451 280.612 768.564 278.496 768.564 275.729C768.564 272.963 766.451 270.847 763.688 270.847ZM810.013 366.541C807.25 366.541 805.137 368.657 805.137 371.424C805.137 374.19 807.25 376.306 810.013 376.306C812.776 376.306 814.889 374.19 814.889 371.424C814.889 368.657 812.614 366.541 810.013 366.541ZM810.013 270.847C807.25 270.847 805.137 272.963 805.137 275.729C805.137 278.496 807.25 280.612 810.013 280.612C812.776 280.612 814.889 278.496 814.889 275.729C814.889 272.963 812.614 270.847 810.013 270.847ZM763.688 318.694C760.925 318.694 758.812 320.81 758.812 323.576C758.812 326.343 760.925 328.459 763.688 328.459C766.451 328.459 768.564 326.343 768.564 323.576C768.564 320.81 766.451 318.694 763.688 318.694ZM810.013 318.694C807.25 318.694 805.137 320.81 805.137 323.576C805.137 326.343 807.25 328.459 810.013 328.459C812.776 328.459 814.889 326.343 814.889 323.576C814.889 320.81 812.614 318.694 810.013 318.694ZM717.526 318.694C714.763 318.694 712.649 320.81 712.649 323.576C712.649 326.343 714.763 328.459 717.526 328.459C720.289 328.459 722.402 326.343 722.402 323.576C722.402 320.81 720.289 318.694 717.526 318.694ZM717.526 366.541C714.763 366.541 712.649 368.657 712.649 371.424C712.649 374.19 714.763 376.306 717.526 376.306C720.289 376.306 722.402 374.19 722.402 371.424C722.402 368.657 720.289 366.541 717.526 366.541ZM717.526 462.235C714.763 462.235 712.649 464.351 712.649 467.118C712.649 469.884 714.763 472 717.526 472C720.289 472 722.402 469.884 722.402 467.118C722.402 464.351 720.289 462.235 717.526 462.235ZM717.526 270.847C714.763 270.847 712.649 272.963 712.649 275.729C712.649 278.496 714.763 280.612 717.526 280.612C720.289 280.612 722.402 278.496 722.402 275.729C722.402 272.963 720.289 270.847 717.526 270.847ZM717.526 414.388C714.763 414.388 712.649 416.504 712.649 419.271C712.649 422.037 714.763 424.153 717.526 424.153C720.289 424.153 722.402 422.037 722.402 419.271C722.402 416.504 720.289 414.388 717.526 414.388ZM763.688 414.388C760.925 414.388 758.812 416.504 758.812 419.271C758.812 422.037 760.925 424.153 763.688 424.153C766.451 424.153 768.564 422.037 768.564 419.271C768.564 416.504 766.451 414.388 763.688 414.388ZM763.688 366.541C760.925 366.541 758.812 368.657 758.812 371.424C758.812 374.19 760.925 376.306 763.688 376.306C766.451 376.306 768.564 374.19 768.564 371.424C768.564 368.657 766.451 366.541 763.688 366.541ZM763.688 462.235C760.925 462.235 758.812 464.351 758.812 467.118C758.812 469.884 760.925 472 763.688 472C766.451 472 768.564 469.884 768.564 467.118C768.564 464.351 766.451 462.235 763.688 462.235ZM717.526 223C714.763 223 712.649 225.116 712.649 227.882C712.649 230.649 714.763 232.765 717.526 232.765C720.289 232.765 722.402 230.649 722.402 227.882C722.402 225.116 720.289 223 717.526 223Z" fill="#2F2F2F"/>
<path d="M142.08 479.774C146.779 477.639 153.118 476.375 160 476.375C166.882 476.375 173.221 477.639 177.92 479.774C182.422 481.822 186.25 485.094 186.25 489.5C186.25 493.906 182.422 497.178 177.92 499.226C173.221 501.361 166.882 502.625 160 502.625C153.118 502.625 146.779 501.361 142.08 499.226C137.578 497.178 133.75 493.906 133.75 489.5C133.75 485.094 137.578 481.822 142.08 479.774Z" fill="#2F2F2F"/>
<path d="M133.75 498.954V502.625C133.75 507.031 137.578 510.303 142.08 512.351C146.779 514.481 153.118 515.75 160 515.75C166.882 515.75 173.221 514.486 177.92 512.351C182.422 510.303 186.25 507.031 186.25 502.625V498.954C184.251 500.844 181.858 502.24 179.731 503.207C174.341 505.657 167.359 507 160 507C152.641 507 145.659 505.657 140.269 503.207C138.142 502.244 135.749 500.844 133.75 498.954Z" fill="#2F2F2F"/>
<path d="M133.75 512.079V515.75C133.75 520.156 137.578 523.428 142.08 525.476C146.779 527.611 153.118 528.875 160 528.875C166.882 528.875 173.221 527.611 177.92 525.476C182.422 523.428 186.25 520.156 186.25 515.75V512.079C184.251 513.969 181.858 515.365 179.731 516.332C174.341 518.782 167.359 520.125 160 520.125C152.641 520.125 145.659 518.782 140.269 516.332C138.142 515.369 135.749 513.969 133.75 512.079Z" fill="#2F2F2F"/>
<path d="M133.75 525.204V528.875C133.75 533.281 137.578 536.553 142.08 538.601C146.779 540.736 153.118 542 160 542C166.882 542 173.221 540.736 177.92 538.601C182.422 536.553 186.25 533.281 186.25 528.875V525.204C184.251 527.094 181.858 528.49 179.731 529.457C174.341 531.907 167.359 533.25 160 533.25C152.641 533.25 145.659 531.907 140.269 529.457C138.142 528.494 135.749 527.094 133.75 525.204Z" fill="#2F2F2F"/>
<path d="M799.001 68.4124C803.311 64.6956 808.809 62.6428 814.5 62.625C826.101 62.625 835.73 71.25 836.778 82.3719C843.644 83.3423 849 89.0908 849 96.1461C849 103.891 842.54 110.062 834.713 110.062H796.306C787.366 110.062 780 103.016 780 94.1839C780 86.5809 785.46 80.2847 792.687 78.6891C793.304 74.9674 795.698 71.2586 799.001 68.4124Z" fill="#2F2F2F"/>
</svg>
